%TF.GenerationSoftware,KiCad,Pcbnew,9.0.6*%
%TF.CreationDate,2026-07-24T18:39:21-07:00*%
%TF.ProjectId,LED Ring,4c454420-5269-46e6-972e-6b696361645f,rev?*%
%TF.SameCoordinates,Original*%
%TF.FileFunction,Legend,Top*%
%TF.FilePolarity,Positive*%
%FSLAX46Y46*%
G04 Gerber Fmt 4.6, Leading zero omitted, Abs format (unit mm)*
G04 Created by KiCad (PCBNEW 9.0.6) date 2026-07-24 18:39:21*
%MOMM*%
%LPD*%
G01*
G04 APERTURE LIST*
G04 Aperture macros list*
%AMRoundRect*
0 Rectangle with rounded corners*
0 $1 Rounding radius*
0 $2 $3 $4 $5 $6 $7 $8 $9 X,Y pos of 4 corners*
0 Add a 4 corners polygon primitive as box body*
4,1,4,$2,$3,$4,$5,$6,$7,$8,$9,$2,$3,0*
0 Add four circle primitives for the rounded corners*
1,1,$1+$1,$2,$3*
1,1,$1+$1,$4,$5*
1,1,$1+$1,$6,$7*
1,1,$1+$1,$8,$9*
0 Add four rect primitives between the rounded corners*
20,1,$1+$1,$2,$3,$4,$5,0*
20,1,$1+$1,$4,$5,$6,$7,0*
20,1,$1+$1,$6,$7,$8,$9,0*
20,1,$1+$1,$8,$9,$2,$3,0*%
G04 Aperture macros list end*
%ADD10C,0.150000*%
%ADD11C,0.120000*%
%ADD12C,0.254000*%
%ADD13RoundRect,0.250000X-0.565685X-1.484924X1.484924X0.565685X0.565685X1.484924X-1.484924X-0.565685X0*%
%ADD14RoundRect,0.250000X-1.484924X0.565685X0.565685X-1.484924X1.484924X-0.565685X-0.565685X1.484924X0*%
%ADD15R,3.200000X0.650000*%
%ADD16R,1.100000X0.800000*%
%ADD17R,0.650000X3.200000*%
%ADD18R,0.800000X1.100000*%
G04 APERTURE END LIST*
D10*
X7313081Y-2609422D02*
X7279409Y-2508407D01*
X7279409Y-2508407D02*
X7178394Y-2407392D01*
X7178394Y-2407392D02*
X7043707Y-2340048D01*
X7043707Y-2340048D02*
X6909020Y-2340048D01*
X6909020Y-2340048D02*
X6808005Y-2373720D01*
X6808005Y-2373720D02*
X6639646Y-2474735D01*
X6639646Y-2474735D02*
X6538631Y-2575751D01*
X6538631Y-2575751D02*
X6437616Y-2744109D01*
X6437616Y-2744109D02*
X6403944Y-2845125D01*
X6403944Y-2845125D02*
X6403944Y-2979812D01*
X6403944Y-2979812D02*
X6471287Y-3114499D01*
X6471287Y-3114499D02*
X6538631Y-3181842D01*
X6538631Y-3181842D02*
X6673318Y-3249186D01*
X6673318Y-3249186D02*
X6740661Y-3249186D01*
X6740661Y-3249186D02*
X6976364Y-3013483D01*
X6976364Y-3013483D02*
X6841677Y-2878796D01*
X6976364Y-3619575D02*
X7683471Y-2912468D01*
X7683471Y-2912468D02*
X7380425Y-4023636D01*
X7380425Y-4023636D02*
X8087532Y-3316529D01*
X7717142Y-4360353D02*
X8424249Y-3653247D01*
X8424249Y-3653247D02*
X8592608Y-3821605D01*
X8592608Y-3821605D02*
X8659951Y-3956292D01*
X8659951Y-3956292D02*
X8659951Y-4090979D01*
X8659951Y-4090979D02*
X8626280Y-4191995D01*
X8626280Y-4191995D02*
X8525264Y-4360353D01*
X8525264Y-4360353D02*
X8424249Y-4461369D01*
X8424249Y-4461369D02*
X8255890Y-4562384D01*
X8255890Y-4562384D02*
X8154875Y-4596056D01*
X8154875Y-4596056D02*
X8020188Y-4596056D01*
X8020188Y-4596056D02*
X7885501Y-4528712D01*
X7885501Y-4528712D02*
X7717142Y-4360353D01*
X-5925962Y8464731D02*
X-5218855Y9171838D01*
X-5218855Y9171838D02*
X-5050496Y9003479D01*
X-5050496Y9003479D02*
X-4983153Y8868792D01*
X-4983153Y8868792D02*
X-4983153Y8734105D01*
X-4983153Y8734105D02*
X-5016825Y8633089D01*
X-5016825Y8633089D02*
X-5117840Y8464731D01*
X-5117840Y8464731D02*
X-5218855Y8363715D01*
X-5218855Y8363715D02*
X-5387214Y8262700D01*
X-5387214Y8262700D02*
X-5488229Y8229028D01*
X-5488229Y8229028D02*
X-5622916Y8229028D01*
X-5622916Y8229028D02*
X-5757603Y8296372D01*
X-5757603Y8296372D02*
X-5925962Y8464731D01*
X-4377061Y8330044D02*
X-4242374Y8195357D01*
X-4242374Y8195357D02*
X-4208703Y8094341D01*
X-4208703Y8094341D02*
X-4208703Y7959654D01*
X-4208703Y7959654D02*
X-4309718Y7791296D01*
X-4309718Y7791296D02*
X-4545420Y7555593D01*
X-4545420Y7555593D02*
X-4713779Y7454578D01*
X-4713779Y7454578D02*
X-4848466Y7454578D01*
X-4848466Y7454578D02*
X-4949481Y7488250D01*
X-4949481Y7488250D02*
X-5084168Y7622937D01*
X-5084168Y7622937D02*
X-5117840Y7723952D01*
X-5117840Y7723952D02*
X-5117840Y7858639D01*
X-5117840Y7858639D02*
X-5016825Y8026998D01*
X-5016825Y8026998D02*
X-4781122Y8262700D01*
X-4781122Y8262700D02*
X-4612764Y8363715D01*
X-4612764Y8363715D02*
X-4478077Y8363715D01*
X-4478077Y8363715D02*
X-4377061Y8330044D01*
X-3770970Y7723952D02*
X-4343390Y7151532D01*
X-4343390Y7151532D02*
X-4377061Y7050517D01*
X-4377061Y7050517D02*
X-4377061Y6983174D01*
X-4377061Y6983174D02*
X-4343390Y6882158D01*
X-4343390Y6882158D02*
X-4208703Y6747471D01*
X-4208703Y6747471D02*
X-4107687Y6713800D01*
X-4107687Y6713800D02*
X-4040344Y6713800D01*
X-4040344Y6713800D02*
X-3939329Y6747471D01*
X-3939329Y6747471D02*
X-3366909Y7319891D01*
X-3131207Y7084189D02*
X-2727146Y6680128D01*
X-3636283Y6175052D02*
X-2929176Y6882158D01*
X-761904Y11277180D02*
X-761904Y10467657D01*
X-761904Y10467657D02*
X-714285Y10372419D01*
X-714285Y10372419D02*
X-666666Y10324800D01*
X-666666Y10324800D02*
X-571428Y10277180D01*
X-571428Y10277180D02*
X-380952Y10277180D01*
X-380952Y10277180D02*
X-285714Y10324800D01*
X-285714Y10324800D02*
X-238095Y10372419D01*
X-238095Y10372419D02*
X-190476Y10467657D01*
X-190476Y10467657D02*
X-190476Y11277180D01*
X714285Y10943847D02*
X714285Y10277180D01*
X476190Y11324800D02*
X238095Y10610514D01*
X238095Y10610514D02*
X857142Y10610514D01*
X-761904Y-10186819D02*
X-761904Y-10996342D01*
X-761904Y-10996342D02*
X-714285Y-11091580D01*
X-714285Y-11091580D02*
X-666666Y-11139200D01*
X-666666Y-11139200D02*
X-571428Y-11186819D01*
X-571428Y-11186819D02*
X-380952Y-11186819D01*
X-380952Y-11186819D02*
X-285714Y-11139200D01*
X-285714Y-11139200D02*
X-238095Y-11091580D01*
X-238095Y-11091580D02*
X-190476Y-10996342D01*
X-190476Y-10996342D02*
X-190476Y-10186819D01*
X238095Y-10282057D02*
X285714Y-10234438D01*
X285714Y-10234438D02*
X380952Y-10186819D01*
X380952Y-10186819D02*
X619047Y-10186819D01*
X619047Y-10186819D02*
X714285Y-10234438D01*
X714285Y-10234438D02*
X761904Y-10282057D01*
X761904Y-10282057D02*
X809523Y-10377295D01*
X809523Y-10377295D02*
X809523Y-10472533D01*
X809523Y-10472533D02*
X761904Y-10615390D01*
X761904Y-10615390D02*
X190476Y-11186819D01*
X190476Y-11186819D02*
X809523Y-11186819D01*
X-11277180Y-761904D02*
X-10467657Y-761904D01*
X-10467657Y-761904D02*
X-10372419Y-714285D01*
X-10372419Y-714285D02*
X-10324800Y-666666D01*
X-10324800Y-666666D02*
X-10277180Y-571428D01*
X-10277180Y-571428D02*
X-10277180Y-380952D01*
X-10277180Y-380952D02*
X-10324800Y-285714D01*
X-10324800Y-285714D02*
X-10372419Y-238095D01*
X-10372419Y-238095D02*
X-10467657Y-190476D01*
X-10467657Y-190476D02*
X-11277180Y-190476D01*
X-11277180Y190476D02*
X-11277180Y809523D01*
X-11277180Y809523D02*
X-10896228Y476190D01*
X-10896228Y476190D02*
X-10896228Y619047D01*
X-10896228Y619047D02*
X-10848609Y714285D01*
X-10848609Y714285D02*
X-10800990Y761904D01*
X-10800990Y761904D02*
X-10705752Y809523D01*
X-10705752Y809523D02*
X-10467657Y809523D01*
X-10467657Y809523D02*
X-10372419Y761904D01*
X-10372419Y761904D02*
X-10324800Y714285D01*
X-10324800Y714285D02*
X-10277180Y619047D01*
X-10277180Y619047D02*
X-10277180Y333333D01*
X-10277180Y333333D02*
X-10324800Y238095D01*
X-10324800Y238095D02*
X-10372419Y190476D01*
X10186819Y-761904D02*
X10996342Y-761904D01*
X10996342Y-761904D02*
X11091580Y-714285D01*
X11091580Y-714285D02*
X11139200Y-666666D01*
X11139200Y-666666D02*
X11186819Y-571428D01*
X11186819Y-571428D02*
X11186819Y-380952D01*
X11186819Y-380952D02*
X11139200Y-285714D01*
X11139200Y-285714D02*
X11091580Y-238095D01*
X11091580Y-238095D02*
X10996342Y-190476D01*
X10996342Y-190476D02*
X10186819Y-190476D01*
X11186819Y809523D02*
X11186819Y238095D01*
X11186819Y523809D02*
X10186819Y523809D01*
X10186819Y523809D02*
X10329676Y428571D01*
X10329676Y428571D02*
X10424914Y333333D01*
X10424914Y333333D02*
X10472533Y238095D01*
X-5466317Y-3080700D02*
X-5937722Y-4023509D01*
X-5937722Y-4023509D02*
X-4994913Y-3552104D01*
X-5466317Y-4494913D02*
X-4759210Y-3787806D01*
X-4759210Y-3787806D02*
X-4590851Y-3956165D01*
X-4590851Y-3956165D02*
X-4523508Y-4090852D01*
X-4523508Y-4090852D02*
X-4523508Y-4225539D01*
X-4523508Y-4225539D02*
X-4557180Y-4326555D01*
X-4557180Y-4326555D02*
X-4658195Y-4494913D01*
X-4658195Y-4494913D02*
X-4759210Y-4595929D01*
X-4759210Y-4595929D02*
X-4927569Y-4696944D01*
X-4927569Y-4696944D02*
X-5028584Y-4730616D01*
X-5028584Y-4730616D02*
X-5163271Y-4730616D01*
X-5163271Y-4730616D02*
X-5297958Y-4663272D01*
X-5297958Y-4663272D02*
X-5466317Y-4494913D01*
X-4759210Y-5202020D02*
X-4052103Y-4494913D01*
X-4052103Y-4494913D02*
X-3883745Y-4663272D01*
X-3883745Y-4663272D02*
X-3816401Y-4797959D01*
X-3816401Y-4797959D02*
X-3816401Y-4932646D01*
X-3816401Y-4932646D02*
X-3850073Y-5033661D01*
X-3850073Y-5033661D02*
X-3951088Y-5202020D01*
X-3951088Y-5202020D02*
X-4052103Y-5303035D01*
X-4052103Y-5303035D02*
X-4220462Y-5404051D01*
X-4220462Y-5404051D02*
X-4321477Y-5437722D01*
X-4321477Y-5437722D02*
X-4456164Y-5437722D01*
X-4456164Y-5437722D02*
X-4590851Y-5370379D01*
X-4590851Y-5370379D02*
X-4759210Y-5202020D01*
X4006673Y6545442D02*
X3299566Y7252549D01*
X3299566Y7252549D02*
X3467925Y7420907D01*
X3467925Y7420907D02*
X3602612Y7488251D01*
X3602612Y7488251D02*
X3737299Y7488251D01*
X3737299Y7488251D02*
X3838314Y7454579D01*
X3838314Y7454579D02*
X4006673Y7353564D01*
X4006673Y7353564D02*
X4107688Y7252549D01*
X4107688Y7252549D02*
X4208704Y7084190D01*
X4208704Y7084190D02*
X4242375Y6983175D01*
X4242375Y6983175D02*
X4242375Y6848488D01*
X4242375Y6848488D02*
X4175032Y6713801D01*
X4175032Y6713801D02*
X4006673Y6545442D01*
X4713780Y7252549D02*
X4006673Y7959655D01*
X5050497Y7589266D02*
X4343390Y8296372D01*
X4343390Y8296372D02*
X5454558Y7993327D01*
X5454558Y7993327D02*
X4747451Y8700434D01*
D11*
%TO.C,GND*%
X7121320Y-4434315D02*
X4434315Y-7121320D01*
X2878680Y-5565685D01*
X5565685Y-2878680D01*
X7121320Y-4434315D01*
%TO.C,DOUT*%
X-3878680Y5434314D02*
X-5434315Y3878679D01*
X-8121320Y6565686D01*
X-6565685Y8121321D01*
X-3878680Y5434314D01*
%TO.C,U4*%
D12*
X-1905000Y9905000D02*
X1905000Y9905000D01*
X1905000Y6095000D01*
X-1905000Y6095000D01*
X-1905000Y9905000D01*
%TO.C,U2*%
X1905000Y-9905000D02*
X-1905000Y-9905000D01*
X-1905000Y-6095000D01*
X1905000Y-6095000D01*
X1905000Y-9905000D01*
%TO.C,U3*%
X-9905000Y-1905000D02*
X-6095000Y-1905000D01*
X-6095000Y1905000D01*
X-9905000Y1905000D01*
X-9905000Y-1905000D01*
%TO.C,U1*%
X9905000Y1905000D02*
X6095000Y1905000D01*
X6095000Y-1905000D01*
X9905000Y-1905000D01*
X9905000Y1905000D01*
D11*
%TO.C,VDD*%
X-4378680Y-6565685D02*
X-5934315Y-8121320D01*
X-8621320Y-5434315D01*
X-7065685Y-3878680D01*
X-4378680Y-6565685D01*
%TO.C,DIN*%
X8121320Y6565685D02*
X5434315Y3878680D01*
X3878680Y5434315D01*
X6565685Y8121320D01*
X8121320Y6565685D01*
%TD*%
%LPC*%
D13*
%TO.C,GND*%
X5000000Y-5000000D03*
%TD*%
D14*
%TO.C,DOUT*%
X-6000000Y6000000D03*
%TD*%
D15*
%TO.C,U4*%
X0Y9325000D03*
D16*
X-1050000Y8000000D03*
X1050000Y8000000D03*
D15*
X0Y6675000D03*
%TD*%
%TO.C,U2*%
X0Y-9325000D03*
D16*
X1050000Y-8000000D03*
X-1050000Y-8000000D03*
D15*
X0Y-6675000D03*
%TD*%
D17*
%TO.C,U3*%
X-9325000Y0D03*
D18*
X-8000000Y-1050000D03*
X-8000000Y1050000D03*
D17*
X-6675000Y0D03*
%TD*%
%TO.C,U1*%
X9325000Y0D03*
D18*
X8000000Y1050000D03*
X8000000Y-1050000D03*
D17*
X6675000Y0D03*
%TD*%
D14*
%TO.C,VDD*%
X-6500000Y-6000000D03*
%TD*%
D13*
%TO.C,DIN*%
X6000000Y6000000D03*
%TD*%
%LPD*%
M02*
