%TF.GenerationSoftware,KiCad,Pcbnew,9.0.6*%
%TF.CreationDate,2026-07-24T18:39:21-07:00*%
%TF.ProjectId,LED Ring,4c454420-5269-46e6-972e-6b696361645f,rev?*%
%TF.SameCoordinates,Original*%
%TF.FileFunction,Legend,Bot*%
%TF.FilePolarity,Positive*%
%FSLAX46Y46*%
G04 Gerber Fmt 4.6, Leading zero omitted, Abs format (unit mm)*
G04 Created by KiCad (PCBNEW 9.0.6) date 2026-07-24 18:39:21*
%MOMM*%
%LPD*%
G01*
G04 APERTURE LIST*
G04 Aperture macros list*
%AMRoundRect*
0 Rectangle with rounded corners*
0 $1 Rounding radius*
0 $2 $3 $4 $5 $6 $7 $8 $9 X,Y pos of 4 corners*
0 Add a 4 corners polygon primitive as box body*
4,1,4,$2,$3,$4,$5,$6,$7,$8,$9,$2,$3,0*
0 Add four circle primitives for the rounded corners*
1,1,$1+$1,$2,$3*
1,1,$1+$1,$4,$5*
1,1,$1+$1,$6,$7*
1,1,$1+$1,$8,$9*
0 Add four rect primitives between the rounded corners*
20,1,$1+$1,$2,$3,$4,$5,0*
20,1,$1+$1,$4,$5,$6,$7,0*
20,1,$1+$1,$6,$7,$8,$9,0*
20,1,$1+$1,$8,$9,$2,$3,0*%
G04 Aperture macros list end*
%ADD10C,0.150000*%
%ADD11C,0.120000*%
%ADD12RoundRect,0.250000X1.484924X-0.565685X-0.565685X1.484924X-1.484924X0.565685X0.565685X-1.484924X0*%
%ADD13RoundRect,0.250000X1.450000X0.650000X-1.450000X0.650000X-1.450000X-0.650000X1.450000X-0.650000X0*%
%ADD14RoundRect,0.250000X-1.484924X0.565685X0.565685X-1.484924X1.484924X-0.565685X-0.565685X1.484924X0*%
%ADD15RoundRect,0.250000X-0.565685X-1.484924X1.484924X0.565685X0.565685X1.484924X-1.484924X-0.565685X0*%
G04 APERTURE END LIST*
D10*
X-3330700Y-5216317D02*
X-4273509Y-5687722D01*
X-4273509Y-5687722D02*
X-3802104Y-4744913D01*
X-4744913Y-5216317D02*
X-4037806Y-4509210D01*
X-4037806Y-4509210D02*
X-4206165Y-4340851D01*
X-4206165Y-4340851D02*
X-4340852Y-4273508D01*
X-4340852Y-4273508D02*
X-4475539Y-4273508D01*
X-4475539Y-4273508D02*
X-4576555Y-4307180D01*
X-4576555Y-4307180D02*
X-4744913Y-4408195D01*
X-4744913Y-4408195D02*
X-4845929Y-4509210D01*
X-4845929Y-4509210D02*
X-4946944Y-4677569D01*
X-4946944Y-4677569D02*
X-4980616Y-4778584D01*
X-4980616Y-4778584D02*
X-4980616Y-4913271D01*
X-4980616Y-4913271D02*
X-4913272Y-5047958D01*
X-4913272Y-5047958D02*
X-4744913Y-5216317D01*
X-5452020Y-4509210D02*
X-4744913Y-3802103D01*
X-4744913Y-3802103D02*
X-4913272Y-3633745D01*
X-4913272Y-3633745D02*
X-5047959Y-3566401D01*
X-5047959Y-3566401D02*
X-5182646Y-3566401D01*
X-5182646Y-3566401D02*
X-5283661Y-3600073D01*
X-5283661Y-3600073D02*
X-5452020Y-3701088D01*
X-5452020Y-3701088D02*
X-5553035Y-3802103D01*
X-5553035Y-3802103D02*
X-5654051Y-3970462D01*
X-5654051Y-3970462D02*
X-5687722Y-4071477D01*
X-5687722Y-4071477D02*
X-5687722Y-4206164D01*
X-5687722Y-4206164D02*
X-5620379Y-4340851D01*
X-5620379Y-4340851D02*
X-5452020Y-4509210D01*
X9261904Y2497561D02*
X9357142Y2545180D01*
X9357142Y2545180D02*
X9499999Y2545180D01*
X9499999Y2545180D02*
X9642856Y2497561D01*
X9642856Y2497561D02*
X9738094Y2402323D01*
X9738094Y2402323D02*
X9785713Y2307085D01*
X9785713Y2307085D02*
X9833332Y2116609D01*
X9833332Y2116609D02*
X9833332Y1973752D01*
X9833332Y1973752D02*
X9785713Y1783276D01*
X9785713Y1783276D02*
X9738094Y1688038D01*
X9738094Y1688038D02*
X9642856Y1592800D01*
X9642856Y1592800D02*
X9499999Y1545180D01*
X9499999Y1545180D02*
X9404761Y1545180D01*
X9404761Y1545180D02*
X9261904Y1592800D01*
X9261904Y1592800D02*
X9214285Y1640419D01*
X9214285Y1640419D02*
X9214285Y1973752D01*
X9214285Y1973752D02*
X9404761Y1973752D01*
X8785713Y1545180D02*
X8785713Y2545180D01*
X8785713Y2545180D02*
X8214285Y1545180D01*
X8214285Y1545180D02*
X8214285Y2545180D01*
X7738094Y1545180D02*
X7738094Y2545180D01*
X7738094Y2545180D02*
X7499999Y2545180D01*
X7499999Y2545180D02*
X7357142Y2497561D01*
X7357142Y2497561D02*
X7261904Y2402323D01*
X7261904Y2402323D02*
X7214285Y2307085D01*
X7214285Y2307085D02*
X7166666Y2116609D01*
X7166666Y2116609D02*
X7166666Y1973752D01*
X7166666Y1973752D02*
X7214285Y1783276D01*
X7214285Y1783276D02*
X7261904Y1688038D01*
X7261904Y1688038D02*
X7357142Y1592800D01*
X7357142Y1592800D02*
X7499999Y1545180D01*
X7499999Y1545180D02*
X7738094Y1545180D01*
X5561346Y4363462D02*
X6268453Y5070569D01*
X6268453Y5070569D02*
X6100094Y5238927D01*
X6100094Y5238927D02*
X5965407Y5306271D01*
X5965407Y5306271D02*
X5830720Y5306271D01*
X5830720Y5306271D02*
X5729705Y5272599D01*
X5729705Y5272599D02*
X5561346Y5171584D01*
X5561346Y5171584D02*
X5460331Y5070569D01*
X5460331Y5070569D02*
X5359315Y4902210D01*
X5359315Y4902210D02*
X5325644Y4801195D01*
X5325644Y4801195D02*
X5325644Y4666508D01*
X5325644Y4666508D02*
X5392987Y4531821D01*
X5392987Y4531821D02*
X5561346Y4363462D01*
X4854239Y5070569D02*
X5561346Y5777675D01*
X4517522Y5407286D02*
X5224629Y6114392D01*
X5224629Y6114392D02*
X4113461Y5811347D01*
X4113461Y5811347D02*
X4820568Y6518454D01*
X-3642057Y5782751D02*
X-4349164Y6489858D01*
X-4349164Y6489858D02*
X-4517523Y6321499D01*
X-4517523Y6321499D02*
X-4584866Y6186812D01*
X-4584866Y6186812D02*
X-4584866Y6052125D01*
X-4584866Y6052125D02*
X-4551194Y5951109D01*
X-4551194Y5951109D02*
X-4450179Y5782751D01*
X-4450179Y5782751D02*
X-4349164Y5681735D01*
X-4349164Y5681735D02*
X-4180805Y5580720D01*
X-4180805Y5580720D02*
X-4079790Y5547048D01*
X-4079790Y5547048D02*
X-3945103Y5547048D01*
X-3945103Y5547048D02*
X-3810416Y5614392D01*
X-3810416Y5614392D02*
X-3642057Y5782751D01*
X-5190958Y5648064D02*
X-5325645Y5513377D01*
X-5325645Y5513377D02*
X-5359316Y5412361D01*
X-5359316Y5412361D02*
X-5359316Y5277674D01*
X-5359316Y5277674D02*
X-5258301Y5109316D01*
X-5258301Y5109316D02*
X-5022599Y4873613D01*
X-5022599Y4873613D02*
X-4854240Y4772598D01*
X-4854240Y4772598D02*
X-4719553Y4772598D01*
X-4719553Y4772598D02*
X-4618538Y4806270D01*
X-4618538Y4806270D02*
X-4483851Y4940957D01*
X-4483851Y4940957D02*
X-4450179Y5041972D01*
X-4450179Y5041972D02*
X-4450179Y5176659D01*
X-4450179Y5176659D02*
X-4551194Y5345018D01*
X-4551194Y5345018D02*
X-4786897Y5580720D01*
X-4786897Y5580720D02*
X-4955255Y5681735D01*
X-4955255Y5681735D02*
X-5089942Y5681735D01*
X-5089942Y5681735D02*
X-5190958Y5648064D01*
X-5797049Y5041972D02*
X-5224629Y4469552D01*
X-5224629Y4469552D02*
X-5190958Y4368537D01*
X-5190958Y4368537D02*
X-5190958Y4301194D01*
X-5190958Y4301194D02*
X-5224629Y4200178D01*
X-5224629Y4200178D02*
X-5359316Y4065491D01*
X-5359316Y4065491D02*
X-5460332Y4031820D01*
X-5460332Y4031820D02*
X-5527675Y4031820D01*
X-5527675Y4031820D02*
X-5628690Y4065491D01*
X-5628690Y4065491D02*
X-6201110Y4637911D01*
X-6436812Y4402209D02*
X-6840873Y3998148D01*
X-5931736Y3493072D02*
X-6638843Y4200178D01*
D11*
%TO.C,VDD*%
X-4128680Y-6815685D02*
X-5684315Y-8371320D01*
X-8371320Y-5684315D01*
X-6815685Y-4128680D01*
X-4128680Y-6815685D01*
%TO.C,GND*%
X10399999Y-1100000D02*
X6600001Y-1100000D01*
X6600001Y1100000D01*
X10399999Y1100000D01*
X10399999Y-1100000D01*
%TO.C,DIN*%
X8871320Y6434315D02*
X7315685Y4878680D01*
X4628680Y7565685D01*
X6184315Y9121320D01*
X8871320Y6434315D01*
%TO.C,DOUT*%
X-4628680Y7065686D02*
X-7315685Y4378679D01*
X-8871320Y5934314D01*
X-6184315Y8621321D01*
X-4628680Y7065686D01*
%TD*%
%LPC*%
D12*
%TO.C,VDD*%
X-6250000Y-6250000D03*
%TD*%
D13*
%TO.C,GND*%
X8500000Y0D03*
%TD*%
D14*
%TO.C,DIN*%
X6750000Y7000000D03*
%TD*%
D15*
%TO.C,DOUT*%
X-6750000Y6500000D03*
%TD*%
%LPD*%
M02*
