M48
; DRILL file {KiCad 9.0.6} date 2026-07-24T18:39:21-0700
; FORMAT={-:-/ absolute / inch / decimal}
; #@! TF.CreationDate,2026-07-24T18:39:21-07:00
; #@! TF.GenerationSoftware,Kicad,Pcbnew,9.0.6
; #@! TF.FileFunction,Plated,1,2,PTH
FMAT,2
INCH
; #@! TA.AperFunction,Plated,PTH,ViaDrill
T1C0.0118
; #@! TA.AperFunction,Plated,PTH,ViaDrill
T2C0.0197
%
G90
G05
T1
X-0.3671Y-0.0966
X-0.315Y0.0984
X-0.315Y-0.0984
X-0.2657Y0.2559
X-0.2559Y0.0787
X-0.0984Y0.315
X-0.0984Y-0.315
X-0.0966Y-0.3671
X0.0966Y-0.3671
X0.0972Y0.3334
X0.0984Y0.2362
X0.0984Y-0.2362
X0.0984Y-0.315
X0.2559Y0.0827
X0.2657Y0.2756
X0.315Y-0.0984
X0.3334Y0.0972
X0.3671Y-0.0966
T2
X-0.2417Y-0.222
X0.2362Y-0.1181
M30
