%TF.GenerationSoftware,KiCad,Pcbnew,9.0.6*%
%TF.CreationDate,2025-12-12T09:49:21-08:00*%
%TF.ProjectId,LED Ring,4c454420-5269-46e6-972e-6b696361645f,rev?*%
%TF.SameCoordinates,Original*%
%TF.FileFunction,Copper,L2,Bot*%
%TF.FilePolarity,Positive*%
%FSLAX46Y46*%
G04 Gerber Fmt 4.6, Leading zero omitted, Abs format (unit mm)*
G04 Created by KiCad (PCBNEW 9.0.6) date 2025-12-12 09:49:21*
%MOMM*%
%LPD*%
G01*
G04 APERTURE LIST*
%TA.AperFunction,ViaPad*%
%ADD10C,0.600000*%
%TD*%
%TA.AperFunction,Conductor*%
%ADD11C,0.200000*%
%TD*%
%TA.AperFunction,Conductor*%
%ADD12C,0.500000*%
%TD*%
G04 APERTURE END LIST*
D10*
%TO.N,Net-(U1-DO)*%
X2500000Y-8000000D03*
X8000000Y-2500000D03*
%TO.N,VDD*%
X-6139616Y-5639616D03*
X8468962Y2468962D03*
X-2454232Y-9325000D03*
X9325000Y-2454232D03*
X2454232Y-9325000D03*
X2468962Y8468962D03*
X-9325000Y-2454232D03*
%TO.N,GND*%
X-6500000Y2000000D03*
X2500000Y6000000D03*
X6500000Y2100002D03*
X2500000Y-6000000D03*
X6000000Y-3000000D03*
%TO.N,Net-(U2-DO)*%
X-8000000Y-2500000D03*
X-2500000Y-8000000D03*
%TO.N,Net-(U3-DO)*%
X-8000000Y2500000D03*
X-2500000Y8000000D03*
%TD*%
D11*
%TO.N,Net-(U1-DO)*%
X8000000Y-2500000D02*
X2500000Y-8000000D01*
D12*
%TO.N,VDD*%
X-6139616Y-5639616D02*
X-9325000Y-2454232D01*
X-2454232Y-9325000D02*
X-6139616Y-5639616D01*
X9325000Y-2454232D02*
X2454232Y-9325000D01*
X2468962Y8468962D02*
X8468962Y2468962D01*
D11*
%TO.N,Net-(U2-DO)*%
X-2500000Y-8000000D02*
X-8000000Y-2500000D01*
%TO.N,Net-(U3-DO)*%
X-2500000Y8000000D02*
X-8000000Y2500000D01*
%TD*%
%TA.AperFunction,Conductor*%
%TO.N,GND*%
G36*
X295310Y11246082D02*
G01*
X298582Y11245996D01*
X592112Y11234366D01*
X595381Y11234193D01*
X888425Y11214825D01*
X891689Y11214566D01*
X1184167Y11187463D01*
X1187422Y11187118D01*
X1479066Y11152306D01*
X1482311Y11151875D01*
X1772931Y11109378D01*
X1776163Y11108862D01*
X2065558Y11058709D01*
X2068775Y11058107D01*
X2356766Y11000329D01*
X2359968Y10999643D01*
X2646328Y10934282D01*
X2649509Y10933512D01*
X2934039Y10860617D01*
X2937199Y10859762D01*
X3219672Y10779391D01*
X3222809Y10778454D01*
X3503148Y10690627D01*
X3506258Y10689607D01*
X3784070Y10594451D01*
X3787153Y10593350D01*
X4062439Y10490861D01*
X4065491Y10489678D01*
X4337912Y10379985D01*
X4340932Y10378723D01*
X4610443Y10261842D01*
X4613430Y10260499D01*
X4879676Y10136583D01*
X4882624Y10135164D01*
X5145584Y10004227D01*
X5148496Y10002728D01*
X5407849Y9864924D01*
X5410719Y9863351D01*
X5666413Y9718711D01*
X5669240Y9717061D01*
X5920924Y9565784D01*
X5923708Y9564061D01*
X6171418Y9406124D01*
X6174154Y9404328D01*
X6417527Y9239963D01*
X6420216Y9238095D01*
X6659209Y9067332D01*
X6661847Y9065394D01*
X6896241Y8888387D01*
X6898827Y8886380D01*
X7128448Y8703263D01*
X7130980Y8701189D01*
X7355720Y8512048D01*
X7358196Y8509907D01*
X7577813Y8314945D01*
X7580232Y8312740D01*
X7794688Y8111991D01*
X7797049Y8109722D01*
X8006111Y7903402D01*
X8008410Y7901072D01*
X8211932Y7689326D01*
X8214169Y7686936D01*
X8412034Y7469889D01*
X8414207Y7467441D01*
X8606300Y7245216D01*
X8608408Y7242712D01*
X8794540Y7015529D01*
X8796582Y7012969D01*
X8976695Y6780892D01*
X8978667Y6778280D01*
X9152549Y6541592D01*
X9154452Y6538928D01*
X9322031Y6297721D01*
X9323863Y6295009D01*
X9485014Y6049469D01*
X9486774Y6046709D01*
X9641414Y5796958D01*
X9643100Y5794152D01*
X9791050Y5540478D01*
X9792662Y5537629D01*
X9933912Y5280055D01*
X9935448Y5277163D01*
X10069835Y5015973D01*
X10071294Y5013043D01*
X10198719Y4748441D01*
X10200100Y4745474D01*
X10320507Y4477578D01*
X10321810Y4474575D01*
X10435104Y4203592D01*
X10436326Y4200556D01*
X10542421Y3926697D01*
X10543564Y3923628D01*
X10642418Y3646987D01*
X10643478Y3643891D01*
X10734957Y3364858D01*
X10735936Y3361734D01*
X10820054Y3080263D01*
X10820950Y3077114D01*
X10897600Y2793546D01*
X10898412Y2790375D01*
X10967533Y2504955D01*
X10968262Y2501764D01*
X11029837Y2214564D01*
X11030481Y2211353D01*
X11084449Y1922643D01*
X11085008Y1919419D01*
X11131343Y1629352D01*
X11131816Y1626113D01*
X11170471Y1334975D01*
X11170859Y1331724D01*
X11201816Y1039658D01*
X11202118Y1036399D01*
X11225358Y743585D01*
X11225574Y740318D01*
X11241073Y447028D01*
X11241203Y443757D01*
X11248971Y149601D01*
X11249013Y146738D01*
X11249497Y410D01*
X11249497Y-410D01*
X11249013Y-146738D01*
X11248971Y-149601D01*
X11241203Y-443757D01*
X11241073Y-447028D01*
X11225574Y-740318D01*
X11225358Y-743585D01*
X11202118Y-1036399D01*
X11201816Y-1039658D01*
X11170859Y-1331724D01*
X11170471Y-1334975D01*
X11131816Y-1626113D01*
X11131343Y-1629352D01*
X11085008Y-1919419D01*
X11084449Y-1922643D01*
X11030481Y-2211353D01*
X11029837Y-2214564D01*
X10968262Y-2501764D01*
X10967533Y-2504955D01*
X10898412Y-2790375D01*
X10897600Y-2793546D01*
X10820950Y-3077114D01*
X10820054Y-3080263D01*
X10735936Y-3361734D01*
X10734957Y-3364858D01*
X10643478Y-3643891D01*
X10642418Y-3646987D01*
X10543564Y-3923628D01*
X10542421Y-3926697D01*
X10436326Y-4200556D01*
X10435104Y-4203592D01*
X10378486Y-4339014D01*
X10334465Y-4393272D01*
X10273136Y-4414852D01*
X10271394Y-4414979D01*
X10269648Y-4415107D01*
X10265132Y-4415355D01*
X10230077Y-4416637D01*
X10213196Y-4419239D01*
X10095656Y-4427840D01*
X10095657Y-4427841D01*
X10081120Y-4428905D01*
X10077478Y-4427846D01*
X10041491Y-4431805D01*
X10039217Y-4431972D01*
X10004250Y-4434531D01*
X9987468Y-4437749D01*
X9870320Y-4450638D01*
X9855833Y-4452233D01*
X9852155Y-4451308D01*
X9816338Y-4456578D01*
X9814073Y-4456828D01*
X9814068Y-4456829D01*
X9779216Y-4460664D01*
X9762576Y-4464489D01*
X9645976Y-4481649D01*
X9645977Y-4481650D01*
X9631549Y-4483773D01*
X9627841Y-4482983D01*
X9592210Y-4489563D01*
X9589953Y-4489896D01*
X9589952Y-4489895D01*
X9589952Y-4489896D01*
X9555294Y-4494996D01*
X9538803Y-4499428D01*
X9422908Y-4520835D01*
X9422906Y-4520835D01*
X9416902Y-4521944D01*
X9408568Y-4523483D01*
X9404832Y-4522829D01*
X9369497Y-4530699D01*
X9367252Y-4531114D01*
X9367246Y-4531116D01*
X9333863Y-4537283D01*
X9333862Y-4537283D01*
X9332776Y-4537484D01*
X9316455Y-4542514D01*
X9201410Y-4568142D01*
X9187184Y-4571310D01*
X9183428Y-4570794D01*
X9148420Y-4579945D01*
X9146219Y-4580436D01*
X9146199Y-4580441D01*
X9135704Y-4582779D01*
X9111950Y-4588071D01*
X9095827Y-4593694D01*
X8981797Y-4623505D01*
X8981798Y-4623506D01*
X8967695Y-4627192D01*
X8963923Y-4626813D01*
X8929239Y-4637247D01*
X8927044Y-4637821D01*
X8927041Y-4637820D01*
X8893125Y-4646688D01*
X8877210Y-4652900D01*
X8764350Y-4686854D01*
X8764349Y-4686853D01*
X8750390Y-4691052D01*
X8746611Y-4690811D01*
X8712367Y-4702492D01*
X8710177Y-4703152D01*
X8710163Y-4703157D01*
X8676584Y-4713260D01*
X8660916Y-4720045D01*
X8549363Y-4758101D01*
X8549362Y-4758100D01*
X8535570Y-4762805D01*
X8531783Y-4762703D01*
X8497956Y-4775640D01*
X8495812Y-4776372D01*
X8495809Y-4776373D01*
X8462623Y-4787694D01*
X8447212Y-4795047D01*
X8340035Y-4836039D01*
X8270387Y-4841602D01*
X8208788Y-4808627D01*
X8174795Y-4747584D01*
X8179200Y-4677854D01*
X8208055Y-4632542D01*
X9640295Y-3200302D01*
X9680519Y-3173425D01*
X9704179Y-3163626D01*
X9835289Y-3076021D01*
X9946789Y-2964521D01*
X10034394Y-2833411D01*
X10094737Y-2687729D01*
X10125500Y-2533074D01*
X10125500Y-2375390D01*
X10125500Y-2375387D01*
X10125499Y-2375385D01*
X10116164Y-2328454D01*
X10094737Y-2220735D01*
X10053349Y-2120814D01*
X10034397Y-2075059D01*
X10034390Y-2075046D01*
X9946789Y-1943943D01*
X9946786Y-1943939D01*
X9835292Y-1832445D01*
X9835288Y-1832442D01*
X9704185Y-1744841D01*
X9704172Y-1744834D01*
X9558501Y-1684496D01*
X9558489Y-1684493D01*
X9403845Y-1653732D01*
X9403842Y-1653732D01*
X9246158Y-1653732D01*
X9246155Y-1653732D01*
X9091510Y-1684493D01*
X9091498Y-1684496D01*
X8945827Y-1744834D01*
X8945814Y-1744841D01*
X8814711Y-1832442D01*
X8814707Y-1832445D01*
X8727297Y-1919856D01*
X8665974Y-1953341D01*
X8596282Y-1948357D01*
X8551935Y-1919856D01*
X8510292Y-1878213D01*
X8510288Y-1878210D01*
X8379185Y-1790609D01*
X8379172Y-1790602D01*
X8233501Y-1730264D01*
X8233489Y-1730261D01*
X8078845Y-1699500D01*
X8078842Y-1699500D01*
X7921158Y-1699500D01*
X7921155Y-1699500D01*
X7766510Y-1730261D01*
X7766498Y-1730264D01*
X7620827Y-1790602D01*
X7620814Y-1790609D01*
X7489711Y-1878210D01*
X7489707Y-1878213D01*
X7378213Y-1989707D01*
X7378210Y-1989711D01*
X7290609Y-2120814D01*
X7290602Y-2120827D01*
X7230264Y-2266498D01*
X7230261Y-2266508D01*
X7199362Y-2421848D01*
X7166977Y-2483759D01*
X7165426Y-2485337D01*
X2485339Y-7165425D01*
X2424016Y-7198910D01*
X2421850Y-7199361D01*
X2266508Y-7230261D01*
X2266498Y-7230264D01*
X2120827Y-7290602D01*
X2120814Y-7290609D01*
X1989711Y-7378210D01*
X1989707Y-7378213D01*
X1878213Y-7489707D01*
X1878210Y-7489711D01*
X1790609Y-7620814D01*
X1790602Y-7620827D01*
X1730264Y-7766498D01*
X1730261Y-7766510D01*
X1699500Y-7921153D01*
X1699500Y-8078846D01*
X1730261Y-8233489D01*
X1730264Y-8233501D01*
X1790602Y-8379172D01*
X1790609Y-8379185D01*
X1878210Y-8510288D01*
X1878213Y-8510292D01*
X1919856Y-8551935D01*
X1953341Y-8613258D01*
X1948357Y-8682950D01*
X1919856Y-8727297D01*
X1832445Y-8814707D01*
X1832442Y-8814711D01*
X1744841Y-8945814D01*
X1744834Y-8945827D01*
X1684496Y-9091498D01*
X1684493Y-9091510D01*
X1653732Y-9246153D01*
X1653732Y-9403846D01*
X1684493Y-9558489D01*
X1684496Y-9558501D01*
X1744834Y-9704172D01*
X1744841Y-9704185D01*
X1832442Y-9835288D01*
X1832445Y-9835292D01*
X1943939Y-9946786D01*
X1943943Y-9946789D01*
X2075046Y-10034390D01*
X2075059Y-10034397D01*
X2181728Y-10078580D01*
X2220735Y-10094737D01*
X2375385Y-10125499D01*
X2375388Y-10125500D01*
X2375390Y-10125500D01*
X2533076Y-10125500D01*
X2533077Y-10125499D01*
X2687729Y-10094737D01*
X2833411Y-10034394D01*
X2964521Y-9946789D01*
X3076021Y-9835289D01*
X3163626Y-9704179D01*
X3173423Y-9680524D01*
X3200301Y-9640297D01*
X4632542Y-8208056D01*
X4640937Y-8203472D01*
X4646737Y-8195858D01*
X4671108Y-8186997D01*
X4693863Y-8174573D01*
X4703408Y-8175255D01*
X4712402Y-8171986D01*
X4737689Y-8177707D01*
X4763555Y-8179557D01*
X4771216Y-8185292D01*
X4780549Y-8187404D01*
X4798730Y-8205889D01*
X4819488Y-8221429D01*
X4822832Y-8230394D01*
X4829543Y-8237218D01*
X4834843Y-8262599D01*
X4843905Y-8286893D01*
X4842251Y-8298066D01*
X4843827Y-8305612D01*
X4836039Y-8340036D01*
X4795050Y-8447206D01*
X4787695Y-8462621D01*
X4776363Y-8495835D01*
X4774825Y-8500086D01*
X4762308Y-8532815D01*
X4758102Y-8549361D01*
X4720045Y-8660915D01*
X4720044Y-8660914D01*
X4715336Y-8674714D01*
X4712940Y-8677649D01*
X4702510Y-8712314D01*
X4701775Y-8714469D01*
X4701770Y-8714485D01*
X4690451Y-8747664D01*
X4686854Y-8764352D01*
X4652899Y-8877214D01*
X4648698Y-8891176D01*
X4646409Y-8894198D01*
X4637252Y-8929219D01*
X4636593Y-8931412D01*
X4636592Y-8931417D01*
X4626492Y-8964991D01*
X4623506Y-8981799D01*
X4593694Y-9095828D01*
X4593693Y-9095827D01*
X4590005Y-9109930D01*
X4587830Y-9113033D01*
X4579965Y-9148337D01*
X4579385Y-9150557D01*
X4579380Y-9150582D01*
X4570513Y-9184502D01*
X4568142Y-9201410D01*
X4542514Y-9316453D01*
X4539346Y-9330680D01*
X4537283Y-9333863D01*
X4530705Y-9369472D01*
X4530213Y-9371681D01*
X4530211Y-9371683D01*
X4522587Y-9405912D01*
X4520835Y-9422908D01*
X4499428Y-9538803D01*
X4498235Y-9545264D01*
X4496781Y-9553135D01*
X4494836Y-9556390D01*
X4489569Y-9592171D01*
X4489161Y-9594383D01*
X4489156Y-9594417D01*
X4482779Y-9628940D01*
X4481650Y-9645975D01*
X4464489Y-9762572D01*
X4464490Y-9762573D01*
X4462367Y-9776995D01*
X4460543Y-9780319D01*
X4456582Y-9816311D01*
X4456252Y-9818556D01*
X4451146Y-9853251D01*
X4450639Y-9870320D01*
X4437749Y-9987468D01*
X4436153Y-10001964D01*
X4434451Y-10005353D01*
X4431808Y-10041454D01*
X4431559Y-10043724D01*
X4427724Y-10078580D01*
X4427841Y-10095655D01*
X4424846Y-10136582D01*
X4418175Y-10227737D01*
X4416597Y-10231186D01*
X4415273Y-10267359D01*
X4415107Y-10269638D01*
X4415107Y-10269654D01*
X4414773Y-10274215D01*
X4390245Y-10339638D01*
X4337420Y-10380184D01*
X4065491Y-10489678D01*
X4062439Y-10490861D01*
X3787153Y-10593350D01*
X3784070Y-10594451D01*
X3506258Y-10689607D01*
X3503148Y-10690627D01*
X3222809Y-10778454D01*
X3219672Y-10779391D01*
X2937199Y-10859762D01*
X2934039Y-10860617D01*
X2649509Y-10933512D01*
X2646328Y-10934282D01*
X2359968Y-10999643D01*
X2356766Y-11000329D01*
X2068775Y-11058107D01*
X2065558Y-11058709D01*
X1776163Y-11108862D01*
X1772931Y-11109378D01*
X1482311Y-11151875D01*
X1479066Y-11152306D01*
X1187422Y-11187118D01*
X1184167Y-11187463D01*
X891689Y-11214566D01*
X888425Y-11214825D01*
X595381Y-11234193D01*
X592112Y-11234366D01*
X298582Y-11245996D01*
X295310Y-11246082D01*
X1637Y-11249959D01*
X-1637Y-11249959D01*
X-295310Y-11246082D01*
X-298582Y-11245996D01*
X-592112Y-11234366D01*
X-595381Y-11234193D01*
X-888422Y-11214825D01*
X-891686Y-11214566D01*
X-1184163Y-11187463D01*
X-1187418Y-11187118D01*
X-1479070Y-11152305D01*
X-1482314Y-11151874D01*
X-1772926Y-11109379D01*
X-1776159Y-11108863D01*
X-2065552Y-11058710D01*
X-2068769Y-11058108D01*
X-2356766Y-11000329D01*
X-2359968Y-10999643D01*
X-2646296Y-10934289D01*
X-2649477Y-10933519D01*
X-2934034Y-10860618D01*
X-2937194Y-10859763D01*
X-3219667Y-10779393D01*
X-3222804Y-10778456D01*
X-3503119Y-10690637D01*
X-3506229Y-10689617D01*
X-3784070Y-10594451D01*
X-3787153Y-10593350D01*
X-4062441Y-10490861D01*
X-4065494Y-10489678D01*
X-4337902Y-10379989D01*
X-4340921Y-10378727D01*
X-4610484Y-10261824D01*
X-4613471Y-10260481D01*
X-4879680Y-10136582D01*
X-4882628Y-10135163D01*
X-4902036Y-10125499D01*
X-5145586Y-10004226D01*
X-5148466Y-10002744D01*
X-5407849Y-9864924D01*
X-5410718Y-9863351D01*
X-5666395Y-9718721D01*
X-5669224Y-9717071D01*
X-5920986Y-9565746D01*
X-5923768Y-9564023D01*
X-6171377Y-9406152D01*
X-6174114Y-9404356D01*
X-6417529Y-9239962D01*
X-6420217Y-9238094D01*
X-6659191Y-9067345D01*
X-6661830Y-9065407D01*
X-6896241Y-8888387D01*
X-6898827Y-8886380D01*
X-7128448Y-8703263D01*
X-7130980Y-8701189D01*
X-7355720Y-8512048D01*
X-7358196Y-8509907D01*
X-7577832Y-8314928D01*
X-7580251Y-8312723D01*
X-7794700Y-8111981D01*
X-7797061Y-8109712D01*
X-8006126Y-7903387D01*
X-8008425Y-7901057D01*
X-8211949Y-7689308D01*
X-8214186Y-7686918D01*
X-8412048Y-7469873D01*
X-8414221Y-7467425D01*
X-8606284Y-7245235D01*
X-8608392Y-7242731D01*
X-8794540Y-7015529D01*
X-8796582Y-7012969D01*
X-8976695Y-6780892D01*
X-8978667Y-6778280D01*
X-9152537Y-6541608D01*
X-9154440Y-6538945D01*
X-9322033Y-6297720D01*
X-9323865Y-6295007D01*
X-9485014Y-6049469D01*
X-9486774Y-6046709D01*
X-9641414Y-5796958D01*
X-9643100Y-5794152D01*
X-9791050Y-5540478D01*
X-9792662Y-5537629D01*
X-9933912Y-5280054D01*
X-9935448Y-5277163D01*
X-10069821Y-5016001D01*
X-10071280Y-5013071D01*
X-10198720Y-4748441D01*
X-10200085Y-4745508D01*
X-10320512Y-4477565D01*
X-10321810Y-4474573D01*
X-10435099Y-4203601D01*
X-10436321Y-4200565D01*
X-10542434Y-3926657D01*
X-10543577Y-3923589D01*
X-10642419Y-3646985D01*
X-10643479Y-3643888D01*
X-10734957Y-3364857D01*
X-10735936Y-3361734D01*
X-10820054Y-3080262D01*
X-10820950Y-3077113D01*
X-10897598Y-2793555D01*
X-10898410Y-2790384D01*
X-10967523Y-2504994D01*
X-10968252Y-2501803D01*
X-10991088Y-2395293D01*
X-10991087Y-2395292D01*
X-10995355Y-2375387D01*
X-10125500Y-2375387D01*
X-10125500Y-2375390D01*
X-10125500Y-2533074D01*
X-10094737Y-2687729D01*
X-10034394Y-2833411D01*
X-9946789Y-2964521D01*
X-9835289Y-3076021D01*
X-9704179Y-3163626D01*
X-9680524Y-3173423D01*
X-9640296Y-3200301D01*
X-6885686Y-5954911D01*
X-6858809Y-5995135D01*
X-6849010Y-6018795D01*
X-6761405Y-6149905D01*
X-6649905Y-6261405D01*
X-6518795Y-6349010D01*
X-6495140Y-6358807D01*
X-6454913Y-6385685D01*
X-3200301Y-9640297D01*
X-3173423Y-9680524D01*
X-3163626Y-9704179D01*
X-3076021Y-9835289D01*
X-2964521Y-9946789D01*
X-2833411Y-10034394D01*
X-2687729Y-10094737D01*
X-2533077Y-10125499D01*
X-2533076Y-10125500D01*
X-2533074Y-10125500D01*
X-2375388Y-10125500D01*
X-2375385Y-10125499D01*
X-2220735Y-10094737D01*
X-2181728Y-10078580D01*
X-2075059Y-10034397D01*
X-2075046Y-10034390D01*
X-1943943Y-9946789D01*
X-1943939Y-9946786D01*
X-1832445Y-9835292D01*
X-1832442Y-9835288D01*
X-1744841Y-9704185D01*
X-1744834Y-9704172D01*
X-1684496Y-9558501D01*
X-1684493Y-9558489D01*
X-1653732Y-9403846D01*
X-1653732Y-9246153D01*
X-1684493Y-9091510D01*
X-1684496Y-9091498D01*
X-1744834Y-8945827D01*
X-1744841Y-8945814D01*
X-1832442Y-8814711D01*
X-1832445Y-8814707D01*
X-1919856Y-8727297D01*
X-1953341Y-8665974D01*
X-1948357Y-8596282D01*
X-1919856Y-8551935D01*
X-1878213Y-8510292D01*
X-1878210Y-8510288D01*
X-1790609Y-8379185D01*
X-1790602Y-8379172D01*
X-1730264Y-8233501D01*
X-1730261Y-8233489D01*
X-1699500Y-8078846D01*
X-1699500Y-7921153D01*
X-1730261Y-7766510D01*
X-1730264Y-7766498D01*
X-1790602Y-7620827D01*
X-1790609Y-7620814D01*
X-1878210Y-7489711D01*
X-1878213Y-7489707D01*
X-1989707Y-7378213D01*
X-1989711Y-7378210D01*
X-2120814Y-7290609D01*
X-2120827Y-7290602D01*
X-2266498Y-7230264D01*
X-2266508Y-7230261D01*
X-2421848Y-7199362D01*
X-2483759Y-7166977D01*
X-2485337Y-7165426D01*
X-7165426Y-2485337D01*
X-7198911Y-2424014D01*
X-7199362Y-2421848D01*
X-7230261Y-2266508D01*
X-7230264Y-2266498D01*
X-7290602Y-2120827D01*
X-7290609Y-2120814D01*
X-7378210Y-1989711D01*
X-7378213Y-1989707D01*
X-7489707Y-1878213D01*
X-7489711Y-1878210D01*
X-7620814Y-1790609D01*
X-7620827Y-1790602D01*
X-7766498Y-1730264D01*
X-7766510Y-1730261D01*
X-7921155Y-1699500D01*
X-7921158Y-1699500D01*
X-8078842Y-1699500D01*
X-8078845Y-1699500D01*
X-8233489Y-1730261D01*
X-8233501Y-1730264D01*
X-8379172Y-1790602D01*
X-8379185Y-1790609D01*
X-8510288Y-1878210D01*
X-8510292Y-1878213D01*
X-8551935Y-1919856D01*
X-8613258Y-1953341D01*
X-8682950Y-1948357D01*
X-8727297Y-1919856D01*
X-8814707Y-1832445D01*
X-8814711Y-1832442D01*
X-8945814Y-1744841D01*
X-8945827Y-1744834D01*
X-9091498Y-1684496D01*
X-9091510Y-1684493D01*
X-9246155Y-1653732D01*
X-9246158Y-1653732D01*
X-9403842Y-1653732D01*
X-9403845Y-1653732D01*
X-9558489Y-1684493D01*
X-9558501Y-1684496D01*
X-9704172Y-1744834D01*
X-9704185Y-1744841D01*
X-9835288Y-1832442D01*
X-9835292Y-1832445D01*
X-9946786Y-1943939D01*
X-9946789Y-1943943D01*
X-10034390Y-2075046D01*
X-10034397Y-2075059D01*
X-10053349Y-2120814D01*
X-10094737Y-2220735D01*
X-10116164Y-2328454D01*
X-10125499Y-2375385D01*
X-10125500Y-2375387D01*
X-10995355Y-2375387D01*
X-11029837Y-2214557D01*
X-11030481Y-2211348D01*
X-11084448Y-1922650D01*
X-11085007Y-1919425D01*
X-11131344Y-1629348D01*
X-11131817Y-1626108D01*
X-11170471Y-1334975D01*
X-11170859Y-1331725D01*
X-11201816Y-1039661D01*
X-11202118Y-1036402D01*
X-11225358Y-743584D01*
X-11225574Y-740317D01*
X-11241073Y-447030D01*
X-11241203Y-443760D01*
X-11248958Y-150137D01*
X-11249001Y-146863D01*
X-11249001Y146863D01*
X-11248958Y150137D01*
X-11247008Y223973D01*
X-5700500Y223973D01*
X-5700500Y-223973D01*
X-5665354Y-670539D01*
X-5595280Y-1112970D01*
X-5490709Y-1548540D01*
X-5352286Y-1974563D01*
X-5180864Y-2388411D01*
X-4977501Y-2787534D01*
X-4977493Y-2787547D01*
X-4977490Y-2787552D01*
X-4974771Y-2791989D01*
X-4743449Y-3169472D01*
X-4480153Y-3531868D01*
X-4189235Y-3872489D01*
X-3872489Y-4189235D01*
X-3531868Y-4480153D01*
X-3169472Y-4743449D01*
X-2787534Y-4977501D01*
X-2388411Y-5180864D01*
X-1974563Y-5352286D01*
X-1548540Y-5490709D01*
X-1112970Y-5595280D01*
X-670539Y-5665354D01*
X-223973Y-5700500D01*
X-223965Y-5700500D01*
X223965Y-5700500D01*
X223973Y-5700500D01*
X670539Y-5665354D01*
X1112970Y-5595280D01*
X1548540Y-5490709D01*
X1974563Y-5352286D01*
X2388411Y-5180864D01*
X2787534Y-4977501D01*
X3169472Y-4743449D01*
X3531868Y-4480153D01*
X3872489Y-4189235D01*
X4189235Y-3872489D01*
X4480153Y-3531868D01*
X4743449Y-3169472D01*
X4974771Y-2791989D01*
X4977490Y-2787552D01*
X4977493Y-2787547D01*
X4977492Y-2787547D01*
X4977501Y-2787534D01*
X5180864Y-2388411D01*
X5352286Y-1974563D01*
X5490709Y-1548540D01*
X5595280Y-1112970D01*
X5665354Y-670539D01*
X5700500Y-223973D01*
X5700500Y223973D01*
X5665354Y670539D01*
X5595280Y1112970D01*
X5490709Y1548540D01*
X5352286Y1974563D01*
X5180864Y2388411D01*
X4977501Y2787534D01*
X4974776Y2791980D01*
X4840997Y3010288D01*
X4743449Y3169472D01*
X4480153Y3531868D01*
X4189235Y3872489D01*
X3872489Y4189235D01*
X3531868Y4480153D01*
X3169472Y4743449D01*
X2787534Y4977501D01*
X2388411Y5180864D01*
X1974563Y5352286D01*
X1548540Y5490709D01*
X1112970Y5595280D01*
X670539Y5665354D01*
X223973Y5700500D01*
X-223973Y5700500D01*
X-670539Y5665354D01*
X-1112970Y5595280D01*
X-1548540Y5490709D01*
X-1974563Y5352286D01*
X-2388411Y5180864D01*
X-2787534Y4977501D01*
X-3169472Y4743449D01*
X-3531868Y4480153D01*
X-3872489Y4189235D01*
X-4189235Y3872489D01*
X-4480153Y3531868D01*
X-4743449Y3169472D01*
X-4840997Y3010288D01*
X-4974776Y2791980D01*
X-4977501Y2787534D01*
X-5180864Y2388411D01*
X-5352286Y1974563D01*
X-5490709Y1548540D01*
X-5595280Y1112970D01*
X-5665354Y670539D01*
X-5699934Y231161D01*
X-5699936Y231161D01*
X-5699935Y231145D01*
X-5700500Y223973D01*
X-11247008Y223973D01*
X-11246857Y229683D01*
X-11241203Y443760D01*
X-11241073Y447030D01*
X-11225574Y740317D01*
X-11225358Y743584D01*
X-11202118Y1036402D01*
X-11201816Y1039661D01*
X-11170859Y1331725D01*
X-11170471Y1334975D01*
X-11131817Y1626108D01*
X-11131344Y1629348D01*
X-11085007Y1919425D01*
X-11084448Y1922650D01*
X-11030481Y2211348D01*
X-11029837Y2214558D01*
X-10968252Y2501803D01*
X-10967523Y2504993D01*
X-10949639Y2578844D01*
X-8800500Y2578844D01*
X-8800500Y2421155D01*
X-8800499Y2421153D01*
X-8769737Y2266503D01*
X-8769735Y2266498D01*
X-8709397Y2120827D01*
X-8709390Y2120814D01*
X-8621789Y1989711D01*
X-8621786Y1989707D01*
X-8510292Y1878213D01*
X-8510288Y1878210D01*
X-8379185Y1790609D01*
X-8379172Y1790602D01*
X-8233501Y1730264D01*
X-8233489Y1730261D01*
X-8078846Y1699500D01*
X-8078842Y1699500D01*
X-7921153Y1699500D01*
X-7766510Y1730261D01*
X-7766498Y1730264D01*
X-7620827Y1790602D01*
X-7620814Y1790609D01*
X-7489711Y1878210D01*
X-7489707Y1878213D01*
X-7378213Y1989707D01*
X-7378210Y1989711D01*
X-7290609Y2120814D01*
X-7290602Y2120827D01*
X-7230264Y2266498D01*
X-7230261Y2266508D01*
X-7199362Y2421848D01*
X-7166977Y2483759D01*
X-7165426Y2485337D01*
X-2485337Y7165426D01*
X-2424014Y7198911D01*
X-2421848Y7199362D01*
X-2266508Y7230261D01*
X-2266498Y7230264D01*
X-2120827Y7290602D01*
X-2120814Y7290609D01*
X-1989711Y7378210D01*
X-1989707Y7378213D01*
X-1878213Y7489707D01*
X-1878210Y7489711D01*
X-1790609Y7620814D01*
X-1790602Y7620827D01*
X-1730264Y7766498D01*
X-1730261Y7766510D01*
X-1699500Y7921153D01*
X-1699500Y8078846D01*
X-1730261Y8233489D01*
X-1730264Y8233501D01*
X-1790602Y8379172D01*
X-1790609Y8379185D01*
X-1861314Y8485002D01*
X-1861316Y8485004D01*
X-1878213Y8510292D01*
X-1915729Y8547808D01*
X1668462Y8547808D01*
X1668462Y8390115D01*
X1699223Y8235472D01*
X1699226Y8235460D01*
X1759564Y8089789D01*
X1759571Y8089776D01*
X1847172Y7958673D01*
X1847175Y7958669D01*
X1958669Y7847175D01*
X1958677Y7847169D01*
X2089780Y7759569D01*
X2089781Y7759568D01*
X2113442Y7749767D01*
X2153665Y7722889D01*
X7722889Y2153666D01*
X7749767Y2113442D01*
X7759567Y2089784D01*
X7759569Y2089780D01*
X7847169Y1958677D01*
X7847175Y1958669D01*
X7958669Y1847175D01*
X7958673Y1847172D01*
X8089776Y1759571D01*
X8089789Y1759564D01*
X8235460Y1699226D01*
X8235472Y1699223D01*
X8390115Y1668462D01*
X8390120Y1668462D01*
X8547808Y1668462D01*
X8702451Y1699223D01*
X8702463Y1699226D01*
X8848134Y1759564D01*
X8848147Y1759571D01*
X8979250Y1847172D01*
X8979254Y1847175D01*
X9090748Y1958669D01*
X9090751Y1958673D01*
X9178352Y2089776D01*
X9178359Y2089789D01*
X9238697Y2235460D01*
X9238699Y2235465D01*
X9269461Y2390115D01*
X9269462Y2390117D01*
X9269462Y2547806D01*
X9269461Y2547808D01*
X9263288Y2578842D01*
X9238699Y2702459D01*
X9178356Y2848141D01*
X9090751Y2979251D01*
X8979251Y3090751D01*
X8848141Y3178356D01*
X8824481Y3188155D01*
X8784257Y3215032D01*
X3215031Y8784259D01*
X3188153Y8824486D01*
X3178356Y8848141D01*
X3090751Y8979251D01*
X2979251Y9090751D01*
X2848141Y9178356D01*
X2702459Y9238699D01*
X2625482Y9254010D01*
X2547807Y9269462D01*
X2547804Y9269462D01*
X2390120Y9269462D01*
X2390117Y9269462D01*
X2296820Y9250903D01*
X2235465Y9238699D01*
X2235460Y9238697D01*
X2089789Y9178359D01*
X2089776Y9178352D01*
X1958673Y9090751D01*
X1958669Y9090748D01*
X1847175Y8979254D01*
X1847172Y8979250D01*
X1759571Y8848147D01*
X1759564Y8848134D01*
X1699226Y8702463D01*
X1699223Y8702451D01*
X1668462Y8547808D01*
X-1915729Y8547808D01*
X-1989707Y8621786D01*
X-1989711Y8621789D01*
X-2120814Y8709390D01*
X-2120827Y8709397D01*
X-2266498Y8769735D01*
X-2266503Y8769737D01*
X-2339494Y8784256D01*
X-2421155Y8800500D01*
X-2421158Y8800500D01*
X-2578842Y8800500D01*
X-2578845Y8800500D01*
X-2641749Y8787987D01*
X-2733497Y8769737D01*
X-2879179Y8709394D01*
X-3010289Y8621789D01*
X-3121789Y8510289D01*
X-3209394Y8379179D01*
X-3269737Y8233497D01*
X-3284793Y8157804D01*
X-3300638Y8078150D01*
X-3333023Y8016239D01*
X-3334518Y8014716D01*
X-8014662Y3334572D01*
X-8075983Y3301089D01*
X-8078150Y3300638D01*
X-8136085Y3289113D01*
X-8233497Y3269737D01*
X-8379179Y3209394D01*
X-8510289Y3121789D01*
X-8621789Y3010289D01*
X-8709394Y2879179D01*
X-8769737Y2733497D01*
X-8797764Y2592596D01*
X-8800499Y2578846D01*
X-8800500Y2578844D01*
X-10949639Y2578844D01*
X-10941096Y2614119D01*
X-10941096Y2614120D01*
X-10898410Y2790384D01*
X-10897598Y2793555D01*
X-10820950Y3077113D01*
X-10820054Y3080262D01*
X-10735936Y3361734D01*
X-10734957Y3364857D01*
X-10643479Y3643888D01*
X-10642419Y3646985D01*
X-10543577Y3923589D01*
X-10542434Y3926657D01*
X-10436321Y4200565D01*
X-10435099Y4203601D01*
X-10321810Y4474573D01*
X-10320508Y4477577D01*
X-10200085Y4745508D01*
X-10198720Y4748441D01*
X-10071280Y5013071D01*
X-10069821Y5016001D01*
X-9935448Y5277163D01*
X-9933912Y5280054D01*
X-9792662Y5537629D01*
X-9791050Y5540478D01*
X-9643100Y5794152D01*
X-9641414Y5796958D01*
X-9486774Y6046709D01*
X-9485014Y6049469D01*
X-9323865Y6295007D01*
X-9322033Y6297720D01*
X-9154440Y6538945D01*
X-9152537Y6541608D01*
X-8978667Y6778280D01*
X-8976695Y6780892D01*
X-8796582Y7012969D01*
X-8794540Y7015529D01*
X-8608392Y7242731D01*
X-8606284Y7245235D01*
X-8414221Y7467425D01*
X-8412048Y7469873D01*
X-8214186Y7686918D01*
X-8211949Y7689308D01*
X-8008425Y7901057D01*
X-8006126Y7903387D01*
X-7797061Y8109712D01*
X-7794700Y8111981D01*
X-7580251Y8312723D01*
X-7577832Y8314928D01*
X-7358196Y8509907D01*
X-7355720Y8512048D01*
X-7130980Y8701189D01*
X-7128448Y8703263D01*
X-6898827Y8886380D01*
X-6896241Y8888387D01*
X-6661830Y9065407D01*
X-6659191Y9067345D01*
X-6420217Y9238094D01*
X-6417529Y9239962D01*
X-6174114Y9404356D01*
X-6171377Y9406152D01*
X-5923768Y9564023D01*
X-5920986Y9565746D01*
X-5669224Y9717071D01*
X-5666395Y9718721D01*
X-5410718Y9863351D01*
X-5407849Y9864924D01*
X-5148466Y10002744D01*
X-5145585Y10004227D01*
X-4882626Y10135164D01*
X-4879680Y10136582D01*
X-4613471Y10260481D01*
X-4610484Y10261824D01*
X-4340921Y10378727D01*
X-4337902Y10379989D01*
X-4065494Y10489678D01*
X-4062441Y10490861D01*
X-3787153Y10593350D01*
X-3784070Y10594451D01*
X-3506229Y10689617D01*
X-3503119Y10690637D01*
X-3222804Y10778456D01*
X-3219667Y10779393D01*
X-2937194Y10859763D01*
X-2934034Y10860618D01*
X-2649477Y10933519D01*
X-2646296Y10934289D01*
X-2359968Y10999643D01*
X-2356766Y11000329D01*
X-2068769Y11058108D01*
X-2065552Y11058710D01*
X-1776159Y11108863D01*
X-1772926Y11109379D01*
X-1482314Y11151874D01*
X-1479070Y11152305D01*
X-1187418Y11187118D01*
X-1184163Y11187463D01*
X-891686Y11214566D01*
X-888422Y11214825D01*
X-595381Y11234193D01*
X-592112Y11234366D01*
X-298582Y11245996D01*
X-295310Y11246082D01*
X-1637Y11249959D01*
X1637Y11249959D01*
X295310Y11246082D01*
G37*
%TD.AperFunction*%
%TD*%
M02*
