%TF.GenerationSoftware,KiCad,Pcbnew,9.0.6*%
%TF.CreationDate,2026-03-30T20:06:19-07:00*%
%TF.ProjectId,Hex Lattice,48657820-4c61-4747-9469-63652e6b6963,rev?*%
%TF.SameCoordinates,Original*%
%TF.FileFunction,Legend,Bot*%
%TF.FilePolarity,Positive*%
%FSLAX46Y46*%
G04 Gerber Fmt 4.6, Leading zero omitted, Abs format (unit mm)*
G04 Created by KiCad (PCBNEW 9.0.6) date 2026-03-30 20:06:19*
%MOMM*%
%LPD*%
G01*
G04 APERTURE LIST*
G04 Aperture macros list*
%AMRoundRect*
0 Rectangle with rounded corners*
0 $1 Rounding radius*
0 $2 $3 $4 $5 $6 $7 $8 $9 X,Y pos of 4 corners*
0 Add a 4 corners polygon primitive as box body*
4,1,4,$2,$3,$4,$5,$6,$7,$8,$9,$2,$3,0*
0 Add four circle primitives for the rounded corners*
1,1,$1+$1,$2,$3*
1,1,$1+$1,$4,$5*
1,1,$1+$1,$6,$7*
1,1,$1+$1,$8,$9*
0 Add four rect primitives between the rounded corners*
20,1,$1+$1,$2,$3,$4,$5,0*
20,1,$1+$1,$4,$5,$6,$7,0*
20,1,$1+$1,$6,$7,$8,$9,0*
20,1,$1+$1,$8,$9,$2,$3,0*%
%AMRotRect*
0 Rectangle, with rotation*
0 The origin of the aperture is its center*
0 $1 length*
0 $2 width*
0 $3 Rotation angle, in degrees counterclockwise*
0 Add horizontal line*
21,1,$1,$2,0,0,$3*%
G04 Aperture macros list end*
%ADD10C,1.200000*%
%ADD11C,1.905000*%
%ADD12C,2.010000*%
%ADD13RotRect,1.700000X1.700000X30.000000*%
%ADD14C,1.700000*%
%ADD15R,1.500000X1.500000*%
%ADD16C,1.500000*%
%ADD17C,1.800000*%
%ADD18C,2.200000*%
%ADD19O,1.200000X1.800000*%
%ADD20O,1.000000X0.800000*%
%ADD21C,0.800000*%
%ADD22R,1.700000X1.700000*%
%ADD23C,1.408000*%
%ADD24C,1.530000*%
%ADD25C,2.400000*%
%ADD26RoundRect,0.250000X-0.550000X0.550000X-0.550000X-0.550000X0.550000X-0.550000X0.550000X0.550000X0*%
%ADD27C,1.600000*%
G04 APERTURE END LIST*
%LPC*%
D10*
%TO.C,J7*%
X159250000Y-125749500D03*
X159250000Y-127248000D03*
X159250000Y-128749500D03*
X159250000Y-130250500D03*
%TD*%
D11*
%TO.C,U1*%
X132475000Y-153770000D03*
X132475000Y-151230000D03*
X132475000Y-148690000D03*
X132475000Y-146150000D03*
X132475000Y-115670000D03*
X132475000Y-113130000D03*
X132475000Y-110590000D03*
X132475000Y-108050000D03*
X132475000Y-105510000D03*
X132475000Y-102970000D03*
%TD*%
D12*
%TO.C,F1*%
X182600000Y-147950000D03*
X181400000Y-153050000D03*
%TD*%
D13*
%TO.C,J2*%
X183930000Y-99650296D03*
D14*
X185200000Y-101850001D03*
X186470000Y-104049705D03*
%TD*%
D13*
%TO.C,J5*%
X192650000Y-114750000D03*
D14*
X193920000Y-116949705D03*
X195190000Y-119149409D03*
%TD*%
D13*
%TO.C,J4*%
X188280000Y-107200296D03*
D14*
X189550000Y-109400001D03*
X190820000Y-111599705D03*
%TD*%
D15*
%TO.C,J3*%
X175915000Y-155550032D03*
D16*
X174645000Y-153010033D03*
X173375001Y-155550033D03*
X172105000Y-153010033D03*
X170835000Y-155550033D03*
X169565000Y-153010033D03*
X168295001Y-155550033D03*
X167025000Y-153010033D03*
X165755000Y-155550033D03*
X164485000Y-153010033D03*
X175915000Y-150490033D03*
X173375000Y-149220033D03*
X167025000Y-149220033D03*
X164485000Y-150490033D03*
D17*
X176840000Y-142600034D03*
X174300000Y-142600034D03*
X166100000Y-142600034D03*
X163559999Y-142600033D03*
D18*
X178050000Y-149710033D03*
X162350000Y-149710033D03*
%TD*%
D19*
%TO.C,USB1*%
X178995000Y-131725000D03*
X181855000Y-131725000D03*
X178995000Y-123275000D03*
X181855000Y-123275000D03*
D20*
X180425000Y-124000000D03*
X180425000Y-125000000D03*
D21*
X181250000Y-126000000D03*
X181250000Y-127000000D03*
X181250000Y-128000000D03*
X181250000Y-129000000D03*
D20*
X180425000Y-130000000D03*
X180425000Y-131000000D03*
D21*
X179600000Y-129000000D03*
X179600000Y-128000000D03*
X179600000Y-127000000D03*
X179600000Y-126000000D03*
%TD*%
D22*
%TO.C,J9*%
X159000000Y-141210000D03*
D14*
X159000000Y-143750000D03*
X159000000Y-146290000D03*
%TD*%
D23*
%TO.C,J1*%
X146784750Y-84319968D03*
X148054750Y-86859967D03*
X149324749Y-84319967D03*
X150594750Y-86859967D03*
X151864750Y-84319967D03*
X153134750Y-86859967D03*
X154404749Y-84319967D03*
X156944750Y-84319967D03*
X158214750Y-86859967D03*
D24*
X145869751Y-97269967D03*
X148409750Y-97269967D03*
X156589750Y-97269967D03*
X159129750Y-97269966D03*
D25*
X144754750Y-90159967D03*
X160244750Y-90159967D03*
%TD*%
D13*
%TO.C,J6*%
X197000000Y-122300000D03*
D14*
X198270000Y-124499705D03*
X199540000Y-126699409D03*
%TD*%
D26*
%TO.C,U5*%
X146275000Y-124695000D03*
D27*
X143735000Y-124695000D03*
X143735000Y-132315000D03*
X146275000Y-132315000D03*
%TD*%
D22*
%TO.C,J8*%
X198308261Y-130933119D03*
D14*
X198308261Y-133473119D03*
X198308261Y-136013119D03*
%TD*%
%LPD*%
M02*
