%TF.GenerationSoftware,KiCad,Pcbnew,9.0.6*%
%TF.CreationDate,2026-03-30T20:06:19-07:00*%
%TF.ProjectId,Hex Lattice,48657820-4c61-4747-9469-63652e6b6963,rev?*%
%TF.SameCoordinates,Original*%
%TF.FileFunction,Copper,L4,Bot*%
%TF.FilePolarity,Positive*%
%FSLAX46Y46*%
G04 Gerber Fmt 4.6, Leading zero omitted, Abs format (unit mm)*
G04 Created by KiCad (PCBNEW 9.0.6) date 2026-03-30 20:06:19*
%MOMM*%
%LPD*%
G01*
G04 APERTURE LIST*
G04 Aperture macros list*
%AMRoundRect*
0 Rectangle with rounded corners*
0 $1 Rounding radius*
0 $2 $3 $4 $5 $6 $7 $8 $9 X,Y pos of 4 corners*
0 Add a 4 corners polygon primitive as box body*
4,1,4,$2,$3,$4,$5,$6,$7,$8,$9,$2,$3,0*
0 Add four circle primitives for the rounded corners*
1,1,$1+$1,$2,$3*
1,1,$1+$1,$4,$5*
1,1,$1+$1,$6,$7*
1,1,$1+$1,$8,$9*
0 Add four rect primitives between the rounded corners*
20,1,$1+$1,$2,$3,$4,$5,0*
20,1,$1+$1,$4,$5,$6,$7,0*
20,1,$1+$1,$6,$7,$8,$9,0*
20,1,$1+$1,$8,$9,$2,$3,0*%
%AMRotRect*
0 Rectangle, with rotation*
0 The origin of the aperture is its center*
0 $1 length*
0 $2 width*
0 $3 Rotation angle, in degrees counterclockwise*
0 Add horizontal line*
21,1,$1,$2,0,0,$3*%
G04 Aperture macros list end*
%TA.AperFunction,ComponentPad*%
%ADD10C,1.200000*%
%TD*%
%TA.AperFunction,ComponentPad*%
%ADD11C,1.905000*%
%TD*%
%TA.AperFunction,HeatsinkPad*%
%ADD12C,0.500000*%
%TD*%
%TA.AperFunction,HeatsinkPad*%
%ADD13R,5.900000X5.900000*%
%TD*%
%TA.AperFunction,ComponentPad*%
%ADD14C,2.010000*%
%TD*%
%TA.AperFunction,ComponentPad*%
%ADD15RotRect,1.700000X1.700000X30.000000*%
%TD*%
%TA.AperFunction,ComponentPad*%
%ADD16C,1.700000*%
%TD*%
%TA.AperFunction,ComponentPad*%
%ADD17R,1.500000X1.500000*%
%TD*%
%TA.AperFunction,ComponentPad*%
%ADD18C,1.500000*%
%TD*%
%TA.AperFunction,ComponentPad*%
%ADD19C,1.800000*%
%TD*%
%TA.AperFunction,ComponentPad*%
%ADD20C,2.200000*%
%TD*%
%TA.AperFunction,ComponentPad*%
%ADD21O,1.200000X1.800000*%
%TD*%
%TA.AperFunction,ComponentPad*%
%ADD22O,1.000000X0.800000*%
%TD*%
%TA.AperFunction,ComponentPad*%
%ADD23C,0.800000*%
%TD*%
%TA.AperFunction,ComponentPad*%
%ADD24R,1.700000X1.700000*%
%TD*%
%TA.AperFunction,ComponentPad*%
%ADD25C,1.408000*%
%TD*%
%TA.AperFunction,ComponentPad*%
%ADD26C,1.530000*%
%TD*%
%TA.AperFunction,ComponentPad*%
%ADD27C,2.400000*%
%TD*%
%TA.AperFunction,ComponentPad*%
%ADD28RoundRect,0.250000X-0.550000X0.550000X-0.550000X-0.550000X0.550000X-0.550000X0.550000X0.550000X0*%
%TD*%
%TA.AperFunction,ComponentPad*%
%ADD29C,1.600000*%
%TD*%
%TA.AperFunction,ViaPad*%
%ADD30C,0.350000*%
%TD*%
%TA.AperFunction,ViaPad*%
%ADD31C,0.750000*%
%TD*%
%TA.AperFunction,Conductor*%
%ADD32C,0.200000*%
%TD*%
%TA.AperFunction,Conductor*%
%ADD33C,0.150000*%
%TD*%
%TA.AperFunction,Conductor*%
%ADD34C,0.500000*%
%TD*%
%TA.AperFunction,Conductor*%
%ADD35C,0.300000*%
%TD*%
G04 APERTURE END LIST*
D10*
%TO.P,J7,1,Pin_1*%
%TO.N,/UART_RX*%
X159250000Y-125749500D03*
%TO.P,J7,2,Pin_2*%
%TO.N,/UART_TX*%
X159250000Y-127248000D03*
%TO.P,J7,3,Pin_3*%
%TO.N,+3V3*%
X159250000Y-128749500D03*
%TO.P,J7,4,Pin_4*%
%TO.N,GND*%
X159250000Y-130250500D03*
%TD*%
D11*
%TO.P,U1,10,VOUT-*%
%TO.N,GND*%
X132475000Y-153770000D03*
%TO.P,U1,9,ADJ*%
%TO.N,unconnected-(U1-ADJ-Pad9)*%
X132475000Y-151230000D03*
%TO.P,U1,8,VOUT+*%
%TO.N,+24V*%
X132475000Y-148690000D03*
%TO.P,U1,7,VOUT-*%
%TO.N,GND*%
X132475000Y-146150000D03*
%TO.P,U1,6*%
%TO.N,N/C*%
X132475000Y-115670000D03*
%TO.P,U1,5*%
X132475000Y-113130000D03*
%TO.P,U1,4*%
X132475000Y-110590000D03*
%TO.P,U1,3,TYP2_DET*%
%TO.N,Net-(U1-TYP2_DET)*%
X132475000Y-108050000D03*
%TO.P,U1,2,VIN-*%
%TO.N,/POE_IN_N*%
X132475000Y-105510000D03*
%TO.P,U1,1,VIN+*%
%TO.N,/POE_IN_P*%
X132475000Y-102970000D03*
%TD*%
D12*
%TO.P,U2,57,VSS*%
%TO.N,GND*%
X175750000Y-93049999D03*
X173050000Y-93049999D03*
X171700000Y-93049999D03*
X177100001Y-93050000D03*
X174400000Y-93050000D03*
X177100001Y-94400000D03*
X175750000Y-94400000D03*
X174400000Y-94400000D03*
X173050000Y-94400000D03*
X171699999Y-94400000D03*
X177100000Y-95750000D03*
X175750000Y-95750000D03*
D13*
X174400000Y-95750000D03*
D12*
X174400000Y-95750000D03*
X173050000Y-95750000D03*
X171700000Y-95750000D03*
X177100001Y-97100000D03*
X175750000Y-97100000D03*
X174400000Y-97100000D03*
X173050000Y-97100000D03*
X171699999Y-97100000D03*
X174400000Y-98450000D03*
X171699999Y-98450000D03*
X177100000Y-98450001D03*
X175750000Y-98450001D03*
X173050000Y-98450001D03*
%TD*%
D14*
%TO.P,F1,1*%
%TO.N,/AUX_PWR_OUT_P*%
X182600000Y-147950000D03*
%TO.P,F1,2*%
%TO.N,+24V*%
X181400000Y-153050000D03*
%TD*%
D15*
%TO.P,J2,1,Pin_1*%
%TO.N,Net-(J2-Pin_1)*%
X183930000Y-99650296D03*
D16*
%TO.P,J2,2,Pin_2*%
%TO.N,+5V*%
X185200000Y-101850001D03*
%TO.P,J2,3,Pin_3*%
%TO.N,GND*%
X186470000Y-104049705D03*
%TD*%
D15*
%TO.P,J5,1,Pin_1*%
%TO.N,Net-(J5-Pin_1)*%
X192650000Y-114750000D03*
D16*
%TO.P,J5,2,Pin_2*%
%TO.N,+5V*%
X193920000Y-116949705D03*
%TO.P,J5,3,Pin_3*%
%TO.N,GND*%
X195190000Y-119149409D03*
%TD*%
D15*
%TO.P,J4,1,Pin_1*%
%TO.N,Net-(J4-Pin_1)*%
X188280000Y-107200296D03*
D16*
%TO.P,J4,2,Pin_2*%
%TO.N,+5V*%
X189550000Y-109400001D03*
%TO.P,J4,3,Pin_3*%
%TO.N,GND*%
X190820000Y-111599705D03*
%TD*%
D17*
%TO.P,J3,1,TD1+*%
%TO.N,/P2T+*%
X175915000Y-155550032D03*
D18*
%TO.P,J3,2,TD1-*%
%TO.N,/P2T-*%
X174645000Y-153010033D03*
%TO.P,J3,3,TD2+*%
%TO.N,/P2R+*%
X173375001Y-155550033D03*
%TO.P,J3,4,C*%
%TO.N,Net-(J3-C-Pad4)*%
X172105000Y-153010033D03*
%TO.P,J3,5,C*%
X170835000Y-155550033D03*
%TO.P,J3,6,TD2-*%
%TO.N,/P2R-*%
X169565000Y-153010033D03*
%TO.P,J3,7,TD3+*%
%TO.N,unconnected-(J3-TD3+-Pad7)*%
X168295001Y-155550033D03*
%TO.P,J3,8,TD3-*%
%TO.N,unconnected-(J3-TD3--Pad8)*%
X167025000Y-153010033D03*
%TO.P,J3,9,TD4+*%
%TO.N,unconnected-(J3-TD4+-Pad9)*%
X165755000Y-155550033D03*
%TO.P,J3,10,TD4-*%
%TO.N,unconnected-(J3-TD4--Pad10)*%
X164485000Y-153010033D03*
%TO.P,J3,11,VC1*%
%TO.N,/AUX_PWR_OUT_P*%
X175915000Y-150490033D03*
%TO.P,J3,12,VC2*%
%TO.N,GND*%
X173375000Y-149220033D03*
%TO.P,J3,13,VC3*%
%TO.N,/AUX_PWR_OUT_P*%
X167025000Y-149220033D03*
%TO.P,J3,14,VC4*%
%TO.N,GND*%
X164485000Y-150490033D03*
D19*
%TO.P,J3,15,LED1+*%
%TO.N,/ETH2_GRN_P*%
X176840000Y-142600034D03*
%TO.P,J3,16,LED1-*%
%TO.N,GND*%
X174300000Y-142600034D03*
%TO.P,J3,17,LED2+*%
%TO.N,/ETH2_YLW_P*%
X166100000Y-142600034D03*
%TO.P,J3,18,LED2-*%
%TO.N,/ETH2_YLW_N*%
X163559999Y-142600033D03*
D20*
%TO.P,J3,19,SHIELD*%
%TO.N,Net-(C24-Pad1)*%
X178050000Y-149710033D03*
%TO.P,J3,20,SHIELD*%
X162350000Y-149710033D03*
%TD*%
D21*
%TO.P,USB1,13,SH*%
%TO.N,GND*%
X178995000Y-131725000D03*
X181855000Y-131725000D03*
X178995000Y-123275000D03*
X181855000Y-123275000D03*
D22*
%TO.P,USB1,A01,GND*%
X180425000Y-124000000D03*
%TO.P,USB1,A04,VBUS*%
%TO.N,/VBUS*%
X180425000Y-125000000D03*
D23*
%TO.P,USB1,A05,CC1*%
%TO.N,Net-(USB1-CC1)*%
X181250000Y-126000000D03*
%TO.P,USB1,A06,DP1*%
%TO.N,/USB_DP*%
X181250000Y-127000000D03*
%TO.P,USB1,A07,DN1*%
%TO.N,/USB_DM*%
X181250000Y-128000000D03*
%TO.P,USB1,A08,SBU1*%
%TO.N,unconnected-(USB1-SBU1-PadA08)*%
X181250000Y-129000000D03*
D22*
%TO.P,USB1,A09,VBUS*%
%TO.N,/VBUS*%
X180425000Y-130000000D03*
%TO.P,USB1,A12,GND*%
%TO.N,GND*%
X180425000Y-131000000D03*
D23*
%TO.P,USB1,B05,CC2*%
%TO.N,Net-(USB1-CC2)*%
X179600000Y-129000000D03*
%TO.P,USB1,B06,DP2*%
%TO.N,unconnected-(USB1-DP2-PadB06)*%
X179600000Y-128000000D03*
%TO.P,USB1,B07,DN2*%
%TO.N,unconnected-(USB1-DN2-PadB07)*%
X179600000Y-127000000D03*
%TO.P,USB1,B08,SBU2*%
%TO.N,unconnected-(USB1-SBU2-PadB08)*%
X179600000Y-126000000D03*
%TD*%
D24*
%TO.P,J9,1,Pin_1*%
%TO.N,GND*%
X159000000Y-141210000D03*
D16*
%TO.P,J9,2,Pin_2*%
%TO.N,Net-(J9-Pin_2)*%
X159000000Y-143750000D03*
%TO.P,J9,3,Pin_3*%
%TO.N,Net-(J9-Pin_3)*%
X159000000Y-146290000D03*
%TD*%
D25*
%TO.P,J1,1,TX+*%
%TO.N,/P1T+*%
X146784750Y-84319968D03*
%TO.P,J1,2,TX-*%
%TO.N,/P1T-*%
X148054750Y-86859967D03*
%TO.P,J1,3,RX+*%
%TO.N,/P1R+*%
X149324749Y-84319967D03*
%TO.P,J1,4,TXC*%
%TO.N,Net-(J1-RXC)*%
X150594750Y-86859967D03*
%TO.P,J1,5,RXC*%
X151864750Y-84319967D03*
%TO.P,J1,6,RX-*%
%TO.N,/P1R-*%
X153134750Y-86859967D03*
%TO.P,J1,7,GND*%
%TO.N,Net-(J1-GND)*%
X154404749Y-84319967D03*
%TO.P,J1,9,V+*%
%TO.N,/POE_IN_P*%
X156944750Y-84319967D03*
%TO.P,J1,10,V-*%
%TO.N,/POE_IN_N*%
X158214750Y-86859967D03*
D26*
%TO.P,J1,11,LED_Y_P*%
%TO.N,+3V3*%
X145869751Y-97269967D03*
%TO.P,J1,12,LED_Y_N*%
%TO.N,/ETH1_YLW_N*%
X148409750Y-97269967D03*
%TO.P,J1,13,LED_G_P*%
%TO.N,+3V3*%
X156589750Y-97269967D03*
%TO.P,J1,14,LED_G_N*%
%TO.N,/ETH1_GRN_N*%
X159129750Y-97269966D03*
D27*
%TO.P,J1,Z1,Z1*%
%TO.N,Net-(J1-GND)*%
X144754750Y-90159967D03*
%TO.P,J1,Z2,Z2*%
X160244750Y-90159967D03*
%TD*%
D15*
%TO.P,J6,1,Pin_1*%
%TO.N,Net-(J6-Pin_1)*%
X197000000Y-122300000D03*
D16*
%TO.P,J6,2,Pin_2*%
%TO.N,+5V*%
X198270000Y-124499705D03*
%TO.P,J6,3,Pin_3*%
%TO.N,GND*%
X199540000Y-126699409D03*
%TD*%
D28*
%TO.P,U5,1*%
%TO.N,/POE_IN_P*%
X146275000Y-124695000D03*
D29*
%TO.P,U5,2*%
%TO.N,Net-(U1-TYP2_DET)*%
X143735000Y-124695000D03*
%TO.P,U5,3*%
%TO.N,GND*%
X143735000Y-132315000D03*
%TO.P,U5,4*%
%TO.N,/T2D_SENSE*%
X146275000Y-132315000D03*
%TD*%
D24*
%TO.P,J8,1,Pin_1*%
%TO.N,/VBUS*%
X198308261Y-130933119D03*
D16*
%TO.P,J8,2,Pin_2*%
%TO.N,+5V*%
X198308261Y-133473119D03*
%TO.P,J8,3,Pin_3*%
%TO.N,Net-(J8-Pin_3)*%
X198308261Y-136013119D03*
%TD*%
D30*
%TO.N,/UART_TX*%
X158000000Y-123750000D03*
%TO.N,/UART_RX*%
X159750000Y-123250000D03*
X170750000Y-108500000D03*
%TO.N,/UART_TX*%
X170750000Y-107750000D03*
%TO.N,+3V3*%
X160750000Y-133000000D03*
%TO.N,Net-(U3-QSPI_SS)*%
X175000000Y-107000000D03*
X170750000Y-107000000D03*
X173500000Y-107000000D03*
X150750000Y-124250000D03*
%TO.N,/SW_LED1*%
X163000000Y-95500000D03*
X179000000Y-92000000D03*
%TO.N,/SW_LED0*%
X162250000Y-95500000D03*
X178500000Y-90600000D03*
%TO.N,/SW_SDA*%
X168500000Y-89250000D03*
X174606416Y-91037721D03*
%TO.N,GND*%
X172990000Y-111299999D03*
X178200000Y-107300000D03*
D31*
X189676132Y-152658367D03*
D30*
X170200000Y-85820000D03*
D31*
X150250000Y-152250000D03*
X149250000Y-152250000D03*
X163000000Y-85925000D03*
D30*
X178300000Y-100800000D03*
D31*
X139500000Y-160000000D03*
X149250000Y-153250000D03*
D30*
X177850000Y-118600000D03*
X147000000Y-139100000D03*
X168680000Y-99100000D03*
X168245036Y-112132263D03*
X174990000Y-108299999D03*
X173990000Y-111299999D03*
D31*
X189676132Y-143158367D03*
D30*
X172990000Y-110299999D03*
D31*
X189676132Y-150658367D03*
X150250000Y-149250000D03*
X190676132Y-143158367D03*
X189676132Y-141158367D03*
D30*
X166200000Y-98600000D03*
X167300000Y-110322500D03*
D31*
X139500000Y-159000000D03*
D30*
X178000000Y-105500000D03*
X168800000Y-107400000D03*
D31*
X150250000Y-151250000D03*
D30*
X168200000Y-91250000D03*
D31*
X150250000Y-153250000D03*
X190623259Y-134000000D03*
X190676132Y-141158367D03*
X193750000Y-144750000D03*
D30*
X172990000Y-108299999D03*
D31*
X191623259Y-134000000D03*
X191123259Y-134750000D03*
D30*
X174990000Y-111299999D03*
X172990000Y-109299999D03*
D31*
X190123259Y-134750000D03*
X149250000Y-151250000D03*
X183250000Y-107000000D03*
D30*
X177500000Y-114000000D03*
X179000000Y-102500000D03*
D31*
X137500000Y-160000000D03*
X138500000Y-160000000D03*
D30*
X168680000Y-94900000D03*
D31*
X189123259Y-134750000D03*
X149250000Y-149250000D03*
D30*
X168622776Y-111044558D03*
X174496250Y-89003750D03*
D31*
X149250000Y-150250000D03*
X193750000Y-143750000D03*
D30*
X171990000Y-110299999D03*
X179000000Y-108000000D03*
D31*
X150250000Y-154250000D03*
D30*
X147000000Y-144850000D03*
D31*
X156975000Y-150700000D03*
D30*
X176200000Y-103200000D03*
D31*
X138500000Y-159000000D03*
D30*
X182750000Y-128000000D03*
D31*
X150250000Y-150250000D03*
D30*
X180000000Y-108000000D03*
D31*
X140500000Y-160000000D03*
X137500000Y-159000000D03*
X190676132Y-149658367D03*
D30*
X158487500Y-135750000D03*
D31*
X193750000Y-145750000D03*
D30*
X180300000Y-95500000D03*
D31*
X140500000Y-159000000D03*
D30*
X171990000Y-108299999D03*
D31*
X191676132Y-150658367D03*
D30*
X171990000Y-109299999D03*
D31*
X190676132Y-151658367D03*
X151000000Y-119000000D03*
D30*
X173990000Y-110299999D03*
D31*
X150250000Y-148250000D03*
D30*
X175100000Y-114600000D03*
D31*
X194750000Y-144750000D03*
X189676132Y-149658367D03*
X149250000Y-148250000D03*
D30*
X174300000Y-101300000D03*
D31*
X191676132Y-149658367D03*
D30*
X177025000Y-88800000D03*
X168680000Y-96800000D03*
X173990000Y-108299999D03*
D31*
X190676132Y-142158367D03*
X189623259Y-134000000D03*
D30*
X168100000Y-97200000D03*
X172223497Y-102220043D03*
D31*
X179000000Y-113600000D03*
D30*
X165100000Y-108547500D03*
X174990000Y-109299999D03*
D31*
X180000000Y-113600000D03*
D30*
X174990000Y-110299999D03*
X173990000Y-109299999D03*
D31*
X194750000Y-143750000D03*
X149250000Y-147250000D03*
D30*
X193923259Y-129100000D03*
D31*
X189676132Y-142158367D03*
D30*
X172235332Y-90390321D03*
D31*
X149250000Y-154250000D03*
D30*
X181750000Y-138000000D03*
D31*
X189676132Y-151658367D03*
D30*
X180500000Y-103000000D03*
D31*
X150250000Y-147250000D03*
X192123259Y-134750000D03*
X190676132Y-150658367D03*
X194750000Y-145750000D03*
D30*
X171990000Y-111299999D03*
%TO.N,+3V3*%
X181750000Y-139250000D03*
X176290000Y-114000000D03*
D31*
X187500000Y-127750000D03*
D30*
X172273934Y-105345730D03*
X176300000Y-111400000D03*
D31*
X187000000Y-128500000D03*
D30*
X168912500Y-102000000D03*
D31*
X189000000Y-128500000D03*
D30*
X169212289Y-108547148D03*
X169200000Y-112599999D03*
X158487500Y-136500000D03*
X164662499Y-96650000D03*
X176800604Y-99036467D03*
D31*
X188000000Y-128500000D03*
D30*
X175900000Y-91200000D03*
X177300000Y-106180000D03*
X165225000Y-93450000D03*
X173537296Y-114240910D03*
D31*
X188500000Y-127750000D03*
D30*
X179100000Y-95000000D03*
X177401149Y-91065949D03*
D31*
X186512653Y-127762653D03*
D30*
X159080000Y-155800000D03*
X170200000Y-87900000D03*
X177850000Y-109050000D03*
X175083230Y-100415081D03*
X156300000Y-81700000D03*
X179100000Y-97000000D03*
X162200000Y-93800000D03*
%TO.N,/VDD33A2*%
X169662501Y-98862501D03*
X170700058Y-100172632D03*
%TO.N,/VDD33A1*%
X169800000Y-92000000D03*
X169510000Y-90510000D03*
X169793423Y-93085418D03*
%TO.N,/VDD18TX*%
X169826549Y-95090276D03*
X165975000Y-95000000D03*
%TO.N,+1V8*%
X176700000Y-91100000D03*
X172500000Y-87500000D03*
X175650000Y-100400000D03*
X175475000Y-88800000D03*
D31*
%TO.N,/POE_IN_N*%
X141316000Y-89316000D03*
D30*
%TO.N,/T2D_SENSE*%
X165500000Y-115400000D03*
%TO.N,/SW_SCL*%
X169000000Y-89000000D03*
X174180264Y-90722613D03*
%TO.N,/SW_LED2*%
X169800000Y-84700000D03*
X179500000Y-92500000D03*
%TO.N,/SW_LED5*%
X180250000Y-93250000D03*
X170600000Y-84700000D03*
%TO.N,/SW_LED3*%
X181000000Y-140250000D03*
X179500000Y-93500000D03*
%TO.N,/SW_LED4*%
X179200000Y-94000000D03*
X181000000Y-137000000D03*
%TO.N,Net-(J3-C-Pad4)*%
X160880000Y-155900000D03*
%TO.N,/SW_RST*%
X171700000Y-100750000D03*
X173538519Y-92450353D03*
%TO.N,Net-(USB1-CC2)*%
X182750000Y-129000000D03*
%TO.N,+5V*%
X187250000Y-116500000D03*
X183250000Y-116500000D03*
X177350000Y-117450000D03*
X181500000Y-116500000D03*
D31*
%TO.N,/VBUS*%
X184750000Y-129750000D03*
%TO.N,/POE_IN_P*%
X137707967Y-88007967D03*
D30*
%TO.N,/LED_CTL_1*%
X179430000Y-115640000D03*
X175830000Y-116510000D03*
%TO.N,/LED_CTL_2*%
X176590000Y-117010000D03*
X180930000Y-115630000D03*
%TO.N,Net-(J8-Pin_3)*%
X191467557Y-146000000D03*
X191467557Y-136900000D03*
%TO.N,Net-(U8-4Y)*%
X185730000Y-114950000D03*
X184500000Y-114960000D03*
%TO.N,Net-(U8-3Y)*%
X185770000Y-117340000D03*
X184500000Y-117380000D03*
%TO.N,Net-(U8-2Y)*%
X184390000Y-118870000D03*
X185765000Y-118235000D03*
%TO.N,Net-(U8-1Y)*%
X179430000Y-119630000D03*
X185815000Y-119115000D03*
X180670000Y-120240000D03*
X184250000Y-119360000D03*
%TO.N,Net-(U11-AGND)*%
X189925057Y-145782500D03*
X189917557Y-145175000D03*
D31*
X190167557Y-148175000D03*
D30*
%TO.N,Net-(J9-Pin_3)*%
X170947951Y-110150498D03*
%TO.N,Net-(J9-Pin_2)*%
X170502500Y-110599999D03*
%TO.N,Net-(U3-RUN)*%
X147000000Y-141150000D03*
X155000000Y-134750000D03*
%TD*%
D32*
%TO.N,/UART_RX*%
X166750000Y-116250000D02*
X159750000Y-123250000D01*
X169500000Y-110750000D02*
X169500000Y-111500000D01*
X169500000Y-111500000D02*
X168250000Y-112750000D01*
X168250000Y-112750000D02*
X168250000Y-114750000D01*
X170250000Y-109000000D02*
X169500000Y-109750000D01*
X169500000Y-109750000D02*
X169500000Y-110750000D01*
X168250000Y-114750000D02*
X166750000Y-116250000D01*
%TO.N,/UART_TX*%
X168500000Y-110000000D02*
X166750000Y-111750000D01*
X166750000Y-111750000D02*
X166750000Y-115000000D01*
X164000000Y-117750000D02*
X158000000Y-123750000D01*
X166750000Y-115000000D02*
X164000000Y-117750000D01*
%TO.N,Net-(J9-Pin_2)*%
X170502500Y-110599999D02*
X170550000Y-110647499D01*
X170550000Y-110647499D02*
X170550000Y-112500000D01*
X157250000Y-142000000D02*
X159000000Y-143750000D01*
X170550000Y-112500000D02*
X168750000Y-114300000D01*
X168750000Y-115250000D02*
X160000000Y-124000000D01*
X158750000Y-124000000D02*
X157250000Y-125500000D01*
X168750000Y-114300000D02*
X168750000Y-115250000D01*
X160000000Y-124000000D02*
X158750000Y-124000000D01*
X157250000Y-125500000D02*
X157250000Y-142000000D01*
%TO.N,/T2D_SENSE*%
X149800000Y-130800000D02*
X148285000Y-132315000D01*
X165500000Y-115400000D02*
X163350000Y-115400000D01*
X149800000Y-128950000D02*
X149800000Y-130800000D01*
X148285000Y-132315000D02*
X146275000Y-132315000D01*
X163350000Y-115400000D02*
X149800000Y-128950000D01*
%TO.N,/UART_TX*%
X170750000Y-107750000D02*
X168500000Y-110000000D01*
%TO.N,/UART_RX*%
X170750000Y-108500000D02*
X170250000Y-109000000D01*
%TO.N,Net-(U3-QSPI_SS)*%
X169411118Y-107000000D02*
X169161118Y-106750000D01*
X173500000Y-107000000D02*
X175000000Y-107000000D01*
X152500000Y-123250000D02*
X151750000Y-123250000D01*
X169161118Y-106750000D02*
X168000000Y-106750000D01*
X151750000Y-123250000D02*
X150750000Y-124250000D01*
X170750000Y-107000000D02*
X169411118Y-107000000D01*
X166500000Y-109250000D02*
X152500000Y-123250000D01*
X168000000Y-106750000D02*
X166500000Y-108250000D01*
X166500000Y-108250000D02*
X166500000Y-109250000D01*
D33*
%TO.N,/SW_LED1*%
X163500000Y-91600000D02*
X168400000Y-86700000D01*
X163500000Y-95000000D02*
X163500000Y-91600000D01*
X163000000Y-95500000D02*
X163500000Y-95000000D01*
X176200000Y-88800000D02*
X176200000Y-89200000D01*
X174100000Y-86700000D02*
X176200000Y-88800000D01*
X176200000Y-89200000D02*
X179000000Y-92000000D01*
X168400000Y-86700000D02*
X174100000Y-86700000D01*
%TO.N,/SW_LED0*%
X178500000Y-90600000D02*
X178175000Y-90600000D01*
X176500000Y-88700000D02*
X174200000Y-86400000D01*
X168200000Y-86400000D02*
X163100000Y-91500000D01*
X163100000Y-91500000D02*
X163100000Y-94650000D01*
X178175000Y-90600000D02*
X176500000Y-88925000D01*
X176500000Y-88925000D02*
X176500000Y-88700000D01*
X163100000Y-94650000D02*
X162250000Y-95500000D01*
X174200000Y-86400000D02*
X168200000Y-86400000D01*
D32*
%TO.N,/SW_SDA*%
X172130065Y-91380065D02*
X170500000Y-89750000D01*
X170500000Y-89750000D02*
X169000000Y-89750000D01*
X174592344Y-91037721D02*
X174250000Y-91380065D01*
X169000000Y-89750000D02*
X168500000Y-89250000D01*
X174250000Y-91380065D02*
X172130065Y-91380065D01*
X174606416Y-91037721D02*
X174592344Y-91037721D01*
D34*
%TO.N,/VDD33A2*%
X170750000Y-99950000D02*
X169662501Y-98862501D01*
X170700058Y-100172632D02*
X170750000Y-100122690D01*
X170750000Y-100122690D02*
X170750000Y-99950000D01*
%TO.N,/VDD33A1*%
X169800000Y-92000000D02*
X169800000Y-93078841D01*
X169510000Y-91710000D02*
X169800000Y-92000000D01*
X169800000Y-93078841D02*
X169793423Y-93085418D01*
X169510000Y-90510000D02*
X169510000Y-91710000D01*
%TO.N,/VDD18TX*%
X169826549Y-95173451D02*
X169500000Y-95500000D01*
X169500000Y-95500000D02*
X166475000Y-95500000D01*
X169826549Y-95090276D02*
X169826549Y-95173451D01*
X166475000Y-95500000D02*
X165975000Y-95000000D01*
%TO.N,+1V8*%
X178600000Y-92600000D02*
X178600000Y-94400000D01*
X176700000Y-91100000D02*
X176700000Y-91300000D01*
X178600000Y-94400000D02*
X178500000Y-94500000D01*
X175475000Y-88800000D02*
X175475000Y-89475000D01*
X176700000Y-90700000D02*
X175475000Y-89475000D01*
X178500000Y-94500000D02*
X178500000Y-95291877D01*
X172500000Y-87500000D02*
X174000000Y-87500000D01*
X177200000Y-91800000D02*
X177800000Y-91800000D01*
X176700000Y-91300000D02*
X177200000Y-91800000D01*
X178400000Y-95391877D02*
X178400000Y-99400000D01*
X177800000Y-91800000D02*
X178600000Y-92600000D01*
X178500000Y-95291877D02*
X178400000Y-95391877D01*
X175300000Y-88800000D02*
X175475000Y-88800000D01*
X178400000Y-99400000D02*
X177400000Y-100400000D01*
X176700000Y-91100000D02*
X176700000Y-90700000D01*
X177400000Y-100400000D02*
X175726000Y-100400000D01*
X174000000Y-87500000D02*
X175300000Y-88800000D01*
%TO.N,Net-(J1-GND)*%
X159759967Y-90159967D02*
X160244750Y-90159967D01*
X154404749Y-84804749D02*
X159759967Y-90159967D01*
X160244750Y-90159967D02*
X144754750Y-90159967D01*
X154404749Y-84319967D02*
X154404749Y-84804749D01*
D32*
%TO.N,/SW_SCL*%
X174180264Y-90722613D02*
X172457651Y-89000000D01*
X172457651Y-89000000D02*
X169000000Y-89000000D01*
D33*
%TO.N,/SW_LED2*%
X171300000Y-86000000D02*
X170000000Y-84700000D01*
X179600000Y-90454968D02*
X175145032Y-86000000D01*
X179600000Y-91090064D02*
X179600000Y-90454968D01*
X179602000Y-91092064D02*
X179600000Y-91090064D01*
X179500000Y-91429032D02*
X179602000Y-91327032D01*
X170000000Y-84700000D02*
X169800000Y-84700000D01*
X175145032Y-86000000D02*
X171300000Y-86000000D01*
X179602000Y-91327032D02*
X179602000Y-91092064D01*
X179500000Y-92500000D02*
X179500000Y-91429032D01*
%TO.N,/SW_LED5*%
X180250000Y-93250000D02*
X180250000Y-91296821D01*
X172000000Y-85600000D02*
X171100000Y-84700000D01*
X175100000Y-85600000D02*
X172000000Y-85600000D01*
X180250000Y-91296821D02*
X179851000Y-90897821D01*
X171100000Y-84700000D02*
X170600000Y-84700000D01*
X179851000Y-90897821D02*
X179851000Y-90351000D01*
X179851000Y-90351000D02*
X175100000Y-85600000D01*
%TO.N,/SW_LED3*%
X182925000Y-136175000D02*
X183860000Y-135240000D01*
X182825000Y-136175000D02*
X181500000Y-137500000D01*
X183860000Y-135240000D02*
X183860000Y-120160000D01*
X181500000Y-137500000D02*
X181000000Y-138000000D01*
X181000000Y-140000000D02*
X181000000Y-140250000D01*
X182925000Y-136175000D02*
X182900000Y-136200000D01*
X182400000Y-118700000D02*
X182400000Y-96400000D01*
X183860000Y-120160000D02*
X182400000Y-118700000D01*
X181000000Y-138000000D02*
X181000000Y-140000000D01*
X182400000Y-96400000D02*
X179500000Y-93500000D01*
X182925000Y-136175000D02*
X182825000Y-136175000D01*
%TO.N,/SW_LED4*%
X182800000Y-135400000D02*
X182600000Y-135400000D01*
X183500000Y-120600000D02*
X183500000Y-134700000D01*
X180500000Y-95000000D02*
X182000000Y-96500000D01*
X179200000Y-94000000D02*
X180200000Y-95000000D01*
X182600000Y-135400000D02*
X181000000Y-137000000D01*
X182000000Y-119100000D02*
X183500000Y-120600000D01*
X180200000Y-95000000D02*
X180500000Y-95000000D01*
X182000000Y-96500000D02*
X182000000Y-119100000D01*
X183500000Y-134700000D02*
X182800000Y-135400000D01*
%TO.N,Net-(J3-C-Pad4)*%
X170835000Y-155550033D02*
X169885033Y-156500000D01*
X161480000Y-156500000D02*
X160880000Y-155900000D01*
X169885033Y-156500000D02*
X161480000Y-156500000D01*
%TO.N,/SW_RST*%
X173507547Y-92450353D02*
X173457900Y-92500000D01*
X173538519Y-92450353D02*
X173507547Y-92450353D01*
X171100000Y-92700000D02*
X171100000Y-99600000D01*
X171100000Y-99600000D02*
X171700000Y-100200000D01*
X171700000Y-100200000D02*
X171700000Y-100750000D01*
X173457900Y-92500000D02*
X171300000Y-92500000D01*
X171300000Y-92500000D02*
X171100000Y-92700000D01*
D32*
%TO.N,/ETH2_YLW_N*%
X163000000Y-142500000D02*
X163459966Y-142500000D01*
X163459966Y-142500000D02*
X163559999Y-142600033D01*
%TO.N,Net-(USB1-CC2)*%
X182750000Y-129000000D02*
X182093258Y-129656742D01*
X182093258Y-129656742D02*
X181034149Y-129656742D01*
X180377407Y-129000000D02*
X179600000Y-129000000D01*
X181034149Y-129656742D02*
X180377407Y-129000000D01*
D35*
%TO.N,+5V*%
X187250000Y-116500000D02*
X183250000Y-116500000D01*
D34*
%TO.N,Net-(J5-Pin_1)*%
X192271824Y-114750000D02*
X192650000Y-114750000D01*
D35*
%TO.N,+5V*%
X180550000Y-117450000D02*
X177350000Y-117450000D01*
D34*
%TO.N,Net-(J4-Pin_1)*%
X187922120Y-107200296D02*
X188280000Y-107200296D01*
D35*
%TO.N,+5V*%
X181500000Y-116500000D02*
X180550000Y-117450000D01*
D34*
%TO.N,/VBUS*%
X185933119Y-130933119D02*
X184750000Y-129750000D01*
X198308261Y-130933119D02*
X185933119Y-130933119D01*
%TO.N,/POE_IN_P*%
X135000000Y-108000000D02*
X135000000Y-105495000D01*
X146275000Y-124695000D02*
X146275000Y-119275000D01*
X146275000Y-119275000D02*
X135000000Y-108000000D01*
X135000000Y-105495000D02*
X132475000Y-102970000D01*
D33*
%TO.N,/LED_CTL_1*%
X179430000Y-115640000D02*
X178560000Y-116510000D01*
X178560000Y-116510000D02*
X175830000Y-116510000D01*
%TO.N,/LED_CTL_2*%
X179550000Y-117010000D02*
X176590000Y-117010000D01*
X180930000Y-115630000D02*
X179550000Y-117010000D01*
D34*
%TO.N,Net-(C24-Pad1)*%
X175290912Y-149389033D02*
X173544009Y-147642130D01*
X165467097Y-149031024D02*
X163029009Y-149031024D01*
X173544009Y-147642130D02*
X171196000Y-147642130D01*
X163029009Y-149031024D02*
X162350000Y-149710033D01*
X162000000Y-149360033D02*
X162350000Y-149710033D01*
X177729000Y-149389033D02*
X175290912Y-149389033D01*
X178050000Y-149710033D02*
X177729000Y-149389033D01*
X171196000Y-147642130D02*
X166855991Y-147642130D01*
X166855991Y-147642130D02*
X165467097Y-149031024D01*
D32*
%TO.N,Net-(J8-Pin_3)*%
X191467557Y-136900000D02*
X191467557Y-146000000D01*
%TO.N,Net-(U8-4Y)*%
X185720000Y-114960000D02*
X185730000Y-114950000D01*
X184500000Y-114960000D02*
X185720000Y-114960000D01*
%TO.N,Net-(U8-3Y)*%
X184500000Y-117380000D02*
X185730000Y-117380000D01*
X185730000Y-117380000D02*
X185770000Y-117340000D01*
%TO.N,Net-(U8-2Y)*%
X185130000Y-118870000D02*
X184390000Y-118870000D01*
X185765000Y-118235000D02*
X185130000Y-118870000D01*
%TO.N,Net-(U8-1Y)*%
X184250000Y-119360000D02*
X185570000Y-119360000D01*
D33*
X179430000Y-119900000D02*
X179430000Y-119630000D01*
X180670000Y-120240000D02*
X179770000Y-120240000D01*
D32*
X185570000Y-119360000D02*
X185815000Y-119115000D01*
D33*
X179770000Y-120240000D02*
X179430000Y-119900000D01*
D32*
%TO.N,Net-(J9-Pin_3)*%
X160250000Y-124750000D02*
X160250000Y-145040000D01*
X171000000Y-112950000D02*
X169225000Y-114725000D01*
X169225000Y-115775000D02*
X160250000Y-124750000D01*
X171000000Y-110202547D02*
X171000000Y-112950000D01*
X160250000Y-145040000D02*
X159000000Y-146290000D01*
X170947951Y-110150498D02*
X171000000Y-110202547D01*
X169225000Y-114725000D02*
X169225000Y-115775000D01*
%TO.N,Net-(U3-RUN)*%
X154960000Y-134790000D02*
X154960000Y-140540000D01*
X154960000Y-140540000D02*
X154500000Y-141000000D01*
X147150000Y-141000000D02*
X147000000Y-141150000D01*
X155000000Y-134750000D02*
X154960000Y-134790000D01*
X154500000Y-141000000D02*
X147150000Y-141000000D01*
%TD*%
%TA.AperFunction,Conductor*%
%TO.N,/POE_IN_N*%
G36*
X132443039Y-104525185D02*
G01*
X132488794Y-104577989D01*
X132500000Y-104629500D01*
X132500000Y-106429792D01*
X132480315Y-106496831D01*
X132439798Y-106536121D01*
X131250000Y-107250000D01*
X131243085Y-107809960D01*
X131241568Y-107827825D01*
X131222000Y-107951386D01*
X131222000Y-108148617D01*
X131236035Y-108237229D01*
X131237553Y-108258158D01*
X131131882Y-116817531D01*
X131111371Y-116884322D01*
X131058006Y-116929422D01*
X131007891Y-116940000D01*
X130565000Y-116940000D01*
X130565000Y-127376000D01*
X130545315Y-127443039D01*
X130492511Y-127488794D01*
X130441000Y-127500000D01*
X125379500Y-127500000D01*
X125312461Y-127480315D01*
X125266706Y-127427511D01*
X125255500Y-127376000D01*
X125255500Y-116852152D01*
X125261863Y-116812940D01*
X129336080Y-104590287D01*
X129375954Y-104532913D01*
X129440518Y-104506205D01*
X129453717Y-104505500D01*
X132376000Y-104505500D01*
X132443039Y-104525185D01*
G37*
%TD.AperFunction*%
%TD*%
%TA.AperFunction,Conductor*%
%TO.N,+24V*%
G36*
X120486809Y-130269685D02*
G01*
X120532564Y-130322489D01*
X120532879Y-130323183D01*
X128249999Y-147499999D01*
X128250000Y-147500000D01*
X132376000Y-147500000D01*
X132443039Y-147519685D01*
X132488794Y-147572489D01*
X132500000Y-147624000D01*
X132500000Y-149853000D01*
X132480315Y-149920039D01*
X132427511Y-149965794D01*
X132381178Y-149975873D01*
X132381237Y-149976618D01*
X132376383Y-149976999D01*
X132181586Y-150007853D01*
X131994017Y-150068797D01*
X131818284Y-150158338D01*
X131658722Y-150274267D01*
X131519267Y-150413722D01*
X131403338Y-150573284D01*
X131313797Y-150749017D01*
X131252853Y-150936586D01*
X131222000Y-151131381D01*
X131222000Y-151328618D01*
X131248238Y-151494278D01*
X131239283Y-151563572D01*
X131194287Y-151617023D01*
X131159830Y-151632905D01*
X127266698Y-152745229D01*
X127232633Y-152750000D01*
X123427818Y-152750000D01*
X123427799Y-152749994D01*
X123427781Y-152750000D01*
X123393856Y-152740027D01*
X123360779Y-152730315D01*
X123360760Y-152730298D01*
X123360747Y-152730295D01*
X123334081Y-152707175D01*
X123253999Y-152614698D01*
X123253004Y-152613534D01*
X122871398Y-152160801D01*
X122870340Y-152159529D01*
X122777434Y-152046275D01*
X122494829Y-151701773D01*
X122493875Y-151700593D01*
X122124595Y-151237985D01*
X122123575Y-151236689D01*
X122041793Y-151131387D01*
X121760386Y-150769048D01*
X121759394Y-150767752D01*
X121709484Y-150701688D01*
X121402617Y-150295495D01*
X121401639Y-150294184D01*
X121051040Y-149817001D01*
X121050084Y-149815680D01*
X120706029Y-149334067D01*
X120705076Y-149332715D01*
X120367409Y-148846463D01*
X120366475Y-148845098D01*
X120035344Y-148354412D01*
X120034428Y-148353034D01*
X120031248Y-148348184D01*
X119709855Y-147857947D01*
X119708981Y-147856595D01*
X119695688Y-147835717D01*
X119420187Y-147403000D01*
X119391029Y-147357203D01*
X119390150Y-147355802D01*
X119235586Y-147105735D01*
X119078880Y-146852203D01*
X119078092Y-146850908D01*
X118833675Y-146443412D01*
X118773602Y-146343257D01*
X118772760Y-146341833D01*
X118475006Y-145830060D01*
X118474184Y-145828625D01*
X118457100Y-145798339D01*
X118183326Y-145312997D01*
X118182566Y-145311628D01*
X118040847Y-145052368D01*
X117898571Y-144792090D01*
X117897827Y-144790707D01*
X117620797Y-144267444D01*
X117620033Y-144265977D01*
X117350129Y-143739302D01*
X117349384Y-143737826D01*
X117196089Y-143428602D01*
X117086365Y-143207270D01*
X117085687Y-143205877D01*
X117062387Y-143157258D01*
X116902162Y-142822916D01*
X116829813Y-142671946D01*
X116829109Y-142670450D01*
X116745712Y-142490298D01*
X116580461Y-142133331D01*
X116579788Y-142131850D01*
X116517701Y-141992898D01*
X116338253Y-141591294D01*
X116337614Y-141589838D01*
X116297141Y-141495916D01*
X116103345Y-141046188D01*
X116102707Y-141044677D01*
X115875713Y-140497955D01*
X115875114Y-140496487D01*
X115776518Y-140249773D01*
X115655388Y-139946672D01*
X115654792Y-139945149D01*
X115548778Y-139669248D01*
X115442455Y-139392544D01*
X115441935Y-139391164D01*
X115236934Y-138835626D01*
X115236421Y-138834208D01*
X115038857Y-138276010D01*
X115038351Y-138274548D01*
X115032326Y-138256775D01*
X114943422Y-137994511D01*
X114848300Y-137713906D01*
X114847779Y-137712336D01*
X114665185Y-137149092D01*
X114664686Y-137147515D01*
X114489716Y-136582188D01*
X114489237Y-136580605D01*
X114471420Y-136520198D01*
X114321737Y-136012703D01*
X114321294Y-136011162D01*
X114252166Y-135764719D01*
X114161382Y-135441068D01*
X114160946Y-135439472D01*
X114136471Y-135347515D01*
X114008680Y-134867387D01*
X114008331Y-134866043D01*
X113863657Y-134291777D01*
X113863315Y-134290378D01*
X113726310Y-133714214D01*
X113725981Y-133712791D01*
X113596723Y-133135059D01*
X113596374Y-133133451D01*
X113578750Y-133049433D01*
X113474815Y-132553966D01*
X113474492Y-132552368D01*
X113409612Y-132221149D01*
X113360721Y-131971556D01*
X113360419Y-131969960D01*
X113351278Y-131919754D01*
X113254358Y-131387408D01*
X113254073Y-131385778D01*
X113182541Y-130960786D01*
X113155827Y-130802071D01*
X113155569Y-130800474D01*
X113092555Y-130392948D01*
X113101764Y-130323688D01*
X113146956Y-130270402D01*
X113213783Y-130250007D01*
X113215099Y-130250000D01*
X120419770Y-130250000D01*
X120486809Y-130269685D01*
G37*
%TD.AperFunction*%
%TD*%
%TA.AperFunction,Conductor*%
%TO.N,/POE_IN_P*%
G36*
X138321784Y-83437647D02*
G01*
X138360445Y-83495846D01*
X138366008Y-83533434D01*
X138225848Y-103876854D01*
X138205702Y-103943757D01*
X138152584Y-103989147D01*
X138101851Y-104000000D01*
X129000000Y-104000000D01*
X124750000Y-116750000D01*
X124750000Y-127376000D01*
X124730315Y-127443039D01*
X124677511Y-127488794D01*
X124626000Y-127500000D01*
X112863222Y-127500000D01*
X112859772Y-127498987D01*
X112856271Y-127499805D01*
X112826492Y-127489214D01*
X112796183Y-127480315D01*
X112793829Y-127477599D01*
X112790441Y-127476394D01*
X112771114Y-127451384D01*
X112750428Y-127427511D01*
X112749270Y-127423117D01*
X112747718Y-127421108D01*
X112739688Y-127386739D01*
X112729257Y-127266749D01*
X112729144Y-127265341D01*
X112685740Y-126674825D01*
X112685632Y-126673213D01*
X112684635Y-126656624D01*
X112700263Y-126588524D01*
X112700972Y-126587278D01*
X137386562Y-83830643D01*
X137437127Y-83782430D01*
X137439052Y-83781460D01*
X137721003Y-83642854D01*
X137722171Y-83642289D01*
X138188799Y-83420578D01*
X138257795Y-83409589D01*
X138321784Y-83437647D01*
G37*
%TD.AperFunction*%
%TD*%
%TA.AperFunction,Conductor*%
%TO.N,GND*%
G36*
X130508039Y-130269685D02*
G01*
X130553794Y-130322489D01*
X130565000Y-130374000D01*
X130565000Y-144880000D01*
X140816983Y-144880000D01*
X140884022Y-144899685D01*
X140929777Y-144952489D01*
X140940982Y-145004496D01*
X140935000Y-146500000D01*
X150876000Y-146500000D01*
X150943039Y-146519685D01*
X150988794Y-146572489D01*
X151000000Y-146624000D01*
X151000000Y-160583525D01*
X150980315Y-160650564D01*
X150927511Y-160696319D01*
X150876000Y-160707525D01*
X132401935Y-160707525D01*
X132334896Y-160687840D01*
X132332915Y-160686541D01*
X132072200Y-160511863D01*
X132070832Y-160510933D01*
X131583506Y-160174925D01*
X131582151Y-160173977D01*
X131099351Y-159831498D01*
X131098008Y-159830532D01*
X130619719Y-159481570D01*
X130618389Y-159480586D01*
X130382704Y-159303764D01*
X130144913Y-159125362D01*
X130143630Y-159124386D01*
X129960112Y-158982837D01*
X129674825Y-158762792D01*
X129673532Y-158761781D01*
X129209633Y-158393997D01*
X129208344Y-158392961D01*
X128749471Y-158019089D01*
X128748195Y-158018035D01*
X128294271Y-157638006D01*
X128293010Y-157636936D01*
X127844241Y-157250924D01*
X127842994Y-157249837D01*
X127399317Y-156857789D01*
X127398085Y-156856685D01*
X127132376Y-156615507D01*
X126959779Y-156458845D01*
X126958583Y-156457745D01*
X126808745Y-156318050D01*
X126525615Y-156054084D01*
X126524424Y-156052959D01*
X126401974Y-155935706D01*
X126096794Y-155643480D01*
X126095621Y-155642341D01*
X125673563Y-155227262D01*
X125672391Y-155226094D01*
X125255942Y-154805457D01*
X125254786Y-154804274D01*
X124843931Y-154378064D01*
X124842791Y-154376866D01*
X124700528Y-154225291D01*
X124437600Y-153945152D01*
X124436570Y-153944040D01*
X124037173Y-153506954D01*
X124036073Y-153505734D01*
X123819176Y-153261918D01*
X123789325Y-153198746D01*
X123798366Y-153129463D01*
X123843428Y-153076067D01*
X123910205Y-153055511D01*
X123911822Y-153055500D01*
X127232633Y-153055500D01*
X127275006Y-153052547D01*
X127309071Y-153047776D01*
X127350625Y-153038975D01*
X127350633Y-153038972D01*
X127350636Y-153038972D01*
X128364396Y-152749326D01*
X131243757Y-151926651D01*
X131287711Y-151910352D01*
X131294771Y-151907097D01*
X131363891Y-151896904D01*
X131427551Y-151925699D01*
X131447006Y-151946819D01*
X131519265Y-152046275D01*
X131658725Y-152185735D01*
X131818285Y-152301662D01*
X131971704Y-152379833D01*
X131994017Y-152391202D01*
X132087801Y-152421674D01*
X132181588Y-152452147D01*
X132271807Y-152466436D01*
X132376382Y-152483000D01*
X132376387Y-152483000D01*
X132573618Y-152483000D01*
X132668052Y-152468042D01*
X132768412Y-152452147D01*
X132955985Y-152391201D01*
X133131715Y-152301662D01*
X133291275Y-152185735D01*
X133430735Y-152046275D01*
X133546662Y-151886715D01*
X133636201Y-151710985D01*
X133697147Y-151523412D01*
X133720303Y-151377213D01*
X133728000Y-151328618D01*
X133728000Y-151131381D01*
X133698206Y-150943277D01*
X133697147Y-150936588D01*
X133636201Y-150749015D01*
X133546662Y-150573285D01*
X133430735Y-150413725D01*
X133291275Y-150274265D01*
X133131715Y-150158338D01*
X132959294Y-150070485D01*
X132908498Y-150022510D01*
X132891703Y-149954689D01*
X132914240Y-149888554D01*
X132959294Y-149849515D01*
X132962916Y-149847669D01*
X133131715Y-149761662D01*
X133291275Y-149645735D01*
X133430735Y-149506275D01*
X133546662Y-149346715D01*
X133636201Y-149170985D01*
X133697147Y-148983412D01*
X133713042Y-148883052D01*
X133728000Y-148788618D01*
X133728000Y-148591381D01*
X133697765Y-148400493D01*
X133697147Y-148396588D01*
X133636201Y-148209015D01*
X133546662Y-148033285D01*
X133430735Y-147873725D01*
X133291275Y-147734265D01*
X133131715Y-147618338D01*
X133110291Y-147607422D01*
X132955989Y-147528800D01*
X132822031Y-147485274D01*
X132764356Y-147445836D01*
X132753312Y-147429943D01*
X132719679Y-147372436D01*
X132719674Y-147372428D01*
X132673918Y-147319623D01*
X132673908Y-147319612D01*
X132629192Y-147277451D01*
X132629189Y-147277449D01*
X132629187Y-147277447D01*
X132529111Y-147226561D01*
X132529110Y-147226560D01*
X132529109Y-147226560D01*
X132462078Y-147206877D01*
X132462072Y-147206876D01*
X132376000Y-147194500D01*
X132375997Y-147194500D01*
X128527893Y-147194500D01*
X128460854Y-147174815D01*
X128415099Y-147122011D01*
X128414784Y-147121317D01*
X121133044Y-130913574D01*
X120913456Y-130424816D01*
X120903939Y-130355599D01*
X120933354Y-130292223D01*
X120992363Y-130254810D01*
X121026566Y-130250000D01*
X130441000Y-130250000D01*
X130508039Y-130269685D01*
G37*
%TD.AperFunction*%
%TD*%
%TA.AperFunction,Conductor*%
%TO.N,GND*%
G36*
X180508059Y-102001061D02*
G01*
X180613223Y-102014906D01*
X180644491Y-102023284D01*
X180734918Y-102060740D01*
X180762952Y-102076925D01*
X180840602Y-102136509D01*
X180863491Y-102159398D01*
X180923074Y-102237048D01*
X180939259Y-102265081D01*
X180976715Y-102355508D01*
X180985093Y-102386775D01*
X180998939Y-102491939D01*
X181000000Y-102508125D01*
X181000000Y-114491874D01*
X180998939Y-114508059D01*
X180998939Y-114508060D01*
X180985093Y-114613224D01*
X180976715Y-114644491D01*
X180939259Y-114734918D01*
X180923074Y-114762951D01*
X180863491Y-114840601D01*
X180840601Y-114863491D01*
X180762951Y-114923074D01*
X180734918Y-114939259D01*
X180644491Y-114976715D01*
X180613224Y-114985093D01*
X180519398Y-114997446D01*
X180508058Y-114998939D01*
X180491874Y-115000000D01*
X171008126Y-115000000D01*
X170991941Y-114998939D01*
X170978917Y-114997224D01*
X170886775Y-114985093D01*
X170855508Y-114976715D01*
X170765081Y-114939259D01*
X170737048Y-114923074D01*
X170659398Y-114863491D01*
X170636508Y-114840601D01*
X170576925Y-114762951D01*
X170560740Y-114734918D01*
X170523284Y-114644491D01*
X170514906Y-114613223D01*
X170501061Y-114508059D01*
X170500000Y-114491874D01*
X170500000Y-114198057D01*
X173211796Y-114198057D01*
X173211796Y-114283763D01*
X173222980Y-114325500D01*
X173233978Y-114366547D01*
X173233981Y-114366554D01*
X173276826Y-114440765D01*
X173276830Y-114440770D01*
X173276831Y-114440772D01*
X173337434Y-114501375D01*
X173337436Y-114501376D01*
X173337440Y-114501379D01*
X173411651Y-114544224D01*
X173411658Y-114544228D01*
X173494443Y-114566410D01*
X173494445Y-114566410D01*
X173580147Y-114566410D01*
X173580149Y-114566410D01*
X173662934Y-114544228D01*
X173737158Y-114501375D01*
X173797761Y-114440772D01*
X173840614Y-114366548D01*
X173862796Y-114283763D01*
X173862796Y-114198057D01*
X173840614Y-114115272D01*
X173840610Y-114115265D01*
X173797765Y-114041054D01*
X173797759Y-114041046D01*
X173737159Y-113980446D01*
X173737151Y-113980440D01*
X173696806Y-113957147D01*
X175964500Y-113957147D01*
X175964500Y-114042853D01*
X175983905Y-114115272D01*
X175986682Y-114125637D01*
X175986685Y-114125644D01*
X176029530Y-114199855D01*
X176029534Y-114199860D01*
X176029535Y-114199862D01*
X176090138Y-114260465D01*
X176090140Y-114260466D01*
X176090144Y-114260469D01*
X176164355Y-114303314D01*
X176164362Y-114303318D01*
X176247147Y-114325500D01*
X176247149Y-114325500D01*
X176332851Y-114325500D01*
X176332853Y-114325500D01*
X176415638Y-114303318D01*
X176489862Y-114260465D01*
X176550465Y-114199862D01*
X176593318Y-114125638D01*
X176615500Y-114042853D01*
X176615500Y-113957147D01*
X176593318Y-113874362D01*
X176593314Y-113874355D01*
X176550469Y-113800144D01*
X176550463Y-113800136D01*
X176489863Y-113739536D01*
X176489855Y-113739530D01*
X176415644Y-113696685D01*
X176415640Y-113696683D01*
X176415638Y-113696682D01*
X176332853Y-113674500D01*
X176247147Y-113674500D01*
X176164362Y-113696682D01*
X176164355Y-113696685D01*
X176090144Y-113739530D01*
X176090136Y-113739536D01*
X176029536Y-113800136D01*
X176029530Y-113800144D01*
X175986685Y-113874355D01*
X175986682Y-113874362D01*
X175964500Y-113957147D01*
X173696806Y-113957147D01*
X173662940Y-113937595D01*
X173662936Y-113937593D01*
X173662934Y-113937592D01*
X173580149Y-113915410D01*
X173494443Y-113915410D01*
X173411658Y-113937592D01*
X173411651Y-113937595D01*
X173337440Y-113980440D01*
X173337432Y-113980446D01*
X173276832Y-114041046D01*
X173276826Y-114041054D01*
X173233981Y-114115265D01*
X173233978Y-114115272D01*
X173211796Y-114198057D01*
X170500000Y-114198057D01*
X170500000Y-113784912D01*
X170519685Y-113717873D01*
X170536319Y-113697231D01*
X170559050Y-113674500D01*
X171169976Y-113063574D01*
X171200500Y-112989882D01*
X171200500Y-112910118D01*
X171200500Y-111357147D01*
X175974500Y-111357147D01*
X175974500Y-111442852D01*
X175996682Y-111525637D01*
X175996685Y-111525644D01*
X176039530Y-111599855D01*
X176039534Y-111599860D01*
X176039535Y-111599862D01*
X176100138Y-111660465D01*
X176100140Y-111660466D01*
X176100144Y-111660469D01*
X176174355Y-111703314D01*
X176174362Y-111703318D01*
X176257147Y-111725500D01*
X176257149Y-111725500D01*
X176342851Y-111725500D01*
X176342853Y-111725500D01*
X176425638Y-111703318D01*
X176499862Y-111660465D01*
X176560465Y-111599862D01*
X176603318Y-111525638D01*
X176625500Y-111442853D01*
X176625500Y-111357147D01*
X176603318Y-111274362D01*
X176603314Y-111274355D01*
X176560469Y-111200144D01*
X176560463Y-111200136D01*
X176499863Y-111139536D01*
X176499855Y-111139530D01*
X176425644Y-111096685D01*
X176425640Y-111096683D01*
X176425638Y-111096682D01*
X176342853Y-111074500D01*
X176257147Y-111074500D01*
X176174362Y-111096682D01*
X176174355Y-111096685D01*
X176100144Y-111139530D01*
X176100136Y-111139536D01*
X176039536Y-111200136D01*
X176039530Y-111200144D01*
X175996685Y-111274355D01*
X175996682Y-111274362D01*
X175974500Y-111357147D01*
X171200500Y-111357147D01*
X171200500Y-110397296D01*
X171217113Y-110335296D01*
X171239407Y-110296681D01*
X171251269Y-110276136D01*
X171273451Y-110193351D01*
X171273451Y-110107645D01*
X171251269Y-110024860D01*
X171251265Y-110024853D01*
X171208420Y-109950642D01*
X171208414Y-109950634D01*
X171147814Y-109890034D01*
X171147806Y-109890028D01*
X171073595Y-109847183D01*
X171073591Y-109847181D01*
X171073589Y-109847180D01*
X170990804Y-109824998D01*
X170905098Y-109824998D01*
X170822313Y-109847180D01*
X170822306Y-109847183D01*
X170748095Y-109890028D01*
X170748087Y-109890034D01*
X170711681Y-109926441D01*
X170650358Y-109959926D01*
X170580666Y-109954942D01*
X170524733Y-109913070D01*
X170500316Y-109847606D01*
X170500000Y-109838760D01*
X170500000Y-109084912D01*
X170508644Y-109055471D01*
X170515168Y-109025485D01*
X170518922Y-109020469D01*
X170519685Y-109017873D01*
X170528328Y-109007147D01*
X177524500Y-109007147D01*
X177524500Y-109092852D01*
X177546682Y-109175637D01*
X177546685Y-109175644D01*
X177589530Y-109249855D01*
X177589534Y-109249860D01*
X177589535Y-109249862D01*
X177650138Y-109310465D01*
X177650140Y-109310466D01*
X177650144Y-109310469D01*
X177724355Y-109353314D01*
X177724362Y-109353318D01*
X177807147Y-109375500D01*
X177807149Y-109375500D01*
X177892851Y-109375500D01*
X177892853Y-109375500D01*
X177975638Y-109353318D01*
X178049862Y-109310465D01*
X178110465Y-109249862D01*
X178153318Y-109175638D01*
X178175500Y-109092853D01*
X178175500Y-109007147D01*
X178153318Y-108924362D01*
X178117209Y-108861819D01*
X178110469Y-108850144D01*
X178110463Y-108850136D01*
X178049863Y-108789536D01*
X178049855Y-108789530D01*
X177975644Y-108746685D01*
X177975640Y-108746683D01*
X177975638Y-108746682D01*
X177892853Y-108724500D01*
X177807147Y-108724500D01*
X177724362Y-108746682D01*
X177724355Y-108746685D01*
X177650144Y-108789530D01*
X177650136Y-108789536D01*
X177589536Y-108850136D01*
X177589530Y-108850144D01*
X177546685Y-108924355D01*
X177546682Y-108924362D01*
X177524500Y-109007147D01*
X170528328Y-109007147D01*
X170536319Y-108997231D01*
X170671731Y-108861819D01*
X170733054Y-108828334D01*
X170759412Y-108825500D01*
X170792851Y-108825500D01*
X170792853Y-108825500D01*
X170875638Y-108803318D01*
X170949862Y-108760465D01*
X171010465Y-108699862D01*
X171053318Y-108625638D01*
X171075500Y-108542853D01*
X171075500Y-108457147D01*
X171053318Y-108374362D01*
X171053314Y-108374355D01*
X171010469Y-108300144D01*
X171010463Y-108300136D01*
X170949863Y-108239536D01*
X170949862Y-108239535D01*
X170937480Y-108232386D01*
X170889267Y-108181822D01*
X170876042Y-108113216D01*
X170902009Y-108048350D01*
X170937479Y-108017613D01*
X170949862Y-108010465D01*
X171010465Y-107949862D01*
X171053318Y-107875638D01*
X171075500Y-107792853D01*
X171075500Y-107707147D01*
X171053318Y-107624362D01*
X171053314Y-107624355D01*
X171010469Y-107550144D01*
X171010463Y-107550136D01*
X170949863Y-107489536D01*
X170949862Y-107489535D01*
X170937480Y-107482386D01*
X170889267Y-107431822D01*
X170876042Y-107363216D01*
X170902009Y-107298350D01*
X170937479Y-107267613D01*
X170949862Y-107260465D01*
X171010465Y-107199862D01*
X171053318Y-107125638D01*
X171075500Y-107042853D01*
X171075500Y-106957147D01*
X173174500Y-106957147D01*
X173174500Y-107042853D01*
X173193450Y-107113574D01*
X173196682Y-107125637D01*
X173196685Y-107125644D01*
X173239530Y-107199855D01*
X173239534Y-107199860D01*
X173239535Y-107199862D01*
X173300138Y-107260465D01*
X173300140Y-107260466D01*
X173300144Y-107260469D01*
X173312515Y-107267611D01*
X173374362Y-107303318D01*
X173457147Y-107325500D01*
X173457149Y-107325500D01*
X173542851Y-107325500D01*
X173542853Y-107325500D01*
X173625638Y-107303318D01*
X173699862Y-107260465D01*
X173723508Y-107236819D01*
X173784831Y-107203334D01*
X173811189Y-107200500D01*
X174688811Y-107200500D01*
X174755850Y-107220185D01*
X174776492Y-107236819D01*
X174800138Y-107260465D01*
X174800140Y-107260466D01*
X174800144Y-107260469D01*
X174812515Y-107267611D01*
X174874362Y-107303318D01*
X174957147Y-107325500D01*
X174957149Y-107325500D01*
X175042851Y-107325500D01*
X175042853Y-107325500D01*
X175125638Y-107303318D01*
X175199862Y-107260465D01*
X175260465Y-107199862D01*
X175303318Y-107125638D01*
X175325500Y-107042853D01*
X175325500Y-106957147D01*
X175303318Y-106874362D01*
X175277720Y-106830024D01*
X175260469Y-106800144D01*
X175260463Y-106800136D01*
X175199863Y-106739536D01*
X175199855Y-106739530D01*
X175125644Y-106696685D01*
X175125640Y-106696683D01*
X175125638Y-106696682D01*
X175042853Y-106674500D01*
X174957147Y-106674500D01*
X174874362Y-106696682D01*
X174874355Y-106696685D01*
X174800144Y-106739530D01*
X174800136Y-106739536D01*
X174776492Y-106763181D01*
X174715169Y-106796666D01*
X174688811Y-106799500D01*
X173811189Y-106799500D01*
X173744150Y-106779815D01*
X173723508Y-106763181D01*
X173699863Y-106739536D01*
X173699855Y-106739530D01*
X173625644Y-106696685D01*
X173625640Y-106696683D01*
X173625638Y-106696682D01*
X173542853Y-106674500D01*
X173457147Y-106674500D01*
X173374362Y-106696682D01*
X173374355Y-106696685D01*
X173300144Y-106739530D01*
X173300136Y-106739536D01*
X173239536Y-106800136D01*
X173239530Y-106800144D01*
X173196685Y-106874355D01*
X173196682Y-106874362D01*
X173174500Y-106957147D01*
X171075500Y-106957147D01*
X171053318Y-106874362D01*
X171027720Y-106830024D01*
X171010469Y-106800144D01*
X171010463Y-106800136D01*
X170949863Y-106739536D01*
X170949855Y-106739530D01*
X170875644Y-106696685D01*
X170875640Y-106696683D01*
X170875638Y-106696682D01*
X170792853Y-106674500D01*
X170707147Y-106674500D01*
X170656092Y-106688179D01*
X170586243Y-106686517D01*
X170528381Y-106647354D01*
X170500877Y-106583126D01*
X170500000Y-106568405D01*
X170500000Y-106137147D01*
X176974500Y-106137147D01*
X176974500Y-106222852D01*
X176996682Y-106305637D01*
X176996685Y-106305644D01*
X177039530Y-106379855D01*
X177039534Y-106379860D01*
X177039535Y-106379862D01*
X177100138Y-106440465D01*
X177100140Y-106440466D01*
X177100144Y-106440469D01*
X177174355Y-106483314D01*
X177174362Y-106483318D01*
X177257147Y-106505500D01*
X177257149Y-106505500D01*
X177342851Y-106505500D01*
X177342853Y-106505500D01*
X177425638Y-106483318D01*
X177499862Y-106440465D01*
X177560465Y-106379862D01*
X177603318Y-106305638D01*
X177625500Y-106222853D01*
X177625500Y-106137147D01*
X177603318Y-106054362D01*
X177603314Y-106054355D01*
X177560469Y-105980144D01*
X177560463Y-105980136D01*
X177499863Y-105919536D01*
X177499855Y-105919530D01*
X177425644Y-105876685D01*
X177425640Y-105876683D01*
X177425638Y-105876682D01*
X177342853Y-105854500D01*
X177257147Y-105854500D01*
X177174362Y-105876682D01*
X177174355Y-105876685D01*
X177100144Y-105919530D01*
X177100136Y-105919536D01*
X177039536Y-105980136D01*
X177039530Y-105980144D01*
X176996685Y-106054355D01*
X176996682Y-106054362D01*
X176974500Y-106137147D01*
X170500000Y-106137147D01*
X170500000Y-105302877D01*
X171948434Y-105302877D01*
X171948434Y-105388582D01*
X171970616Y-105471367D01*
X171970619Y-105471374D01*
X172013464Y-105545585D01*
X172013468Y-105545590D01*
X172013469Y-105545592D01*
X172074072Y-105606195D01*
X172074074Y-105606196D01*
X172074078Y-105606199D01*
X172148289Y-105649044D01*
X172148296Y-105649048D01*
X172231081Y-105671230D01*
X172231083Y-105671230D01*
X172316785Y-105671230D01*
X172316787Y-105671230D01*
X172399572Y-105649048D01*
X172473796Y-105606195D01*
X172534399Y-105545592D01*
X172577252Y-105471368D01*
X172599434Y-105388583D01*
X172599434Y-105302877D01*
X172577252Y-105220092D01*
X172577248Y-105220085D01*
X172534403Y-105145874D01*
X172534397Y-105145866D01*
X172473797Y-105085266D01*
X172473789Y-105085260D01*
X172399578Y-105042415D01*
X172399574Y-105042413D01*
X172399572Y-105042412D01*
X172316787Y-105020230D01*
X172231081Y-105020230D01*
X172148296Y-105042412D01*
X172148289Y-105042415D01*
X172074078Y-105085260D01*
X172074070Y-105085266D01*
X172013470Y-105145866D01*
X172013464Y-105145874D01*
X171970619Y-105220085D01*
X171970616Y-105220092D01*
X171948434Y-105302877D01*
X170500000Y-105302877D01*
X170500000Y-102508125D01*
X170501061Y-102491940D01*
X170514906Y-102386776D01*
X170514906Y-102386775D01*
X170523284Y-102355508D01*
X170560740Y-102265081D01*
X170576923Y-102237050D01*
X170636513Y-102159392D01*
X170659392Y-102136513D01*
X170737050Y-102076923D01*
X170765079Y-102060740D01*
X170855509Y-102023283D01*
X170886775Y-102014906D01*
X170991941Y-102001061D01*
X171008126Y-102000000D01*
X180491874Y-102000000D01*
X180508059Y-102001061D01*
G37*
%TD.AperFunction*%
%TD*%
M02*
