%TF.GenerationSoftware,KiCad,Pcbnew,9.0.6*%
%TF.CreationDate,2026-03-30T20:06:19-07:00*%
%TF.ProjectId,Hex Lattice,48657820-4c61-4747-9469-63652e6b6963,rev?*%
%TF.SameCoordinates,Original*%
%TF.FileFunction,Copper,L1,Top*%
%TF.FilePolarity,Positive*%
%FSLAX46Y46*%
G04 Gerber Fmt 4.6, Leading zero omitted, Abs format (unit mm)*
G04 Created by KiCad (PCBNEW 9.0.6) date 2026-03-30 20:06:19*
%MOMM*%
%LPD*%
G01*
G04 APERTURE LIST*
G04 Aperture macros list*
%AMRoundRect*
0 Rectangle with rounded corners*
0 $1 Rounding radius*
0 $2 $3 $4 $5 $6 $7 $8 $9 X,Y pos of 4 corners*
0 Add a 4 corners polygon primitive as box body*
4,1,4,$2,$3,$4,$5,$6,$7,$8,$9,$2,$3,0*
0 Add four circle primitives for the rounded corners*
1,1,$1+$1,$2,$3*
1,1,$1+$1,$4,$5*
1,1,$1+$1,$6,$7*
1,1,$1+$1,$8,$9*
0 Add four rect primitives between the rounded corners*
20,1,$1+$1,$2,$3,$4,$5,0*
20,1,$1+$1,$4,$5,$6,$7,0*
20,1,$1+$1,$6,$7,$8,$9,0*
20,1,$1+$1,$8,$9,$2,$3,0*%
%AMRotRect*
0 Rectangle, with rotation*
0 The origin of the aperture is its center*
0 $1 length*
0 $2 width*
0 $3 Rotation angle, in degrees counterclockwise*
0 Add horizontal line*
21,1,$1,$2,0,0,$3*%
G04 Aperture macros list end*
%TA.AperFunction,EtchedComponent*%
%ADD10C,0.000000*%
%TD*%
%TA.AperFunction,ComponentPad*%
%ADD11C,1.200000*%
%TD*%
%TA.AperFunction,SMDPad,CuDef*%
%ADD12RoundRect,0.250000X-0.475000X0.250000X-0.475000X-0.250000X0.475000X-0.250000X0.475000X0.250000X0*%
%TD*%
%TA.AperFunction,SMDPad,CuDef*%
%ADD13RoundRect,0.100000X0.021213X0.162635X-0.162635X-0.021213X-0.021213X-0.162635X0.162635X0.021213X0*%
%TD*%
%TA.AperFunction,SMDPad,CuDef*%
%ADD14RoundRect,0.100000X0.130000X0.100000X-0.130000X0.100000X-0.130000X-0.100000X0.130000X-0.100000X0*%
%TD*%
%TA.AperFunction,SMDPad,CuDef*%
%ADD15RoundRect,0.100000X-0.130000X-0.100000X0.130000X-0.100000X0.130000X0.100000X-0.130000X0.100000X0*%
%TD*%
%TA.AperFunction,SMDPad,CuDef*%
%ADD16RoundRect,0.100000X0.100000X-0.130000X0.100000X0.130000X-0.100000X0.130000X-0.100000X-0.130000X0*%
%TD*%
%TA.AperFunction,SMDPad,CuDef*%
%ADD17RoundRect,0.100000X-0.100000X0.130000X-0.100000X-0.130000X0.100000X-0.130000X0.100000X0.130000X0*%
%TD*%
%TA.AperFunction,ComponentPad*%
%ADD18C,1.905000*%
%TD*%
%TA.AperFunction,HeatsinkPad*%
%ADD19C,0.500000*%
%TD*%
%TA.AperFunction,HeatsinkPad*%
%ADD20R,5.900000X5.900000*%
%TD*%
%TA.AperFunction,SMDPad,CuDef*%
%ADD21RoundRect,0.062500X0.375000X-0.062500X0.375000X0.062500X-0.375000X0.062500X-0.375000X-0.062500X0*%
%TD*%
%TA.AperFunction,SMDPad,CuDef*%
%ADD22RoundRect,0.062500X0.062500X-0.375000X0.062500X0.375000X-0.062500X0.375000X-0.062500X-0.375000X0*%
%TD*%
%TA.AperFunction,SMDPad,CuDef*%
%ADD23RoundRect,0.225000X-0.250000X0.225000X-0.250000X-0.225000X0.250000X-0.225000X0.250000X0.225000X0*%
%TD*%
%TA.AperFunction,SMDPad,CuDef*%
%ADD24RoundRect,0.135000X0.135000X0.185000X-0.135000X0.185000X-0.135000X-0.185000X0.135000X-0.185000X0*%
%TD*%
%TA.AperFunction,SMDPad,CuDef*%
%ADD25RoundRect,0.140000X0.021213X-0.219203X0.219203X-0.021213X-0.021213X0.219203X-0.219203X0.021213X0*%
%TD*%
%TA.AperFunction,SMDPad,CuDef*%
%ADD26C,2.000000*%
%TD*%
%TA.AperFunction,SMDPad,CuDef*%
%ADD27RoundRect,0.250000X0.475000X-0.250000X0.475000X0.250000X-0.475000X0.250000X-0.475000X-0.250000X0*%
%TD*%
%TA.AperFunction,SMDPad,CuDef*%
%ADD28RoundRect,0.250000X0.536362X0.020994X0.286362X0.454006X-0.536362X-0.020994X-0.286362X-0.454006X0*%
%TD*%
%TA.AperFunction,SMDPad,CuDef*%
%ADD29C,3.000000*%
%TD*%
%TA.AperFunction,SMDPad,CuDef*%
%ADD30R,3.500000X3.000000*%
%TD*%
%TA.AperFunction,SMDPad,CuDef*%
%ADD31RoundRect,0.250000X0.250000X0.475000X-0.250000X0.475000X-0.250000X-0.475000X0.250000X-0.475000X0*%
%TD*%
%TA.AperFunction,SMDPad,CuDef*%
%ADD32C,0.500000*%
%TD*%
%TA.AperFunction,SMDPad,CuDef*%
%ADD33RoundRect,0.250000X0.325000X0.650000X-0.325000X0.650000X-0.325000X-0.650000X0.325000X-0.650000X0*%
%TD*%
%TA.AperFunction,SMDPad,CuDef*%
%ADD34RoundRect,0.250000X-0.536362X-0.020994X-0.286362X-0.454006X0.536362X0.020994X0.286362X0.454006X0*%
%TD*%
%TA.AperFunction,SMDPad,CuDef*%
%ADD35R,0.200000X0.875000*%
%TD*%
%TA.AperFunction,SMDPad,CuDef*%
%ADD36R,0.875000X0.200000*%
%TD*%
%TA.AperFunction,SMDPad,CuDef*%
%ADD37R,3.400000X3.400000*%
%TD*%
%TA.AperFunction,ComponentPad*%
%ADD38C,2.010000*%
%TD*%
%TA.AperFunction,SMDPad,CuDef*%
%ADD39RoundRect,0.250000X0.450000X0.350000X-0.450000X0.350000X-0.450000X-0.350000X0.450000X-0.350000X0*%
%TD*%
%TA.AperFunction,SMDPad,CuDef*%
%ADD40R,1.580000X0.800000*%
%TD*%
%TA.AperFunction,SMDPad,CuDef*%
%ADD41RoundRect,0.147500X0.172500X-0.147500X0.172500X0.147500X-0.172500X0.147500X-0.172500X-0.147500X0*%
%TD*%
%TA.AperFunction,ComponentPad*%
%ADD42RotRect,1.700000X1.700000X30.000000*%
%TD*%
%TA.AperFunction,ComponentPad*%
%ADD43C,1.700000*%
%TD*%
%TA.AperFunction,SMDPad,CuDef*%
%ADD44RoundRect,0.218750X-0.218750X-0.256250X0.218750X-0.256250X0.218750X0.256250X-0.218750X0.256250X0*%
%TD*%
%TA.AperFunction,SMDPad,CuDef*%
%ADD45RoundRect,0.135000X-0.185000X0.135000X-0.185000X-0.135000X0.185000X-0.135000X0.185000X0.135000X0*%
%TD*%
%TA.AperFunction,SMDPad,CuDef*%
%ADD46RoundRect,0.250000X0.650000X-0.325000X0.650000X0.325000X-0.650000X0.325000X-0.650000X-0.325000X0*%
%TD*%
%TA.AperFunction,SMDPad,CuDef*%
%ADD47RoundRect,0.135000X0.185000X-0.135000X0.185000X0.135000X-0.185000X0.135000X-0.185000X-0.135000X0*%
%TD*%
%TA.AperFunction,SMDPad,CuDef*%
%ADD48RoundRect,0.225000X-0.225000X-0.250000X0.225000X-0.250000X0.225000X0.250000X-0.225000X0.250000X0*%
%TD*%
%TA.AperFunction,SMDPad,CuDef*%
%ADD49R,1.200000X1.800000*%
%TD*%
%TA.AperFunction,SMDPad,CuDef*%
%ADD50RoundRect,0.250000X-0.550000X1.050000X-0.550000X-1.050000X0.550000X-1.050000X0.550000X1.050000X0*%
%TD*%
%TA.AperFunction,SMDPad,CuDef*%
%ADD51RoundRect,0.250000X1.000000X-1.950000X1.000000X1.950000X-1.000000X1.950000X-1.000000X-1.950000X0*%
%TD*%
%TA.AperFunction,SMDPad,CuDef*%
%ADD52RoundRect,0.218750X-0.256250X0.218750X-0.256250X-0.218750X0.256250X-0.218750X0.256250X0.218750X0*%
%TD*%
%TA.AperFunction,ComponentPad*%
%ADD53R,1.500000X1.500000*%
%TD*%
%TA.AperFunction,ComponentPad*%
%ADD54C,1.500000*%
%TD*%
%TA.AperFunction,ComponentPad*%
%ADD55C,1.800000*%
%TD*%
%TA.AperFunction,ComponentPad*%
%ADD56C,2.200000*%
%TD*%
%TA.AperFunction,SMDPad,CuDef*%
%ADD57R,0.600000X0.250000*%
%TD*%
%TA.AperFunction,SMDPad,CuDef*%
%ADD58R,0.250000X0.600000*%
%TD*%
%TA.AperFunction,SMDPad,CuDef*%
%ADD59R,0.250000X1.700000*%
%TD*%
%TA.AperFunction,SMDPad,CuDef*%
%ADD60R,0.400000X2.100000*%
%TD*%
%TA.AperFunction,SMDPad,CuDef*%
%ADD61R,0.800000X0.250000*%
%TD*%
%TA.AperFunction,SMDPad,CuDef*%
%ADD62R,1.600000X1.000000*%
%TD*%
%TA.AperFunction,ComponentPad*%
%ADD63O,1.200000X1.800000*%
%TD*%
%TA.AperFunction,ComponentPad*%
%ADD64O,1.000000X0.800000*%
%TD*%
%TA.AperFunction,ComponentPad*%
%ADD65C,0.800000*%
%TD*%
%TA.AperFunction,ComponentPad*%
%ADD66R,1.700000X1.700000*%
%TD*%
%TA.AperFunction,ComponentPad*%
%ADD67C,1.408000*%
%TD*%
%TA.AperFunction,ComponentPad*%
%ADD68C,1.530000*%
%TD*%
%TA.AperFunction,ComponentPad*%
%ADD69C,2.400000*%
%TD*%
%TA.AperFunction,SMDPad,CuDef*%
%ADD70C,0.185000*%
%TD*%
%TA.AperFunction,SMDPad,CuDef*%
%ADD71R,0.800000X0.300000*%
%TD*%
%TA.AperFunction,SMDPad,CuDef*%
%ADD72R,0.300000X0.800000*%
%TD*%
%TA.AperFunction,SMDPad,CuDef*%
%ADD73R,1.500000X1.000000*%
%TD*%
%TA.AperFunction,SMDPad,CuDef*%
%ADD74RoundRect,0.250000X-0.550000X1.250000X-0.550000X-1.250000X0.550000X-1.250000X0.550000X1.250000X0*%
%TD*%
%TA.AperFunction,ComponentPad*%
%ADD75RoundRect,0.250000X-0.550000X0.550000X-0.550000X-0.550000X0.550000X-0.550000X0.550000X0.550000X0*%
%TD*%
%TA.AperFunction,ComponentPad*%
%ADD76C,1.600000*%
%TD*%
%TA.AperFunction,SMDPad,CuDef*%
%ADD77R,0.600000X0.730000*%
%TD*%
%TA.AperFunction,SMDPad,CuDef*%
%ADD78R,1.400000X0.500000*%
%TD*%
%TA.AperFunction,SMDPad,CuDef*%
%ADD79R,2.000000X1.200000*%
%TD*%
%TA.AperFunction,ViaPad*%
%ADD80C,0.350000*%
%TD*%
%TA.AperFunction,ViaPad*%
%ADD81C,0.750000*%
%TD*%
%TA.AperFunction,Conductor*%
%ADD82C,0.200000*%
%TD*%
%TA.AperFunction,Conductor*%
%ADD83C,0.500000*%
%TD*%
%TA.AperFunction,Conductor*%
%ADD84C,0.300000*%
%TD*%
%TA.AperFunction,Conductor*%
%ADD85C,0.150000*%
%TD*%
%TA.AperFunction,Conductor*%
%ADD86C,0.750000*%
%TD*%
G04 APERTURE END LIST*
D10*
%TA.AperFunction,EtchedComponent*%
%TO.C,NT1*%
G36*
X190417557Y-149175000D02*
G01*
X189917557Y-149175000D01*
X189917557Y-148175000D01*
X190417557Y-148175000D01*
X190417557Y-149175000D01*
G37*
%TD.AperFunction*%
%TD*%
D11*
%TO.P,J7,1,Pin_1*%
%TO.N,/UART_RX*%
X159250000Y-125749500D03*
%TO.P,J7,2,Pin_2*%
%TO.N,/UART_TX*%
X159250000Y-127248000D03*
%TO.P,J7,3,Pin_3*%
%TO.N,+3V3*%
X159250000Y-128749500D03*
%TO.P,J7,4,Pin_4*%
%TO.N,GND*%
X159250000Y-130250500D03*
%TD*%
D12*
%TO.P,C37,1*%
%TO.N,+3V3*%
X156500000Y-129050000D03*
%TO.P,C37,2*%
%TO.N,GND*%
X156500000Y-130950000D03*
%TD*%
D13*
%TO.P,C2,2*%
%TO.N,GND*%
X178873726Y-100376274D03*
%TO.P,C2,1*%
%TO.N,+3V3*%
X179326274Y-99923726D03*
%TD*%
D14*
%TO.P,C3,2*%
%TO.N,GND*%
X174280000Y-100800000D03*
%TO.P,C3,1*%
%TO.N,+3V3*%
X174920000Y-100800000D03*
%TD*%
D15*
%TO.P,C4,2*%
%TO.N,GND*%
X180320000Y-95000000D03*
%TO.P,C4,1*%
%TO.N,+3V3*%
X179680000Y-95000000D03*
%TD*%
D16*
%TO.P,C5,2*%
%TO.N,GND*%
X178200000Y-107780000D03*
%TO.P,C5,1*%
%TO.N,+3V3*%
X178200000Y-108420000D03*
%TD*%
%TO.P,C6,2*%
%TO.N,GND*%
X177500000Y-89980000D03*
%TO.P,C6,1*%
%TO.N,+3V3*%
X177500000Y-90620000D03*
%TD*%
D17*
%TO.P,C7,2*%
%TO.N,GND*%
X166600000Y-98600000D03*
%TO.P,C7,1*%
%TO.N,/VDD33BIAS*%
X166600000Y-97960000D03*
%TD*%
%TO.P,C8,2*%
%TO.N,GND*%
X165800000Y-98600000D03*
%TO.P,C8,1*%
%TO.N,/VDD33BIAS*%
X165800000Y-97960000D03*
%TD*%
D14*
%TO.P,C9,2*%
%TO.N,GND*%
X168680000Y-97200000D03*
%TO.P,C9,1*%
%TO.N,/VDD33A2*%
X169320000Y-97200000D03*
%TD*%
%TO.P,C10,2*%
%TO.N,GND*%
X168680000Y-99500000D03*
%TO.P,C10,1*%
%TO.N,/VDD33A2*%
X169320000Y-99500000D03*
%TD*%
%TO.P,C11,2*%
%TO.N,GND*%
X168760000Y-91500000D03*
%TO.P,C11,1*%
%TO.N,/VDD33A1*%
X169400000Y-91500000D03*
%TD*%
%TO.P,C12,2*%
%TO.N,GND*%
X168680000Y-94500000D03*
%TO.P,C12,1*%
%TO.N,/VDD33A1*%
X169320000Y-94500000D03*
%TD*%
D15*
%TO.P,C13,2*%
%TO.N,GND*%
X172040000Y-90700000D03*
%TO.P,C13,1*%
%TO.N,/VDD18PLL*%
X171400000Y-90700000D03*
%TD*%
D17*
%TO.P,C14,2*%
%TO.N,GND*%
X178250000Y-106820000D03*
%TO.P,C14,1*%
%TO.N,+3V3*%
X178250000Y-106180000D03*
%TD*%
D14*
%TO.P,C16,2*%
%TO.N,GND*%
X168680000Y-95300000D03*
%TO.P,C16,1*%
%TO.N,/VDD18TX*%
X169320000Y-95300000D03*
%TD*%
%TO.P,C17,2*%
%TO.N,GND*%
X168680000Y-96400000D03*
%TO.P,C17,1*%
%TO.N,/VDD18TX*%
X169320000Y-96400000D03*
%TD*%
D16*
%TO.P,C19,2*%
%TO.N,GND*%
X176700000Y-89980000D03*
%TO.P,C19,1*%
%TO.N,+1V8*%
X176700000Y-90620000D03*
%TD*%
D15*
%TO.P,C20,2*%
%TO.N,GND*%
X176420000Y-100800000D03*
%TO.P,C20,1*%
%TO.N,+1V8*%
X175780000Y-100800000D03*
%TD*%
D16*
%TO.P,C22,2*%
%TO.N,GND*%
X175900000Y-90080000D03*
%TO.P,C22,1*%
%TO.N,+3V3*%
X175900000Y-90720000D03*
%TD*%
%TO.P,C42,2*%
%TO.N,GND*%
X175100000Y-90080000D03*
%TO.P,C42,1*%
%TO.N,Net-(U2-XI)*%
X175100000Y-90720000D03*
%TD*%
D15*
%TO.P,C43,2*%
%TO.N,GND*%
X174070000Y-87657500D03*
%TO.P,C43,1*%
%TO.N,Net-(U2-XO)*%
X173430000Y-87657500D03*
%TD*%
D14*
%TO.P,C44,2*%
%TO.N,GND*%
X165130000Y-107300000D03*
%TO.P,C44,1*%
%TO.N,Net-(U3-XIN)*%
X165770000Y-107300000D03*
%TD*%
D15*
%TO.P,C45,2*%
%TO.N,GND*%
X166520000Y-111897500D03*
%TO.P,C45,1*%
%TO.N,Net-(U3-XOUT)*%
X165880000Y-111897500D03*
%TD*%
D17*
%TO.P,C46,2*%
%TO.N,GND*%
X168800000Y-110620000D03*
%TO.P,C46,1*%
%TO.N,+1V1*%
X168800000Y-109980000D03*
%TD*%
D15*
%TO.P,C48,2*%
%TO.N,GND*%
X174570000Y-114750000D03*
%TO.P,C48,1*%
%TO.N,+1V1*%
X173930000Y-114750000D03*
%TD*%
D17*
%TO.P,C49,2*%
%TO.N,GND*%
X175800000Y-115220000D03*
%TO.P,C49,1*%
%TO.N,+3V3*%
X175800000Y-114580000D03*
%TD*%
D16*
%TO.P,C50,2*%
%TO.N,GND*%
X168800000Y-107880000D03*
%TO.P,C50,1*%
%TO.N,+3V3*%
X168800000Y-108520000D03*
%TD*%
%TO.P,C51,2*%
%TO.N,GND*%
X168700000Y-112080000D03*
%TO.P,C51,1*%
%TO.N,+3V3*%
X168700000Y-112720000D03*
%TD*%
D14*
%TO.P,C58,2*%
%TO.N,Net-(U11-SW)*%
X184566132Y-145258367D03*
%TO.P,C58,1*%
%TO.N,Net-(U11-BOOT)*%
X185206132Y-145258367D03*
%TD*%
D15*
%TO.P,R2,2*%
%TO.N,VDDA*%
X177220000Y-115950000D03*
%TO.P,R2,1*%
%TO.N,+3V3*%
X176580000Y-115950000D03*
%TD*%
D17*
%TO.P,R3,2*%
%TO.N,+3V3*%
X167700000Y-112720000D03*
%TO.P,R3,1*%
%TO.N,Net-(U3-RUN)*%
X167700000Y-112080000D03*
%TD*%
D15*
%TO.P,R4,2*%
%TO.N,/VDD33A1*%
X169320000Y-92200000D03*
%TO.P,R4,1*%
%TO.N,/P1T+*%
X168680000Y-92200000D03*
%TD*%
D14*
%TO.P,R5,2*%
%TO.N,Net-(U3-USB_DM)*%
X180580000Y-109300000D03*
%TO.P,R5,1*%
%TO.N,/USB_DM*%
X181220000Y-109300000D03*
%TD*%
D15*
%TO.P,R6,2*%
%TO.N,/USB_DP*%
X181220000Y-108500000D03*
%TO.P,R6,1*%
%TO.N,Net-(U3-USB_DP)*%
X180580000Y-108500000D03*
%TD*%
%TO.P,R7,2*%
%TO.N,/ETH_MDIO*%
X180120000Y-97500000D03*
%TO.P,R7,1*%
%TO.N,+3V3*%
X179480000Y-97500000D03*
%TD*%
D14*
%TO.P,R9,2*%
%TO.N,Net-(J1-RXC)*%
X154780000Y-81700000D03*
%TO.P,R9,1*%
%TO.N,+3V3*%
X155420000Y-81700000D03*
%TD*%
D15*
%TO.P,R10,2*%
%TO.N,Net-(J3-C-Pad4)*%
X160300000Y-155800000D03*
%TO.P,R10,1*%
%TO.N,+3V3*%
X159660000Y-155800000D03*
%TD*%
%TO.P,R11,2*%
%TO.N,/VDD33A1*%
X169020000Y-90700000D03*
%TO.P,R11,1*%
%TO.N,/P1T-*%
X168380000Y-90700000D03*
%TD*%
D17*
%TO.P,R12,2*%
%TO.N,/ETH1_GRN_N*%
X163000000Y-96570000D03*
%TO.P,R12,1*%
%TO.N,/SW_LED1*%
X163000000Y-95930000D03*
%TD*%
%TO.P,R13,2*%
%TO.N,/ETH1_YLW_N*%
X162250000Y-96570000D03*
%TO.P,R13,1*%
%TO.N,/SW_LED0*%
X162250000Y-95930000D03*
%TD*%
D16*
%TO.P,R14,2*%
%TO.N,+3V3*%
X162250000Y-94430000D03*
%TO.P,R14,1*%
%TO.N,/SW_LED0*%
X162250000Y-95070000D03*
%TD*%
D14*
%TO.P,R20,2*%
%TO.N,Net-(U2-XO)*%
X172930000Y-90750000D03*
%TO.P,R20,1*%
%TO.N,Net-(U2-XI)*%
X173570000Y-90750000D03*
%TD*%
D17*
%TO.P,R23,2*%
%TO.N,/SW_SDA*%
X168250000Y-88570000D03*
%TO.P,R23,1*%
%TO.N,+3V3*%
X168250000Y-87930000D03*
%TD*%
D16*
%TO.P,R24,2*%
%TO.N,+3V3*%
X163000000Y-94430000D03*
%TO.P,R24,1*%
%TO.N,/SW_LED1*%
X163000000Y-95070000D03*
%TD*%
D17*
%TO.P,R25,2*%
%TO.N,/SW_LED2*%
X169800000Y-84320000D03*
%TO.P,R25,1*%
%TO.N,Net-(D2-A)*%
X169800000Y-83680000D03*
%TD*%
%TO.P,R26,2*%
%TO.N,/SW_LED5*%
X170600000Y-84320000D03*
%TO.P,R26,1*%
%TO.N,Net-(D3-A)*%
X170600000Y-83680000D03*
%TD*%
D16*
%TO.P,R27,2*%
%TO.N,/SW_LED2*%
X169800000Y-85180000D03*
%TO.P,R27,1*%
%TO.N,GND*%
X169800000Y-85820000D03*
%TD*%
%TO.P,R28,2*%
%TO.N,/SW_LED5*%
X170600000Y-85180000D03*
%TO.P,R28,1*%
%TO.N,GND*%
X170600000Y-85820000D03*
%TD*%
%TO.P,R29,2*%
%TO.N,/SW_LED3*%
X181000000Y-140680000D03*
%TO.P,R29,1*%
%TO.N,/ETH2_YLW_N*%
X181000000Y-141320000D03*
%TD*%
D17*
%TO.P,R30,2*%
%TO.N,/SW_LED4*%
X181000000Y-136570000D03*
%TO.P,R30,1*%
%TO.N,/ETH2_GRN_P*%
X181000000Y-135930000D03*
%TD*%
D16*
%TO.P,R31,2*%
%TO.N,/SW_LED4*%
X181000000Y-137430000D03*
%TO.P,R31,1*%
%TO.N,GND*%
X181000000Y-138070000D03*
%TD*%
D17*
%TO.P,R32,2*%
%TO.N,/VDD33A1*%
X167900000Y-93870000D03*
%TO.P,R32,1*%
%TO.N,/P1R+*%
X167900000Y-93230000D03*
%TD*%
D16*
%TO.P,R33,2*%
%TO.N,+3V3*%
X181000000Y-139180000D03*
%TO.P,R33,1*%
%TO.N,/SW_LED3*%
X181000000Y-139820000D03*
%TD*%
D15*
%TO.P,R34,2*%
%TO.N,/VDD33A1*%
X169320000Y-93000000D03*
%TO.P,R34,1*%
%TO.N,/P1R-*%
X168680000Y-93000000D03*
%TD*%
D14*
%TO.P,R35,2*%
%TO.N,/VDD33A2*%
X168680000Y-100300000D03*
%TO.P,R35,1*%
%TO.N,/P2T+*%
X169320000Y-100300000D03*
%TD*%
D15*
%TO.P,R36,2*%
%TO.N,/VDD33A2*%
X170820000Y-100800000D03*
%TO.P,R36,1*%
%TO.N,/P2T-*%
X170180000Y-100800000D03*
%TD*%
D14*
%TO.P,R37,2*%
%TO.N,/VDD33A2*%
X168680000Y-97900000D03*
%TO.P,R37,1*%
%TO.N,/P2R+*%
X169320000Y-97900000D03*
%TD*%
D17*
%TO.P,R38,2*%
%TO.N,/VDD33A2*%
X167900000Y-99620000D03*
%TO.P,R38,1*%
%TO.N,/P2R-*%
X167900000Y-98980000D03*
%TD*%
D16*
%TO.P,R42,2*%
%TO.N,+3V3*%
X169000000Y-87930000D03*
%TO.P,R42,1*%
%TO.N,/SW_SCL*%
X169000000Y-88570000D03*
%TD*%
D15*
%TO.P,R43,2*%
%TO.N,/SCL1*%
X162082500Y-132750000D03*
%TO.P,R43,1*%
%TO.N,+3V3*%
X161442500Y-132750000D03*
%TD*%
%TO.P,R45,2*%
%TO.N,/SDA1*%
X162070000Y-133500000D03*
%TO.P,R45,1*%
%TO.N,+3V3*%
X161430000Y-133500000D03*
%TD*%
D18*
%TO.P,U1,10,VOUT-*%
%TO.N,GND*%
X132475000Y-153770000D03*
%TO.P,U1,9,ADJ*%
%TO.N,unconnected-(U1-ADJ-Pad9)*%
X132475000Y-151230000D03*
%TO.P,U1,8,VOUT+*%
%TO.N,+24V*%
X132475000Y-148690000D03*
%TO.P,U1,7,VOUT-*%
%TO.N,GND*%
X132475000Y-146150000D03*
%TO.P,U1,6*%
%TO.N,N/C*%
X132475000Y-115670000D03*
%TO.P,U1,5*%
X132475000Y-113130000D03*
%TO.P,U1,4*%
X132475000Y-110590000D03*
%TO.P,U1,3,TYP2_DET*%
%TO.N,Net-(U1-TYP2_DET)*%
X132475000Y-108050000D03*
%TO.P,U1,2,VIN-*%
%TO.N,/POE_IN_N*%
X132475000Y-105510000D03*
%TO.P,U1,1,VIN+*%
%TO.N,/POE_IN_P*%
X132475000Y-102970000D03*
%TD*%
D19*
%TO.P,U2,57,VSS*%
%TO.N,GND*%
X175750000Y-93049999D03*
X173050000Y-93049999D03*
X171700000Y-93049999D03*
X177100001Y-93050000D03*
X174400000Y-93050000D03*
X177100001Y-94400000D03*
X175750000Y-94400000D03*
X174400000Y-94400000D03*
X173050000Y-94400000D03*
X171699999Y-94400000D03*
X177100000Y-95750000D03*
X175750000Y-95750000D03*
D20*
X174400000Y-95750000D03*
D19*
X174400000Y-95750000D03*
X173050000Y-95750000D03*
X171700000Y-95750000D03*
X177100001Y-97100000D03*
X175750000Y-97100000D03*
X174400000Y-97100000D03*
X173050000Y-97100000D03*
X171699999Y-97100000D03*
X174400000Y-98450000D03*
X171699999Y-98450000D03*
X177100000Y-98450001D03*
X175750000Y-98450001D03*
X173050000Y-98450001D03*
D21*
%TO.P,U2,56,TXP2*%
%TO.N,/P2T+*%
X170462500Y-99000000D03*
%TO.P,U2,55,VDD33A2*%
%TO.N,/VDD33A2*%
X170462500Y-98500000D03*
%TO.P,U2,54,RXN2*%
%TO.N,/P2R-*%
X170462500Y-98000000D03*
%TO.P,U2,53,RXP2*%
%TO.N,/P2R+*%
X170462500Y-97500000D03*
%TO.P,U2,52,VDD33A2*%
%TO.N,/VDD33A2*%
X170462500Y-97000000D03*
%TO.P,U2,51,VDD18TX2*%
%TO.N,/VDD18TX*%
X170462500Y-96500000D03*
%TO.P,U2,50,VDD33BIAS*%
%TO.N,/VDD33BIAS*%
X170462500Y-96000000D03*
%TO.P,U2,49,EXRES*%
%TO.N,Net-(U2-EXRES)*%
X170462500Y-95500000D03*
%TO.P,U2,48,VDD18TX1*%
%TO.N,/VDD18TX*%
X170462500Y-95000000D03*
%TO.P,U2,47,VDD33A1*%
%TO.N,/VDD33A1*%
X170462500Y-94500000D03*
%TO.P,U2,46,RXP1*%
%TO.N,/P1R+*%
X170462500Y-94000000D03*
%TO.P,U2,45,RXN1*%
%TO.N,/P1R-*%
X170462500Y-93500000D03*
%TO.P,U2,44,VDD33A1*%
%TO.N,/VDD33A1*%
X170462500Y-93000000D03*
%TO.P,U2,43,TXP1*%
%TO.N,/P1T+*%
X170462500Y-92500000D03*
D22*
%TO.P,U2,42,TXN1*%
%TO.N,/P1T-*%
X171150000Y-91812500D03*
%TO.P,U2,41,VDD18PLL*%
%TO.N,/VDD18PLL*%
X171650000Y-91812500D03*
%TO.P,U2,40,XO*%
%TO.N,Net-(U2-XO)*%
X172150000Y-91812500D03*
%TO.P,U2,39,XI*%
%TO.N,Net-(U2-XI)*%
X172650000Y-91812500D03*
%TO.P,U2,38,IRQ*%
%TO.N,unconnected-(U2-IRQ-Pad38)*%
X173150000Y-91812500D03*
%TO.P,U2,37,~{RST}*%
%TO.N,/SW_RST*%
X173650000Y-91812500D03*
%TO.P,U2,36,EE_SCL/SCL*%
%TO.N,/SW_SCL*%
X174150000Y-91812500D03*
%TO.P,U2,35,EE_SDA/SDA*%
%TO.N,/SW_SDA*%
X174650000Y-91812500D03*
%TO.P,U2,34,VSS*%
%TO.N,GND*%
X175150000Y-91812500D03*
%TO.P,U2,33,VDD33IO*%
%TO.N,+3V3*%
X175650000Y-91812500D03*
%TO.P,U2,32,VDD33IO*%
X176150000Y-91812500D03*
%TO.P,U2,31,VDD18CORE*%
%TO.N,+1V8*%
X176650000Y-91812500D03*
%TO.P,U2,30,VDD33IO*%
%TO.N,+3V3*%
X177150000Y-91812500D03*
%TO.P,U2,29,LED0/GPIO0/~{AMDIX1}*%
%TO.N,/SW_LED0*%
X177650000Y-91812500D03*
D21*
%TO.P,U2,28,LED1/GPIO1/~{AMDIX2}*%
%TO.N,/SW_LED1*%
X178337500Y-92500000D03*
%TO.P,U2,27,LED2/GPIO2/~{E2PSIZE}*%
%TO.N,/SW_LED2*%
X178337500Y-93000000D03*
%TO.P,U2,26,LED3/GPIO3/~{MNGT0}*%
%TO.N,/SW_LED3*%
X178337500Y-93500000D03*
%TO.P,U2,25,LED4/GPIO4/~{MNGT1}*%
%TO.N,/SW_LED4*%
X178337500Y-94000000D03*
%TO.P,U2,24,LED5/GPIO5/~{PHYADDR}*%
%TO.N,/SW_LED5*%
X178337500Y-94500000D03*
%TO.P,U2,23,VDD33IO*%
%TO.N,+3V3*%
X178337500Y-95000000D03*
%TO.P,U2,22,MDC*%
%TO.N,/ETH_MDC*%
X178337500Y-95500000D03*
%TO.P,U2,21,MDIO*%
%TO.N,/ETH_MDIO*%
X178337500Y-96000000D03*
%TO.P,U2,20,P0_DUPLEX*%
%TO.N,GND*%
X178337500Y-96500000D03*
%TO.P,U2,19,P0_CRS*%
%TO.N,unconnected-(U2-P0_CRS-Pad19)*%
X178337500Y-97000000D03*
%TO.P,U2,18,P0_COL*%
%TO.N,unconnected-(U2-P0_COL-Pad18)*%
X178337500Y-97500000D03*
%TO.P,U2,17,P0_OUTCLK*%
%TO.N,/ETH_CLK*%
X178337500Y-98000000D03*
%TO.P,U2,16,P0_OUTDV*%
%TO.N,/ETH_CRS*%
X178337500Y-98500000D03*
%TO.P,U2,15,VDD33IO*%
%TO.N,+3V3*%
X178337500Y-99000000D03*
D22*
%TO.P,U2,14,P0_OUTD0/~{P0_MODE0}*%
%TO.N,/ETH_RXD0*%
X177650000Y-99687500D03*
%TO.P,U2,13,P0_OUTD1/~{P0_MODE1}*%
%TO.N,/ETH_RXD1*%
X177150000Y-99687500D03*
%TO.P,U2,12,P0_OUTD2/~{P0_MODE2}*%
%TO.N,+3V3*%
X176650000Y-99687500D03*
%TO.P,U2,11,P0_OUTD3/~{DUPLEX_POL_0}*%
%TO.N,GND*%
X176150000Y-99687500D03*
%TO.P,U2,10,VDD18CORE*%
%TO.N,+1V8*%
X175650000Y-99687500D03*
%TO.P,U2,9,VDD33IO*%
%TO.N,+3V3*%
X175150000Y-99687500D03*
%TO.P,U2,8,P0_INCLK*%
%TO.N,unconnected-(U2-P0_INCLK-Pad8)*%
X174650000Y-99687500D03*
%TO.P,U2,7,P0_INER*%
%TO.N,unconnected-(U2-P0_INER-Pad7)*%
X174150000Y-99687500D03*
%TO.P,U2,6,P0_INDV*%
%TO.N,/ETH_TXEN*%
X173650000Y-99687500D03*
%TO.P,U2,5,P0_IND0*%
%TO.N,/ETH_TXD0*%
X173150000Y-99687500D03*
%TO.P,U2,4,P0_IND1*%
%TO.N,/ETH_TXD1*%
X172650000Y-99687500D03*
%TO.P,U2,3,P0_IND2*%
%TO.N,unconnected-(U2-P0_IND2-Pad3)*%
X172150000Y-99687500D03*
%TO.P,U2,2,P0_IND3*%
%TO.N,unconnected-(U2-P0_IND3-Pad2)*%
X171650000Y-99687500D03*
%TO.P,U2,1,TXN2*%
%TO.N,/P2T-*%
X171150000Y-99687500D03*
%TD*%
D23*
%TO.P,C40,1*%
%TO.N,+3V3*%
X178600000Y-111025000D03*
%TO.P,C40,2*%
%TO.N,GND*%
X178600000Y-112575000D03*
%TD*%
D24*
%TO.P,R19,1*%
%TO.N,Net-(J6-Pin_1)*%
X193510000Y-121050000D03*
%TO.P,R19,2*%
%TO.N,Net-(U8-1Y)*%
X192490000Y-121050000D03*
%TD*%
D23*
%TO.P,C39,1*%
%TO.N,+1V1*%
X180100000Y-111025000D03*
%TO.P,C39,2*%
%TO.N,GND*%
X180100000Y-112575000D03*
%TD*%
D25*
%TO.P,C47,1*%
%TO.N,+1V1*%
X174810588Y-104539411D03*
%TO.P,C47,2*%
%TO.N,GND*%
X175489412Y-103860589D03*
%TD*%
D26*
%TO.P,TP5,1,1*%
%TO.N,+1V8*%
X176050000Y-86200000D03*
%TD*%
D27*
%TO.P,C38,1*%
%TO.N,+3V3*%
X154750000Y-137950000D03*
%TO.P,C38,2*%
%TO.N,GND*%
X154750000Y-136050000D03*
%TD*%
D28*
%TO.P,C25,1*%
%TO.N,+5V*%
X190425000Y-116622724D03*
%TO.P,C25,2*%
%TO.N,GND*%
X189475000Y-114977276D03*
%TD*%
D29*
%TO.P,TP2,1,1*%
%TO.N,GND*%
X151000000Y-119000000D03*
%TD*%
D24*
%TO.P,R40,1*%
%TO.N,Net-(J8-Pin_3)*%
X191177557Y-147150000D03*
%TO.P,R40,2*%
%TO.N,Net-(U11-FB)*%
X190157557Y-147150000D03*
%TD*%
D30*
%TO.P,L5,1,1*%
%TO.N,Net-(U11-SW)*%
X185676132Y-142908367D03*
%TO.P,L5,2,2*%
%TO.N,Net-(J8-Pin_3)*%
X185676132Y-137908367D03*
%TD*%
D31*
%TO.P,C35,1*%
%TO.N,+5V*%
X194223259Y-132450000D03*
%TO.P,C35,2*%
%TO.N,GND*%
X192323259Y-132450000D03*
%TD*%
D32*
%TO.P,NT1,1,1*%
%TO.N,GND*%
X190167557Y-149175000D03*
%TO.P,NT1,2,2*%
%TO.N,Net-(U11-AGND)*%
X190167557Y-148175000D03*
%TD*%
D33*
%TO.P,C24,1*%
%TO.N,Net-(C24-Pad1)*%
X159925000Y-150700000D03*
%TO.P,C24,2*%
%TO.N,GND*%
X156975000Y-150700000D03*
%TD*%
D34*
%TO.P,C27,1*%
%TO.N,+5V*%
X195475000Y-125427276D03*
%TO.P,C27,2*%
%TO.N,GND*%
X196425000Y-127072724D03*
%TD*%
D35*
%TO.P,U3,1,IOVDD*%
%TO.N,+3V3*%
X176290000Y-106224999D03*
%TO.P,U3,2,GPIO0*%
%TO.N,unconnected-(U3-GPIO0-Pad2)*%
X175890000Y-106224999D03*
%TO.P,U3,3,GPIO1*%
%TO.N,/ETH_MDC*%
X175490000Y-106224999D03*
%TO.P,U3,4,GPIO2*%
%TO.N,/ETH_MDIO*%
X175090000Y-106224999D03*
%TO.P,U3,5,GPIO3*%
%TO.N,/ETH_CLK*%
X174690000Y-106224999D03*
%TO.P,U3,6,DVDD*%
%TO.N,+1V1*%
X174290000Y-106224999D03*
%TO.P,U3,7,GPIO4*%
%TO.N,/ETH_CRS*%
X173890000Y-106224999D03*
%TO.P,U3,8,GPIO5*%
%TO.N,/ETH_RXD0*%
X173490000Y-106224999D03*
%TO.P,U3,9,GPIO6*%
%TO.N,/ETH_RXD1*%
X173090000Y-106224999D03*
%TO.P,U3,10,GPIO7*%
%TO.N,/ETH_TXEN*%
X172690000Y-106224999D03*
%TO.P,U3,11,IOVDD*%
%TO.N,+3V3*%
X172290000Y-106224999D03*
%TO.P,U3,12,GPIO8*%
%TO.N,/ETH_TXD0*%
X171890000Y-106224999D03*
%TO.P,U3,13,GPIO9*%
%TO.N,/ETH_TXD1*%
X171490000Y-106224999D03*
%TO.P,U3,14,GPIO10*%
%TO.N,/SW_RST*%
X171090000Y-106224999D03*
%TO.P,U3,15,GPIO11*%
%TO.N,unconnected-(U3-GPIO11-Pad15)*%
X170690000Y-106224999D03*
D36*
%TO.P,U3,16,GPIO12*%
%TO.N,unconnected-(U3-GPIO12-Pad16)*%
X169915000Y-106999999D03*
%TO.P,U3,17,GPIO13*%
%TO.N,unconnected-(U3-GPIO13-Pad17)*%
X169915000Y-107399999D03*
%TO.P,U3,18,GPIO14*%
%TO.N,/UART_TX*%
X169915000Y-107799999D03*
%TO.P,U3,19,GPIO15*%
%TO.N,/UART_RX*%
X169915000Y-108199999D03*
%TO.P,U3,20,IOVDD*%
%TO.N,+3V3*%
X169915000Y-108599999D03*
%TO.P,U3,21,XIN*%
%TO.N,Net-(U3-XIN)*%
X169915000Y-108999999D03*
%TO.P,U3,22,XOUT*%
%TO.N,Net-(U3-XOUT)*%
X169915000Y-109399999D03*
%TO.P,U3,23,DVDD*%
%TO.N,+1V1*%
X169915000Y-109799999D03*
%TO.P,U3,24,SWCLK*%
%TO.N,Net-(J9-Pin_3)*%
X169915000Y-110199999D03*
%TO.P,U3,25,SWDIO*%
%TO.N,Net-(J9-Pin_2)*%
X169915000Y-110599999D03*
%TO.P,U3,26,RUN*%
%TO.N,Net-(U3-RUN)*%
X169915000Y-110999999D03*
%TO.P,U3,27,GPIO16*%
%TO.N,unconnected-(U3-GPIO16-Pad27)*%
X169915000Y-111399999D03*
%TO.P,U3,28,GPIO17*%
%TO.N,unconnected-(U3-GPIO17-Pad28)*%
X169915000Y-111799999D03*
%TO.P,U3,29,GPIO18*%
%TO.N,unconnected-(U3-GPIO18-Pad29)*%
X169915000Y-112199999D03*
%TO.P,U3,30,IOVDD*%
%TO.N,+3V3*%
X169915000Y-112599999D03*
D35*
%TO.P,U3,31,GPIO19*%
%TO.N,/T2D_SENSE*%
X170690000Y-113374999D03*
%TO.P,U3,32,GPIO20*%
%TO.N,/SCL1*%
X171090000Y-113374999D03*
%TO.P,U3,33,GPIO21*%
%TO.N,/SDA1*%
X171489500Y-113374999D03*
%TO.P,U3,34,GPIO22*%
%TO.N,/LED_CTL_4*%
X171890000Y-113374999D03*
%TO.P,U3,35,GPIO23*%
%TO.N,/LED_CTL_3*%
X172290000Y-113374999D03*
%TO.P,U3,36,GPIO24*%
%TO.N,/LED_CTL_2*%
X172690000Y-113374999D03*
%TO.P,U3,37,GPIO25*%
%TO.N,/LED_CTL_1*%
X173090000Y-113374999D03*
%TO.P,U3,38,IOVDD*%
%TO.N,+3V3*%
X173489500Y-113374999D03*
%TO.P,U3,39,DVDD*%
%TO.N,+1V1*%
X173890000Y-113374999D03*
%TO.P,U3,40,GPIO26_ADC0*%
%TO.N,unconnected-(U3-GPIO26_ADC0-Pad40)*%
X174290000Y-113374999D03*
%TO.P,U3,41,GPIO27_ADC1*%
%TO.N,unconnected-(U3-GPIO27_ADC1-Pad41)*%
X174690000Y-113374999D03*
%TO.P,U3,42,GPIO28_ADC2*%
%TO.N,unconnected-(U3-GPIO28_ADC2-Pad42)*%
X175090000Y-113374999D03*
%TO.P,U3,43,GPIO29_ADC3*%
%TO.N,unconnected-(U3-GPIO29_ADC3-Pad43)*%
X175489500Y-113374999D03*
%TO.P,U3,44,ADC_AVDD*%
%TO.N,+3V3*%
X175890000Y-113374999D03*
%TO.P,U3,45,IOVDD*%
X176290000Y-113374999D03*
D36*
%TO.P,U3,46,VREG_AVDD*%
%TO.N,VDDA*%
X177065000Y-112599999D03*
%TO.P,U3,47,VREG_PGND*%
%TO.N,GND*%
X177065000Y-112199999D03*
%TO.P,U3,48,VREG_LX*%
%TO.N,Net-(U3-VREG_LX)*%
X177065000Y-111799999D03*
%TO.P,U3,49,VREG_VIN*%
%TO.N,+3V3*%
X177065000Y-111399999D03*
%TO.P,U3,50,VREG_FB*%
%TO.N,+1V1*%
X177065000Y-110999999D03*
%TO.P,U3,51,USB_DM*%
%TO.N,Net-(U3-USB_DM)*%
X177065000Y-110599999D03*
%TO.P,U3,52,USB_DP*%
%TO.N,Net-(U3-USB_DP)*%
X177065000Y-110199999D03*
%TO.P,U3,53,USB_OTP_VDD*%
%TO.N,+3V3*%
X177065000Y-109799999D03*
%TO.P,U3,54,QSPI_IOVDD*%
X177065000Y-109399999D03*
%TO.P,U3,55,QSPI_SD3*%
%TO.N,unconnected-(U3-QSPI_SD3-Pad55)*%
X177065000Y-108999999D03*
%TO.P,U3,56,QSPI_SCLK*%
%TO.N,unconnected-(U3-QSPI_SCLK-Pad56)*%
X177065000Y-108599999D03*
%TO.P,U3,57,QSPI_SD0*%
%TO.N,unconnected-(U3-QSPI_SD0-Pad57)*%
X177065000Y-108199999D03*
%TO.P,U3,58,QSPI_SD2*%
%TO.N,unconnected-(U3-QSPI_SD2-Pad58)*%
X177065000Y-107799999D03*
%TO.P,U3,59,QSPI_SD1*%
%TO.N,unconnected-(U3-QSPI_SD1-Pad59)*%
X177065000Y-107399999D03*
%TO.P,U3,60,QSPI_SS*%
%TO.N,Net-(U3-QSPI_SS)*%
X177065000Y-106999999D03*
D37*
%TO.P,U3,61,EP*%
%TO.N,GND*%
X173490000Y-109799999D03*
%TD*%
D38*
%TO.P,F1,1*%
%TO.N,/AUX_PWR_OUT_P*%
X182600000Y-147950000D03*
%TO.P,F1,2*%
%TO.N,+24V*%
X181400000Y-153050000D03*
%TD*%
D39*
%TO.P,Y1,1,1*%
%TO.N,Net-(U3-XIN)*%
X167300000Y-108547500D03*
%TO.P,Y1,2,2*%
%TO.N,GND*%
X165100000Y-108547500D03*
%TO.P,Y1,3,3*%
%TO.N,Net-(U3-XOUT)*%
X165100000Y-110247500D03*
%TO.P,Y1,4,4*%
%TO.N,GND*%
X167300000Y-110247500D03*
%TD*%
D40*
%TO.P,SW2,1,1*%
%TO.N,GND*%
X150000000Y-139100000D03*
%TO.P,SW2,2,2*%
X144000000Y-139100000D03*
%TO.P,SW2,3,3*%
%TO.N,Net-(U3-QSPI_SS)*%
X150000000Y-135400000D03*
%TO.P,SW2,4,4*%
X144000000Y-135400000D03*
%TD*%
D27*
%TO.P,C34,1*%
%TO.N,GND*%
X189676132Y-139850000D03*
%TO.P,C34,2*%
%TO.N,Net-(J8-Pin_3)*%
X189676132Y-137950000D03*
%TD*%
D31*
%TO.P,C30,1*%
%TO.N,GND*%
X188126132Y-151908367D03*
%TO.P,C30,2*%
%TO.N,+24V*%
X186226132Y-151908367D03*
%TD*%
D41*
%TO.P,D3,1,K*%
%TO.N,GND*%
X171500000Y-84715000D03*
%TO.P,D3,2,A*%
%TO.N,Net-(D3-A)*%
X171500000Y-83745000D03*
%TD*%
D42*
%TO.P,J2,1,Pin_1*%
%TO.N,Net-(J2-Pin_1)*%
X183930000Y-99650296D03*
D43*
%TO.P,J2,2,Pin_2*%
%TO.N,+5V*%
X185200000Y-101850001D03*
%TO.P,J2,3,Pin_3*%
%TO.N,GND*%
X186470000Y-104049705D03*
%TD*%
D27*
%TO.P,C28,1*%
%TO.N,GND*%
X190423259Y-132800000D03*
%TO.P,C28,2*%
%TO.N,+3V3*%
X190423259Y-130900000D03*
%TD*%
D28*
%TO.P,C26,1*%
%TO.N,+5V*%
X185975000Y-109322724D03*
%TO.P,C26,2*%
%TO.N,GND*%
X185025000Y-107677276D03*
%TD*%
D40*
%TO.P,SW1,1,1*%
%TO.N,GND*%
X150000000Y-145100000D03*
%TO.P,SW1,2,2*%
X144000000Y-145100000D03*
%TO.P,SW1,3,3*%
%TO.N,Net-(U3-RUN)*%
X150000000Y-141400000D03*
%TO.P,SW1,4,4*%
X144000000Y-141400000D03*
%TD*%
D44*
%TO.P,FB2,1*%
%TO.N,+3V3*%
X168912500Y-102000000D03*
%TO.P,FB2,2*%
%TO.N,/VDD33A2*%
X170487500Y-102000000D03*
%TD*%
D42*
%TO.P,J5,1,Pin_1*%
%TO.N,Net-(J5-Pin_1)*%
X192650000Y-114750000D03*
D43*
%TO.P,J5,2,Pin_2*%
%TO.N,+5V*%
X193920000Y-116949705D03*
%TO.P,J5,3,Pin_3*%
%TO.N,GND*%
X195190000Y-119149409D03*
%TD*%
D29*
%TO.P,TP7,1,1*%
%TO.N,/POE_IN_P*%
X122650000Y-113950000D03*
%TD*%
D45*
%TO.P,R17,1*%
%TO.N,Net-(J4-Pin_1)*%
X187950000Y-111990000D03*
%TO.P,R17,2*%
%TO.N,Net-(U8-3Y)*%
X187950000Y-113010000D03*
%TD*%
D46*
%TO.P,C52,1*%
%TO.N,Net-(J1-GND)*%
X163000000Y-88875000D03*
%TO.P,C52,2*%
%TO.N,GND*%
X163000000Y-85925000D03*
%TD*%
D47*
%TO.P,R39,1*%
%TO.N,Net-(J1-GND)*%
X164800000Y-88260000D03*
%TO.P,R39,2*%
%TO.N,GND*%
X164800000Y-87240000D03*
%TD*%
D48*
%TO.P,C15,1*%
%TO.N,/VDD18TX*%
X165975000Y-95000000D03*
%TO.P,C15,2*%
%TO.N,GND*%
X167525000Y-95000000D03*
%TD*%
D34*
%TO.P,C1,1*%
%TO.N,+5V*%
X182025000Y-102077276D03*
%TO.P,C1,2*%
%TO.N,GND*%
X182975000Y-103722724D03*
%TD*%
D47*
%TO.P,R21,1*%
%TO.N,Net-(USB1-CC2)*%
X183750000Y-129010000D03*
%TO.P,R21,2*%
%TO.N,GND*%
X183750000Y-127990000D03*
%TD*%
D49*
%TO.P,L2,1,1*%
%TO.N,+3V3*%
X190473259Y-128250000D03*
%TO.P,L2,2,2*%
%TO.N,Net-(U7-SW)*%
X192473259Y-128250000D03*
%TD*%
D50*
%TO.P,C31,1*%
%TO.N,+3V3*%
X186923259Y-130300000D03*
%TO.P,C31,2*%
%TO.N,GND*%
X186923259Y-133900000D03*
%TD*%
D51*
%TO.P,C32,1*%
%TO.N,+24V*%
X146250000Y-157700000D03*
%TO.P,C32,2*%
%TO.N,GND*%
X146250000Y-149300000D03*
%TD*%
D47*
%TO.P,R41,1*%
%TO.N,Net-(U11-FB)*%
X190517557Y-146210000D03*
%TO.P,R41,2*%
%TO.N,Net-(U11-AGND)*%
X190517557Y-145190000D03*
%TD*%
D29*
%TO.P,TP4,1,1*%
%TO.N,+3V3*%
X191250000Y-124750000D03*
%TD*%
D52*
%TO.P,FB1,1*%
%TO.N,+3V3*%
X170200000Y-88712500D03*
%TO.P,FB1,2*%
%TO.N,/VDD33A1*%
X170200000Y-90287500D03*
%TD*%
D29*
%TO.P,TP8,1,1*%
%TO.N,/POE_IN_N*%
X128550000Y-114250000D03*
%TD*%
D42*
%TO.P,J4,1,Pin_1*%
%TO.N,Net-(J4-Pin_1)*%
X188280000Y-107200296D03*
D43*
%TO.P,J4,2,Pin_2*%
%TO.N,+5V*%
X189550000Y-109400001D03*
%TO.P,J4,3,Pin_3*%
%TO.N,GND*%
X190820000Y-111599705D03*
%TD*%
D53*
%TO.P,J3,1,TD1+*%
%TO.N,/P2T+*%
X175915000Y-155550032D03*
D54*
%TO.P,J3,2,TD1-*%
%TO.N,/P2T-*%
X174645000Y-153010033D03*
%TO.P,J3,3,TD2+*%
%TO.N,/P2R+*%
X173375001Y-155550033D03*
%TO.P,J3,4,C*%
%TO.N,Net-(J3-C-Pad4)*%
X172105000Y-153010033D03*
%TO.P,J3,5,C*%
X170835000Y-155550033D03*
%TO.P,J3,6,TD2-*%
%TO.N,/P2R-*%
X169565000Y-153010033D03*
%TO.P,J3,7,TD3+*%
%TO.N,unconnected-(J3-TD3+-Pad7)*%
X168295001Y-155550033D03*
%TO.P,J3,8,TD3-*%
%TO.N,unconnected-(J3-TD3--Pad8)*%
X167025000Y-153010033D03*
%TO.P,J3,9,TD4+*%
%TO.N,unconnected-(J3-TD4+-Pad9)*%
X165755000Y-155550033D03*
%TO.P,J3,10,TD4-*%
%TO.N,unconnected-(J3-TD4--Pad10)*%
X164485000Y-153010033D03*
%TO.P,J3,11,VC1*%
%TO.N,/AUX_PWR_OUT_P*%
X175915000Y-150490033D03*
%TO.P,J3,12,VC2*%
%TO.N,GND*%
X173375000Y-149220033D03*
%TO.P,J3,13,VC3*%
%TO.N,/AUX_PWR_OUT_P*%
X167025000Y-149220033D03*
%TO.P,J3,14,VC4*%
%TO.N,GND*%
X164485000Y-150490033D03*
D55*
%TO.P,J3,15,LED1+*%
%TO.N,/ETH2_GRN_P*%
X176840000Y-142600034D03*
%TO.P,J3,16,LED1-*%
%TO.N,GND*%
X174300000Y-142600034D03*
%TO.P,J3,17,LED2+*%
%TO.N,/ETH2_YLW_P*%
X166100000Y-142600034D03*
%TO.P,J3,18,LED2-*%
%TO.N,/ETH2_YLW_N*%
X163559999Y-142600033D03*
D56*
%TO.P,J3,19,SHIELD*%
%TO.N,Net-(C24-Pad1)*%
X178050000Y-149710033D03*
%TO.P,J3,20,SHIELD*%
X162350000Y-149710033D03*
%TD*%
D45*
%TO.P,R16,1*%
%TO.N,Net-(J2-Pin_1)*%
X184000000Y-104940000D03*
%TO.P,R16,2*%
%TO.N,Net-(U8-4Y)*%
X184000000Y-105960000D03*
%TD*%
D57*
%TO.P,U11,1,EN*%
%TO.N,unconnected-(U11-EN-Pad1)*%
X189077557Y-147400000D03*
%TO.P,U11,2,FB*%
%TO.N,Net-(U11-FB)*%
X189077557Y-146900000D03*
%TO.P,U11,3,AGND*%
%TO.N,Net-(U11-AGND)*%
X189077557Y-146400000D03*
%TO.P,U11,4,PG*%
%TO.N,unconnected-(U11-PG-Pad4)*%
X189077557Y-145900000D03*
D58*
%TO.P,U11,5,NC*%
%TO.N,unconnected-(U11-NC-Pad5)*%
X188607557Y-145250000D03*
D59*
%TO.P,U11,6,SW*%
%TO.N,Net-(U11-SW)*%
X187307557Y-145800000D03*
D58*
%TO.P,U11,7,BOOT*%
%TO.N,Net-(U11-BOOT)*%
X186807557Y-145250000D03*
D60*
%TO.P,U11,8,VIN*%
%TO.N,+24V*%
X186727557Y-147300000D03*
D61*
X186357557Y-147400000D03*
X186357557Y-146900000D03*
X186357557Y-146400000D03*
D60*
%TO.P,U11,9,PGND*%
%TO.N,GND*%
X187887557Y-147300000D03*
D58*
%TO.P,U11,10,MODE*%
%TO.N,unconnected-(U11-MODE-Pad10)*%
X188607557Y-148050000D03*
%TD*%
D41*
%TO.P,D2,1,K*%
%TO.N,GND*%
X168900000Y-84730000D03*
%TO.P,D2,2,A*%
%TO.N,Net-(D2-A)*%
X168900000Y-83760000D03*
%TD*%
D62*
%TO.P,L3,1,1*%
%TO.N,Net-(U3-VREG_LX)*%
X182000000Y-112900000D03*
%TO.P,L3,2,2*%
%TO.N,+1V1*%
X182000000Y-110900000D03*
%TD*%
D63*
%TO.P,USB1,13,SH*%
%TO.N,GND*%
X178995000Y-131725000D03*
X181855000Y-131725000D03*
X178995000Y-123275000D03*
X181855000Y-123275000D03*
D64*
%TO.P,USB1,A01,GND*%
X180425000Y-124000000D03*
%TO.P,USB1,A04,VBUS*%
%TO.N,/VBUS*%
X180425000Y-125000000D03*
D65*
%TO.P,USB1,A05,CC1*%
%TO.N,Net-(USB1-CC1)*%
X181250000Y-126000000D03*
%TO.P,USB1,A06,DP1*%
%TO.N,/USB_DP*%
X181250000Y-127000000D03*
%TO.P,USB1,A07,DN1*%
%TO.N,/USB_DM*%
X181250000Y-128000000D03*
%TO.P,USB1,A08,SBU1*%
%TO.N,unconnected-(USB1-SBU1-PadA08)*%
X181250000Y-129000000D03*
D64*
%TO.P,USB1,A09,VBUS*%
%TO.N,/VBUS*%
X180425000Y-130000000D03*
%TO.P,USB1,A12,GND*%
%TO.N,GND*%
X180425000Y-131000000D03*
D65*
%TO.P,USB1,B05,CC2*%
%TO.N,Net-(USB1-CC2)*%
X179600000Y-129000000D03*
%TO.P,USB1,B06,DP2*%
%TO.N,unconnected-(USB1-DP2-PadB06)*%
X179600000Y-128000000D03*
%TO.P,USB1,B07,DN2*%
%TO.N,unconnected-(USB1-DN2-PadB07)*%
X179600000Y-127000000D03*
%TO.P,USB1,B08,SBU2*%
%TO.N,unconnected-(USB1-SBU2-PadB08)*%
X179600000Y-126000000D03*
%TD*%
D44*
%TO.P,FB4,1*%
%TO.N,+3V3*%
X164662499Y-96650000D03*
%TO.P,FB4,2*%
%TO.N,/VDD33BIAS*%
X166237501Y-96650000D03*
%TD*%
D48*
%TO.P,C41,1*%
%TO.N,VDDA*%
X176925000Y-114850000D03*
%TO.P,C41,2*%
%TO.N,GND*%
X178475000Y-114850000D03*
%TD*%
D31*
%TO.P,C33,1*%
%TO.N,GND*%
X188126132Y-149878367D03*
%TO.P,C33,2*%
%TO.N,+24V*%
X186226132Y-149878367D03*
%TD*%
D45*
%TO.P,R8,1*%
%TO.N,Net-(U2-EXRES)*%
X167600000Y-96190000D03*
%TO.P,R8,2*%
%TO.N,GND*%
X167600000Y-97210000D03*
%TD*%
D66*
%TO.P,J9,1,Pin_1*%
%TO.N,GND*%
X159000000Y-141210000D03*
D43*
%TO.P,J9,2,Pin_2*%
%TO.N,Net-(J9-Pin_2)*%
X159000000Y-143750000D03*
%TO.P,J9,3,Pin_3*%
%TO.N,Net-(J9-Pin_3)*%
X159000000Y-146290000D03*
%TD*%
D67*
%TO.P,J1,1,TX+*%
%TO.N,/P1T+*%
X146784750Y-84319968D03*
%TO.P,J1,2,TX-*%
%TO.N,/P1T-*%
X148054750Y-86859967D03*
%TO.P,J1,3,RX+*%
%TO.N,/P1R+*%
X149324749Y-84319967D03*
%TO.P,J1,4,TXC*%
%TO.N,Net-(J1-RXC)*%
X150594750Y-86859967D03*
%TO.P,J1,5,RXC*%
X151864750Y-84319967D03*
%TO.P,J1,6,RX-*%
%TO.N,/P1R-*%
X153134750Y-86859967D03*
%TO.P,J1,7,GND*%
%TO.N,Net-(J1-GND)*%
X154404749Y-84319967D03*
%TO.P,J1,9,V+*%
%TO.N,/POE_IN_P*%
X156944750Y-84319967D03*
%TO.P,J1,10,V-*%
%TO.N,/POE_IN_N*%
X158214750Y-86859967D03*
D68*
%TO.P,J1,11,LED_Y_P*%
%TO.N,+3V3*%
X145869751Y-97269967D03*
%TO.P,J1,12,LED_Y_N*%
%TO.N,/ETH1_YLW_N*%
X148409750Y-97269967D03*
%TO.P,J1,13,LED_G_P*%
%TO.N,+3V3*%
X156589750Y-97269967D03*
%TO.P,J1,14,LED_G_N*%
%TO.N,/ETH1_GRN_N*%
X159129750Y-97269966D03*
D69*
%TO.P,J1,Z1,Z1*%
%TO.N,Net-(J1-GND)*%
X144754750Y-90159967D03*
%TO.P,J1,Z2,Z2*%
X160244750Y-90159967D03*
%TD*%
D26*
%TO.P,TP6,1,1*%
%TO.N,/VDD18TX*%
X163600000Y-91450000D03*
%TD*%
D52*
%TO.P,FB3,1*%
%TO.N,+1V8*%
X171800000Y-88012500D03*
%TO.P,FB3,2*%
%TO.N,/VDD18PLL*%
X171800000Y-89587500D03*
%TD*%
D70*
%TO.P,U7,A1,GND*%
%TO.N,GND*%
X192123259Y-130600000D03*
%TO.P,U7,A2,VOS*%
%TO.N,+3V3*%
X192123259Y-130200000D03*
%TO.P,U7,B1,VIN*%
%TO.N,+5V*%
X192523259Y-130600000D03*
%TO.P,U7,B2,SW*%
%TO.N,Net-(U7-SW)*%
X192523259Y-130200000D03*
%TO.P,U7,C1,EN*%
%TO.N,+5V*%
X192923259Y-130600000D03*
%TO.P,U7,C2,VSET*%
%TO.N,Net-(U7-VSET)*%
X192923259Y-130200000D03*
%TD*%
D24*
%TO.P,R18,1*%
%TO.N,Net-(J5-Pin_1)*%
X191760000Y-118100000D03*
%TO.P,R18,2*%
%TO.N,Net-(U8-2Y)*%
X190740000Y-118100000D03*
%TD*%
D47*
%TO.P,R1,1*%
%TO.N,Net-(USB1-CC1)*%
X183925000Y-126010000D03*
%TO.P,R1,2*%
%TO.N,GND*%
X183925000Y-124990000D03*
%TD*%
D71*
%TO.P,U8,1,1OE#*%
%TO.N,GND*%
X178430000Y-117880000D03*
D72*
%TO.P,U8,2,1A*%
%TO.N,/LED_CTL_3*%
X178930500Y-118880000D03*
%TO.P,U8,3,1Y*%
%TO.N,Net-(U8-1Y)*%
X179430000Y-118880000D03*
%TO.P,U8,4,2OE#*%
%TO.N,GND*%
X179930000Y-118880000D03*
%TO.P,U8,5,2A*%
%TO.N,/LED_CTL_4*%
X180430000Y-118880000D03*
%TO.P,U8,6,2Y*%
%TO.N,Net-(U8-2Y)*%
X180930500Y-118880000D03*
D71*
%TO.P,U8,7,GND*%
%TO.N,GND*%
X181430000Y-117880000D03*
%TO.P,U8,8,3Y*%
%TO.N,Net-(U8-3Y)*%
X181430000Y-117380000D03*
D72*
%TO.P,U8,9,3A*%
%TO.N,/LED_CTL_2*%
X180930500Y-116380000D03*
%TO.P,U8,10,3OE#*%
%TO.N,GND*%
X180430000Y-116380000D03*
%TO.P,U8,11,4Y*%
%TO.N,Net-(U8-4Y)*%
X179930000Y-116380000D03*
%TO.P,U8,12,4A*%
%TO.N,/LED_CTL_1*%
X179430000Y-116380000D03*
%TO.P,U8,13,4OE#*%
%TO.N,GND*%
X178930500Y-116380000D03*
D71*
%TO.P,U8,14,VCC*%
%TO.N,+5V*%
X178430000Y-117380000D03*
D73*
%TO.P,U8,15,EP*%
%TO.N,GND*%
X179930000Y-117630000D03*
%TD*%
D74*
%TO.P,C29,1*%
%TO.N,Net-(J8-Pin_3)*%
X193634869Y-136849651D03*
%TO.P,C29,2*%
%TO.N,GND*%
X193634869Y-141249651D03*
%TD*%
D42*
%TO.P,J6,1,Pin_1*%
%TO.N,Net-(J6-Pin_1)*%
X197000000Y-122300000D03*
D43*
%TO.P,J6,2,Pin_2*%
%TO.N,+5V*%
X198270000Y-124499705D03*
%TO.P,J6,3,Pin_3*%
%TO.N,GND*%
X199540000Y-126699409D03*
%TD*%
D29*
%TO.P,TP1,1,1*%
%TO.N,+5V*%
X187500000Y-121250000D03*
%TD*%
D48*
%TO.P,C21,1*%
%TO.N,+3V3*%
X165225000Y-93450000D03*
%TO.P,C21,2*%
%TO.N,GND*%
X166775000Y-93450000D03*
%TD*%
%TO.P,C18,1*%
%TO.N,+1V8*%
X175475000Y-88800000D03*
%TO.P,C18,2*%
%TO.N,GND*%
X177025000Y-88800000D03*
%TD*%
D24*
%TO.P,R15,1*%
%TO.N,Net-(C24-Pad1)*%
X158810000Y-148850000D03*
%TO.P,R15,2*%
%TO.N,GND*%
X157790000Y-148850000D03*
%TD*%
D75*
%TO.P,U5,1*%
%TO.N,/POE_IN_P*%
X146275000Y-124695000D03*
D76*
%TO.P,U5,2*%
%TO.N,Net-(U1-TYP2_DET)*%
X143735000Y-124695000D03*
%TO.P,U5,3*%
%TO.N,GND*%
X143735000Y-132315000D03*
%TO.P,U5,4*%
%TO.N,/T2D_SENSE*%
X146275000Y-132315000D03*
%TD*%
D66*
%TO.P,J8,1,Pin_1*%
%TO.N,/VBUS*%
X198308261Y-130933119D03*
D43*
%TO.P,J8,2,Pin_2*%
%TO.N,+5V*%
X198308261Y-133473119D03*
%TO.P,J8,3,Pin_3*%
%TO.N,Net-(J8-Pin_3)*%
X198308261Y-136013119D03*
%TD*%
D27*
%TO.P,C36,1*%
%TO.N,GND*%
X176500000Y-119950000D03*
%TO.P,C36,2*%
%TO.N,+5V*%
X176500000Y-118050000D03*
%TD*%
D47*
%TO.P,R22,1*%
%TO.N,Net-(U7-VSET)*%
X194023259Y-130810000D03*
%TO.P,R22,2*%
%TO.N,GND*%
X194023259Y-129790000D03*
%TD*%
D48*
%TO.P,C23,1*%
%TO.N,+3V3*%
X166875000Y-106500000D03*
%TO.P,C23,2*%
%TO.N,GND*%
X168425000Y-106500000D03*
%TD*%
D77*
%TO.P,Y3,1,1*%
%TO.N,Net-(U2-XO)*%
X173350000Y-88657500D03*
%TO.P,Y3,2,2*%
%TO.N,GND*%
X173350000Y-89757500D03*
%TO.P,Y3,3,3*%
%TO.N,Net-(U2-XI)*%
X174150000Y-89757500D03*
%TO.P,Y3,4,4*%
%TO.N,GND*%
X174150000Y-88657500D03*
%TD*%
D29*
%TO.P,TP3,1,1*%
%TO.N,+24V*%
X182750000Y-157250000D03*
%TD*%
D78*
%TO.P,J10,1,Pin_1*%
%TO.N,+3V3*%
X156762500Y-137000000D03*
%TO.P,J10,2,Pin_2*%
%TO.N,GND*%
X156762500Y-136000000D03*
%TO.P,J10,3,Pin_3*%
%TO.N,/SDA1*%
X156762500Y-135000000D03*
%TO.P,J10,4,Pin_4*%
%TO.N,/SCL1*%
X156762500Y-134000000D03*
D79*
%TO.P,J10,5*%
%TO.N,N/C*%
X159212500Y-132900000D03*
%TO.P,J10,6*%
X159212500Y-138100000D03*
%TD*%
D80*
%TO.N,/UART_TX*%
X158000000Y-123750000D03*
%TO.N,/UART_RX*%
X159750000Y-123250000D03*
X170750000Y-108500000D03*
%TO.N,/UART_TX*%
X170750000Y-107750000D03*
%TO.N,+3V3*%
X160750000Y-133000000D03*
%TO.N,Net-(U3-QSPI_SS)*%
X175000000Y-107000000D03*
X170750000Y-107000000D03*
X173500000Y-107000000D03*
X150750000Y-124250000D03*
%TO.N,/SW_LED1*%
X163000000Y-95500000D03*
X179000000Y-92000000D03*
%TO.N,/SW_LED0*%
X162250000Y-95500000D03*
X178500000Y-90600000D03*
%TO.N,/SW_SDA*%
X168500000Y-89250000D03*
X174606416Y-91037721D03*
%TO.N,GND*%
X172990000Y-111299999D03*
X178200000Y-107300000D03*
D81*
X189676132Y-152658367D03*
D80*
X170200000Y-85820000D03*
D81*
X150250000Y-152250000D03*
X149250000Y-152250000D03*
X163000000Y-85925000D03*
D80*
X178300000Y-100800000D03*
D81*
X139500000Y-160000000D03*
X149250000Y-153250000D03*
D80*
X177850000Y-118600000D03*
X147000000Y-139100000D03*
X168680000Y-99100000D03*
X168245036Y-112132263D03*
X174990000Y-108299999D03*
X173990000Y-111299999D03*
D81*
X189676132Y-143158367D03*
D80*
X172990000Y-110299999D03*
D81*
X189676132Y-150658367D03*
X150250000Y-149250000D03*
X190676132Y-143158367D03*
X189676132Y-141158367D03*
D80*
X166200000Y-98600000D03*
X167300000Y-110322500D03*
D81*
X139500000Y-159000000D03*
D80*
X178000000Y-105500000D03*
X168800000Y-107400000D03*
D81*
X150250000Y-151250000D03*
D80*
X168200000Y-91250000D03*
D81*
X150250000Y-153250000D03*
X190623259Y-134000000D03*
X190676132Y-141158367D03*
X193750000Y-144750000D03*
D80*
X172990000Y-108299999D03*
D81*
X191623259Y-134000000D03*
X191123259Y-134750000D03*
D80*
X174990000Y-111299999D03*
X172990000Y-109299999D03*
D81*
X190123259Y-134750000D03*
X149250000Y-151250000D03*
X183250000Y-107000000D03*
D80*
X177500000Y-114000000D03*
X179000000Y-102500000D03*
D81*
X137500000Y-160000000D03*
X138500000Y-160000000D03*
D80*
X168680000Y-94900000D03*
D81*
X189123259Y-134750000D03*
X149250000Y-149250000D03*
D80*
X168622776Y-111044558D03*
X174496250Y-89003750D03*
D81*
X149250000Y-150250000D03*
X193750000Y-143750000D03*
D80*
X171990000Y-110299999D03*
X179000000Y-108000000D03*
D81*
X150250000Y-154250000D03*
D80*
X147000000Y-144850000D03*
D81*
X156975000Y-150700000D03*
D80*
X176200000Y-103200000D03*
D81*
X138500000Y-159000000D03*
D80*
X182750000Y-128000000D03*
D81*
X150250000Y-150250000D03*
D80*
X180000000Y-108000000D03*
D81*
X140500000Y-160000000D03*
X137500000Y-159000000D03*
X190676132Y-149658367D03*
D80*
X158487500Y-135750000D03*
D81*
X193750000Y-145750000D03*
D80*
X180300000Y-95500000D03*
D81*
X140500000Y-159000000D03*
D80*
X171990000Y-108299999D03*
D81*
X191676132Y-150658367D03*
D80*
X171990000Y-109299999D03*
D81*
X190676132Y-151658367D03*
X151000000Y-119000000D03*
D80*
X173990000Y-110299999D03*
D81*
X150250000Y-148250000D03*
D80*
X175100000Y-114600000D03*
D81*
X194750000Y-144750000D03*
X189676132Y-149658367D03*
X149250000Y-148250000D03*
D80*
X174300000Y-101300000D03*
D81*
X191676132Y-149658367D03*
D80*
X177025000Y-88800000D03*
X168680000Y-96800000D03*
X173990000Y-108299999D03*
D81*
X190676132Y-142158367D03*
X189623259Y-134000000D03*
D80*
X168100000Y-97200000D03*
X172223497Y-102220043D03*
D81*
X179000000Y-113600000D03*
D80*
X165100000Y-108547500D03*
X174990000Y-109299999D03*
D81*
X180000000Y-113600000D03*
D80*
X174990000Y-110299999D03*
X173990000Y-109299999D03*
D81*
X194750000Y-143750000D03*
X149250000Y-147250000D03*
D80*
X193923259Y-129100000D03*
D81*
X189676132Y-142158367D03*
D80*
X172235332Y-90390321D03*
D81*
X149250000Y-154250000D03*
D80*
X181750000Y-138000000D03*
D81*
X189676132Y-151658367D03*
D80*
X180500000Y-103000000D03*
D81*
X150250000Y-147250000D03*
X192123259Y-134750000D03*
X190676132Y-150658367D03*
X194750000Y-145750000D03*
D80*
X171990000Y-111299999D03*
%TO.N,+3V3*%
X181750000Y-139250000D03*
X176290000Y-114000000D03*
D81*
X187500000Y-127750000D03*
D80*
X172273934Y-105345730D03*
X176300000Y-111400000D03*
D81*
X187000000Y-128500000D03*
D80*
X168912500Y-102000000D03*
D81*
X189000000Y-128500000D03*
D80*
X169212289Y-108547148D03*
X169200000Y-112599999D03*
X158487500Y-136500000D03*
X164662499Y-96650000D03*
X176800604Y-99036467D03*
D81*
X188000000Y-128500000D03*
D80*
X175900000Y-91200000D03*
X177300000Y-106180000D03*
X165225000Y-93450000D03*
X173537296Y-114240910D03*
D81*
X188500000Y-127750000D03*
D80*
X179100000Y-95000000D03*
X177401149Y-91065949D03*
D81*
X186512653Y-127762653D03*
D80*
X159080000Y-155800000D03*
X170200000Y-87900000D03*
X177850000Y-109050000D03*
X175083230Y-100415081D03*
X156300000Y-81700000D03*
X179100000Y-97000000D03*
X162200000Y-93800000D03*
%TO.N,/VDD33A2*%
X169662501Y-98862501D03*
X170700058Y-100172632D03*
%TO.N,/VDD33A1*%
X169800000Y-92000000D03*
X169510000Y-90510000D03*
X169793423Y-93085418D03*
%TO.N,/VDD18TX*%
X169826549Y-95090276D03*
X165975000Y-95000000D03*
%TO.N,+1V8*%
X176700000Y-91100000D03*
X172500000Y-87500000D03*
X175650000Y-100400000D03*
X175475000Y-88800000D03*
D81*
%TO.N,/POE_IN_N*%
X141316000Y-89316000D03*
D80*
%TO.N,/T2D_SENSE*%
X165500000Y-115400000D03*
%TO.N,/SW_SCL*%
X169000000Y-89000000D03*
X174180264Y-90722613D03*
%TO.N,/SW_LED2*%
X169800000Y-84700000D03*
X179500000Y-92500000D03*
%TO.N,/SW_LED5*%
X180250000Y-93250000D03*
X170600000Y-84700000D03*
%TO.N,/SW_LED3*%
X181000000Y-140250000D03*
X179500000Y-93500000D03*
%TO.N,/SW_LED4*%
X179200000Y-94000000D03*
X181000000Y-137000000D03*
%TO.N,Net-(J3-C-Pad4)*%
X160880000Y-155900000D03*
%TO.N,/SW_RST*%
X171700000Y-100750000D03*
X173538519Y-92450353D03*
%TO.N,Net-(USB1-CC2)*%
X182750000Y-129000000D03*
%TO.N,+5V*%
X187250000Y-116500000D03*
X183250000Y-116500000D03*
X177350000Y-117450000D03*
X181500000Y-116500000D03*
D81*
%TO.N,/VBUS*%
X184750000Y-129750000D03*
%TO.N,/POE_IN_P*%
X137707967Y-88007967D03*
D80*
%TO.N,/LED_CTL_1*%
X179430000Y-115640000D03*
X175830000Y-116510000D03*
%TO.N,/LED_CTL_2*%
X176590000Y-117010000D03*
X180930000Y-115630000D03*
%TO.N,Net-(J8-Pin_3)*%
X191467557Y-146000000D03*
X191467557Y-136900000D03*
%TO.N,Net-(U8-4Y)*%
X185730000Y-114950000D03*
X184500000Y-114960000D03*
%TO.N,Net-(U8-3Y)*%
X185770000Y-117340000D03*
X184500000Y-117380000D03*
%TO.N,Net-(U8-2Y)*%
X184390000Y-118870000D03*
X185765000Y-118235000D03*
%TO.N,Net-(U8-1Y)*%
X179430000Y-119630000D03*
X185815000Y-119115000D03*
X180670000Y-120240000D03*
X184250000Y-119360000D03*
%TO.N,Net-(U11-AGND)*%
X189925057Y-145782500D03*
X189917557Y-145175000D03*
D81*
X190167557Y-148175000D03*
D80*
%TO.N,Net-(J9-Pin_3)*%
X170947951Y-110150498D03*
%TO.N,Net-(J9-Pin_2)*%
X170502500Y-110599999D03*
%TO.N,Net-(U3-RUN)*%
X147000000Y-141150000D03*
X155000000Y-134750000D03*
%TD*%
D82*
%TO.N,Net-(U8-1Y)*%
X185815000Y-119115000D02*
X186605000Y-118325000D01*
X186605000Y-118325000D02*
X188575000Y-118325000D01*
X188575000Y-118325000D02*
X189500000Y-119250000D01*
X189500000Y-119250000D02*
X190750000Y-119250000D01*
X190750000Y-119250000D02*
X192437878Y-120937878D01*
%TO.N,Net-(J2-Pin_1)*%
X184000000Y-104940000D02*
X184000000Y-104500000D01*
%TO.N,+5V*%
X191000000Y-121250000D02*
X191750000Y-122000000D01*
X187500000Y-121250000D02*
X191000000Y-121250000D01*
X191750000Y-122000000D02*
X192047724Y-122000000D01*
X192047724Y-122000000D02*
X195475000Y-125427276D01*
%TO.N,Net-(J6-Pin_1)*%
X197000000Y-122300000D02*
X194760000Y-122300000D01*
X194760000Y-122300000D02*
X193510000Y-121050000D01*
%TO.N,Net-(J4-Pin_1)*%
X188280000Y-107200296D02*
X189450296Y-107200296D01*
X190750000Y-110000000D02*
X188760000Y-111990000D01*
X189450296Y-107200296D02*
X190750000Y-108500000D01*
X190750000Y-108500000D02*
X190750000Y-110000000D01*
X188760000Y-111990000D02*
X187950000Y-111990000D01*
%TO.N,Net-(J5-Pin_1)*%
X192650000Y-114750000D02*
X193500000Y-114750000D01*
X193500000Y-114750000D02*
X195250000Y-116500000D01*
X195250000Y-116500000D02*
X195250000Y-117500000D01*
X195250000Y-117500000D02*
X194650000Y-118100000D01*
X194650000Y-118100000D02*
X191760000Y-118100000D01*
D83*
%TO.N,+5V*%
X195475000Y-125427276D02*
X197342429Y-125427276D01*
X197342429Y-125427276D02*
X198270000Y-124499705D01*
X190425000Y-116622724D02*
X193593019Y-116622724D01*
X193593019Y-116622724D02*
X193920000Y-116949705D01*
X189550000Y-109400001D02*
X186052277Y-109400001D01*
X186052277Y-109400001D02*
X185975000Y-109322724D01*
X185200000Y-101850001D02*
X182252275Y-101850001D01*
X182252275Y-101850001D02*
X182025000Y-102077276D01*
D82*
%TO.N,/SDA1*%
X162070000Y-133500000D02*
X162070000Y-133930000D01*
X162070000Y-133930000D02*
X161756250Y-134243750D01*
X161756250Y-134243750D02*
X159993750Y-134243750D01*
X159993750Y-134243750D02*
X159237500Y-135000000D01*
X159237500Y-135000000D02*
X156762500Y-135000000D01*
D84*
%TO.N,GND*%
X156500000Y-130950000D02*
X158550500Y-130950000D01*
X158550500Y-130950000D02*
X159250000Y-130250500D01*
%TO.N,+3V3*%
X159250000Y-128749500D02*
X156800500Y-128749500D01*
X156800500Y-128749500D02*
X156500000Y-129050000D01*
D82*
%TO.N,/UART_TX*%
X158000000Y-123750000D02*
X158000000Y-125998000D01*
X158000000Y-125998000D02*
X159250000Y-127248000D01*
%TO.N,/UART_RX*%
X159750000Y-123250000D02*
X159750000Y-125249500D01*
X159750000Y-125249500D02*
X159250000Y-125749500D01*
D85*
%TO.N,/T2D_SENSE*%
X165500000Y-115400000D02*
X169350000Y-115400000D01*
X170690000Y-114060000D02*
X170690000Y-113374999D01*
X169350000Y-115400000D02*
X170690000Y-114060000D01*
D82*
%TO.N,Net-(U3-RUN)*%
X167700000Y-112080000D02*
X167500001Y-112080000D01*
X166650000Y-113600000D02*
X155250000Y-125000000D01*
X155250000Y-125000000D02*
X155250000Y-134500000D01*
X167500001Y-112080000D02*
X166650000Y-112930001D01*
X166650000Y-112930001D02*
X166650000Y-113600000D01*
X155250000Y-134500000D02*
X155000000Y-134750000D01*
%TO.N,/UART_RX*%
X170449999Y-108199999D02*
X170750000Y-108500000D01*
X169915000Y-108199999D02*
X170449999Y-108199999D01*
%TO.N,/UART_TX*%
X170700001Y-107799999D02*
X170750000Y-107750000D01*
X169915000Y-107799999D02*
X170700001Y-107799999D01*
%TO.N,+3V3*%
X160750000Y-133000000D02*
X161192500Y-133000000D01*
X161192500Y-133000000D02*
X161442500Y-132750000D01*
%TO.N,/SCL1*%
X171090000Y-113374999D02*
X171090000Y-114910000D01*
X162082500Y-123417500D02*
X162082500Y-132750000D01*
X171090000Y-114910000D02*
X167000000Y-119000000D01*
X167000000Y-119000000D02*
X166500000Y-119000000D01*
X166500000Y-119000000D02*
X162082500Y-123417500D01*
%TO.N,/SDA1*%
X171489500Y-113374999D02*
X171489500Y-115260500D01*
X167250000Y-119500000D02*
X166750000Y-119500000D01*
X162750000Y-123500000D02*
X162750000Y-132820000D01*
X171489500Y-115260500D02*
X167250000Y-119500000D01*
X166750000Y-119500000D02*
X162750000Y-123500000D01*
X162750000Y-132820000D02*
X162070000Y-133500000D01*
%TO.N,/SCL1*%
X162082500Y-132750000D02*
X162082500Y-132332500D01*
X161750000Y-132000000D02*
X158000000Y-132000000D01*
X162082500Y-132332500D02*
X161750000Y-132000000D01*
X158000000Y-132000000D02*
X156762500Y-133237500D01*
X156762500Y-133237500D02*
X156762500Y-134000000D01*
%TO.N,+3V3*%
X161442500Y-132750000D02*
X161442500Y-133487500D01*
X161442500Y-133487500D02*
X161430000Y-133500000D01*
D85*
%TO.N,Net-(D2-A)*%
X168980000Y-83680000D02*
X168900000Y-83760000D01*
X169800000Y-83680000D02*
X168980000Y-83680000D01*
%TO.N,Net-(D3-A)*%
X170665000Y-83745000D02*
X170600000Y-83680000D01*
X171500000Y-83745000D02*
X170665000Y-83745000D01*
%TO.N,/ETH1_YLW_N*%
X148409750Y-97269967D02*
X149350750Y-96328967D01*
X160420000Y-96620000D02*
X162200000Y-96620000D01*
X160128967Y-96328967D02*
X160420000Y-96620000D01*
X149350750Y-96328967D02*
X160128967Y-96328967D01*
D82*
%TO.N,Net-(U3-QSPI_SS)*%
X175000000Y-107000000D02*
X176250000Y-107000000D01*
X147000000Y-135400000D02*
X144000000Y-135400000D01*
X176250001Y-106999999D02*
X177065000Y-106999999D01*
X150750000Y-134650000D02*
X150000000Y-135400000D01*
X150000000Y-135400000D02*
X147000000Y-135400000D01*
X173500000Y-107000000D02*
X170750000Y-107000000D01*
X176250000Y-107000000D02*
X176250001Y-106999999D01*
X150750000Y-124250000D02*
X150750000Y-134650000D01*
D85*
%TO.N,/SW_LED1*%
X163000000Y-95070000D02*
X163000000Y-95500000D01*
X179000000Y-92000000D02*
X178500000Y-92500000D01*
X178500000Y-92500000D02*
X178337500Y-92500000D01*
X163000000Y-95500000D02*
X163000000Y-95930000D01*
%TO.N,/SW_LED0*%
X162250000Y-95070000D02*
X162250000Y-95500000D01*
X177920000Y-91580000D02*
X177882500Y-91580000D01*
X162250000Y-95500000D02*
X162250000Y-95930000D01*
X178500000Y-91000000D02*
X177920000Y-91580000D01*
X177882500Y-91580000D02*
X177650000Y-91812500D01*
X178500000Y-90600000D02*
X178500000Y-91000000D01*
%TO.N,Net-(U2-XO)*%
X173350000Y-88657500D02*
X173350000Y-87737500D01*
X172930000Y-90750000D02*
X172920033Y-90750000D01*
X173200000Y-88480000D02*
X173280000Y-88400000D01*
X172850000Y-89157500D02*
X172850000Y-90670000D01*
X172850000Y-90670000D02*
X172930000Y-90750000D01*
X173350000Y-88657500D02*
X172850000Y-89157500D01*
X172920033Y-90750000D02*
X172150000Y-91520033D01*
X172150000Y-91520033D02*
X172150000Y-91812500D01*
D82*
%TO.N,/SW_SDA*%
X168250000Y-89000000D02*
X168500000Y-89250000D01*
X174594283Y-91756783D02*
X174650000Y-91812500D01*
X168250000Y-88570000D02*
X168250000Y-89000000D01*
X174594283Y-91049854D02*
X174594283Y-91756783D01*
X174606416Y-91037721D02*
X174594283Y-91049854D01*
D83*
%TO.N,GND*%
X183250000Y-107000000D02*
X183250000Y-105250000D01*
D84*
X156762500Y-136000000D02*
X154787500Y-136000000D01*
D83*
X194023259Y-129790000D02*
X194023259Y-129200000D01*
D84*
X158237500Y-136000000D02*
X158487500Y-135750000D01*
D85*
X178930500Y-116930000D02*
X179630500Y-117630000D01*
D83*
X185025000Y-107677276D02*
X185025000Y-105494705D01*
D84*
X175600001Y-115220000D02*
X175800000Y-115220000D01*
X178250000Y-106820000D02*
X178250000Y-107250000D01*
D85*
X175100000Y-90080000D02*
X175100000Y-89607500D01*
D84*
X168800000Y-107400000D02*
X168800000Y-106875000D01*
X168800000Y-107880000D02*
X168800000Y-107400000D01*
D82*
X167300000Y-111277500D02*
X166680000Y-111897500D01*
D85*
X168900000Y-84730000D02*
X168900000Y-84920000D01*
D82*
X175800000Y-115220000D02*
X175720000Y-115220000D01*
D85*
X168500000Y-91500000D02*
X168760000Y-91500000D01*
D84*
X168680000Y-94500000D02*
X168680000Y-94900000D01*
D85*
X179680000Y-117880000D02*
X179895000Y-117665000D01*
D84*
X176150000Y-99687500D02*
X176150000Y-97500000D01*
X168680000Y-96800000D02*
X168680000Y-97200000D01*
D85*
X168680000Y-97200000D02*
X168100000Y-97200000D01*
D83*
X199540000Y-126699409D02*
X196798315Y-126699409D01*
D85*
X180300000Y-95020000D02*
X180320000Y-95000000D01*
D83*
X190820000Y-111599705D02*
X190820000Y-113632276D01*
D84*
X175150000Y-96500000D02*
X174400000Y-95750000D01*
X178723726Y-100376274D02*
X178300000Y-100800000D01*
D85*
X168250000Y-91250000D02*
X168500000Y-91500000D01*
X168900000Y-84920000D02*
X169800000Y-85820000D01*
D84*
X165800000Y-98600000D02*
X166600000Y-98600000D01*
D82*
X164800000Y-87240000D02*
X164315000Y-87240000D01*
D84*
X178873726Y-100376274D02*
X178723726Y-100376274D01*
D82*
X181415000Y-124990000D02*
X180425000Y-124000000D01*
D84*
X176420000Y-100340088D02*
X176150000Y-100070088D01*
X177850000Y-118600000D02*
X176500000Y-119950000D01*
X174570000Y-114750000D02*
X174720000Y-114600000D01*
D85*
X167280000Y-94620000D02*
X167300000Y-94600000D01*
X168200000Y-91250000D02*
X168250000Y-91250000D01*
X180320000Y-95000000D02*
X180320000Y-95023611D01*
D84*
X168622776Y-111044558D02*
X168730155Y-111044558D01*
D83*
X196798315Y-126699409D02*
X196425000Y-127072724D01*
D85*
X174106000Y-89216500D02*
X173376000Y-89216500D01*
D84*
X174720000Y-114600000D02*
X175100000Y-114600000D01*
D85*
X174000000Y-88480000D02*
X173920000Y-88400000D01*
D82*
X147000000Y-139100000D02*
X144000000Y-139100000D01*
D84*
X178200000Y-107300000D02*
X178200000Y-107780000D01*
X168297299Y-112080000D02*
X168700000Y-112080000D01*
D85*
X181000000Y-138070000D02*
X181680000Y-138070000D01*
X174280000Y-100800000D02*
X174280000Y-101280000D01*
D84*
X180320000Y-95000000D02*
X180320000Y-95480000D01*
X175150000Y-95000000D02*
X174400000Y-95750000D01*
D82*
X183925000Y-124990000D02*
X181415000Y-124990000D01*
X183740000Y-128000000D02*
X183750000Y-127990000D01*
D84*
X168680000Y-96400000D02*
X168680000Y-96800000D01*
D83*
X166775000Y-93450000D02*
X166775000Y-94250000D01*
D82*
X192123259Y-132250000D02*
X192323259Y-132450000D01*
X181430000Y-117880000D02*
X180180000Y-117880000D01*
D85*
X169800000Y-85820000D02*
X170200000Y-85820000D01*
D84*
X178224999Y-112199999D02*
X178600000Y-112575000D01*
D83*
X167525000Y-95000000D02*
X168580000Y-95000000D01*
D85*
X173350000Y-89242500D02*
X173350000Y-89757500D01*
D82*
X156975000Y-150625000D02*
X157790000Y-149810000D01*
D83*
X178995000Y-131725000D02*
X179021000Y-131751000D01*
D84*
X168680000Y-99100000D02*
X168680000Y-99500000D01*
D82*
X192123259Y-130600000D02*
X192123259Y-132250000D01*
D85*
X170200000Y-85820000D02*
X170600000Y-85820000D01*
D82*
X147000000Y-144850000D02*
X150000000Y-144850000D01*
X157790000Y-149810000D02*
X157790000Y-148850000D01*
D85*
X179630500Y-117630000D02*
X179930000Y-117630000D01*
D84*
X156762500Y-136000000D02*
X158237500Y-136000000D01*
X180320000Y-95480000D02*
X180300000Y-95500000D01*
X176150000Y-100070088D02*
X176150000Y-99687500D01*
D85*
X174280000Y-101280000D02*
X174300000Y-101300000D01*
D84*
X156762500Y-136000000D02*
X157237500Y-136000000D01*
D83*
X180000000Y-112675000D02*
X180100000Y-112575000D01*
X178849000Y-131579000D02*
X178995000Y-131725000D01*
D85*
X179895000Y-117665000D02*
X179930000Y-117630000D01*
D82*
X177065000Y-112199999D02*
X177539322Y-112199999D01*
D85*
X167610000Y-97200000D02*
X167600000Y-97210000D01*
D84*
X178250000Y-107250000D02*
X178200000Y-107300000D01*
X176420000Y-100800000D02*
X176420000Y-100340088D01*
D83*
X172109679Y-90390321D02*
X172040000Y-90460000D01*
X168580000Y-95000000D02*
X168680000Y-94900000D01*
D85*
X179930000Y-118880000D02*
X179930000Y-117630000D01*
X170600000Y-85820000D02*
X171500000Y-84920000D01*
X174150000Y-88657500D02*
X174150000Y-89172500D01*
D83*
X172040000Y-90460000D02*
X172040000Y-90700000D01*
D85*
X171500000Y-84920000D02*
X171500000Y-84715000D01*
D83*
X172235332Y-90390321D02*
X172109679Y-90390321D01*
D85*
X178930500Y-116380000D02*
X178930500Y-116930000D01*
D83*
X164485000Y-150013121D02*
X164485000Y-150490033D01*
D84*
X168730155Y-111044558D02*
X168800000Y-110974713D01*
D85*
X176000000Y-89980000D02*
X175900000Y-90080000D01*
D82*
X165100000Y-108547500D02*
X165100000Y-107517500D01*
X168800000Y-111980000D02*
X168700000Y-112080000D01*
D84*
X178430000Y-117880000D02*
X178430000Y-118020000D01*
D82*
X180180000Y-117880000D02*
X179930000Y-117630000D01*
D83*
X166775000Y-94250000D02*
X167525000Y-95000000D01*
D85*
X174150000Y-88657500D02*
X174150000Y-87737500D01*
D82*
X164315000Y-87240000D02*
X163000000Y-85925000D01*
D83*
X164485000Y-150015000D02*
X164485000Y-150490033D01*
X183250000Y-105250000D02*
X182975000Y-104975000D01*
D82*
X167300000Y-110247500D02*
X167300000Y-110322500D01*
D84*
X176150000Y-97500000D02*
X174400000Y-95750000D01*
X168680000Y-94900000D02*
X168680000Y-95300000D01*
D83*
X185025000Y-105494705D02*
X186470000Y-104049705D01*
D84*
X175150000Y-91812500D02*
X175150000Y-95000000D01*
X168800000Y-106875000D02*
X168425000Y-106500000D01*
X178337500Y-96500000D02*
X175150000Y-96500000D01*
D83*
X181829000Y-131751000D02*
X181855000Y-131725000D01*
D84*
X175539411Y-103860589D02*
X176200000Y-103200000D01*
X178430000Y-118020000D02*
X177850000Y-118600000D01*
X175100000Y-114719999D02*
X175600001Y-115220000D01*
D82*
X182750000Y-128000000D02*
X183740000Y-128000000D01*
X150000000Y-139100000D02*
X147000000Y-139100000D01*
D85*
X168100000Y-97200000D02*
X167610000Y-97200000D01*
D84*
X177065000Y-112199999D02*
X178224999Y-112199999D01*
D82*
X156975000Y-150700000D02*
X156975000Y-150625000D01*
D83*
X194023259Y-129200000D02*
X193923259Y-129100000D01*
D85*
X174150000Y-89172500D02*
X174106000Y-89216500D01*
D84*
X175100000Y-114600000D02*
X175100000Y-114719999D01*
D85*
X174150000Y-88657500D02*
X174496250Y-89003750D01*
X181680000Y-138070000D02*
X181750000Y-138000000D01*
X180430000Y-117130000D02*
X179930000Y-117630000D01*
D84*
X168800000Y-110974713D02*
X168800000Y-110620000D01*
D85*
X175100000Y-89607500D02*
X174150000Y-88657500D01*
X167280000Y-95300000D02*
X167280000Y-94620000D01*
D84*
X175489412Y-103860589D02*
X175539411Y-103860589D01*
D83*
X182975000Y-104975000D02*
X182975000Y-103722724D01*
D84*
X168245036Y-112132263D02*
X168297299Y-112080000D01*
D85*
X178430000Y-117880000D02*
X179680000Y-117880000D01*
D84*
X167825000Y-95300000D02*
X167525000Y-95000000D01*
D83*
X190820000Y-113632276D02*
X189475000Y-114977276D01*
D85*
X173376000Y-89216500D02*
X173350000Y-89242500D01*
X180430000Y-116380000D02*
X180430000Y-117130000D01*
D82*
X167300000Y-110322500D02*
X167300000Y-111277500D01*
X144000000Y-144850000D02*
X147000000Y-144850000D01*
D85*
X167600000Y-97210000D02*
X167470000Y-97210000D01*
D84*
%TO.N,+3V3*%
X175900000Y-91562500D02*
X176150000Y-91812500D01*
X177704500Y-109399999D02*
X177065000Y-109399999D01*
X176300000Y-111400000D02*
X177065000Y-111399999D01*
X156762500Y-137000000D02*
X155687500Y-137000000D01*
X175900000Y-91562500D02*
X175650000Y-91812500D01*
X168800000Y-108520000D02*
X168710840Y-108520000D01*
X175083230Y-100636770D02*
X174920000Y-100800000D01*
D82*
X176274000Y-115644000D02*
X176274000Y-114854001D01*
D84*
X175084919Y-100415081D02*
X175150000Y-100350000D01*
X176290000Y-114090000D02*
X175800000Y-114580000D01*
D82*
X168879999Y-108599999D02*
X168800000Y-108520000D01*
D85*
X162250000Y-94430000D02*
X163000000Y-94430000D01*
D84*
X177401149Y-91065949D02*
X177401149Y-91098851D01*
X169212289Y-108547148D02*
X169265140Y-108599999D01*
D83*
X170200000Y-87900000D02*
X170200000Y-88712500D01*
D84*
X179261226Y-99923726D02*
X178337500Y-99000000D01*
D85*
X177400000Y-90720000D02*
X177500000Y-90620000D01*
D84*
X176837071Y-99000000D02*
X176800604Y-99036467D01*
X176800604Y-99036467D02*
X176800604Y-99099397D01*
D82*
X168820001Y-112599999D02*
X168700000Y-112720000D01*
D85*
X159660000Y-155800000D02*
X159080000Y-155800000D01*
D84*
X168251000Y-108060160D02*
X168251000Y-107876000D01*
X168880000Y-108600000D02*
X168800000Y-108520000D01*
X178337500Y-99000000D02*
X176837071Y-99000000D01*
X175150000Y-100350000D02*
X175150000Y-99687500D01*
X173537296Y-114240910D02*
X173537296Y-114137296D01*
X177401149Y-91098851D02*
X177150000Y-91350000D01*
X155687500Y-137000000D02*
X154737500Y-137950000D01*
D82*
X168781550Y-108520000D02*
X168800000Y-108520000D01*
D84*
X178200000Y-108420000D02*
X178200000Y-108700000D01*
X175083230Y-100415081D02*
X175084919Y-100415081D01*
X169265140Y-108599999D02*
X169915000Y-108599999D01*
X176334999Y-106180000D02*
X176290000Y-106224999D01*
D82*
X176274000Y-114854001D02*
X175999999Y-114580000D01*
D84*
X169012500Y-101900000D02*
X168912500Y-102000000D01*
X169200000Y-112599999D02*
X169915000Y-112599999D01*
D85*
X155420000Y-81700000D02*
X156300000Y-81700000D01*
D84*
X178225001Y-111399999D02*
X178600000Y-111025000D01*
D85*
X179480000Y-97500000D02*
X179480000Y-97380000D01*
D84*
X177401149Y-91065949D02*
X177434051Y-91065949D01*
X156762500Y-137000000D02*
X157987500Y-137000000D01*
X173537296Y-114137296D02*
X173489000Y-114089000D01*
X169079999Y-112720000D02*
X169200000Y-112599999D01*
X178200000Y-108700000D02*
X177850000Y-109050000D01*
D82*
X176580000Y-115950000D02*
X176274000Y-115644000D01*
X168280000Y-87900000D02*
X168250000Y-87930000D01*
X175999999Y-114580000D02*
X175800000Y-114580000D01*
D84*
X172300000Y-106214999D02*
X172290000Y-106224999D01*
X177150000Y-91350000D02*
X177150000Y-91812500D01*
X191250000Y-127473259D02*
X190473259Y-128250000D01*
X176650000Y-99250001D02*
X176650000Y-99687500D01*
X168710840Y-108520000D02*
X168251000Y-108060160D01*
X177065000Y-111399999D02*
X178225001Y-111399999D01*
X176290000Y-114000000D02*
X176290000Y-114090000D01*
X168251000Y-107876000D02*
X166875000Y-106500000D01*
D82*
X170200000Y-87900000D02*
X168280000Y-87900000D01*
D84*
X176290000Y-113374999D02*
X176290000Y-114000000D01*
D85*
X179480000Y-97380000D02*
X179100000Y-97000000D01*
D84*
X157987500Y-137000000D02*
X158487500Y-136500000D01*
X178250000Y-106180000D02*
X177300000Y-106180000D01*
D85*
X162200000Y-94380000D02*
X162250000Y-94430000D01*
D84*
X177434051Y-91065949D02*
X177500000Y-91000000D01*
X169159437Y-108600000D02*
X168880000Y-108600000D01*
X177850000Y-109050000D02*
X177850000Y-109254499D01*
X177500000Y-91000000D02*
X177500000Y-90620000D01*
X173489000Y-114089000D02*
X173489000Y-113374999D01*
X172273934Y-105345730D02*
X172300000Y-105371796D01*
X177850000Y-109254499D02*
X177704500Y-109399999D01*
X179680000Y-95000000D02*
X178337500Y-95000000D01*
X175083230Y-100415081D02*
X175083230Y-100636770D01*
X175900000Y-90720000D02*
X175900000Y-91200000D01*
X192123259Y-130200000D02*
X191023259Y-130200000D01*
D85*
X181750000Y-139250000D02*
X181000000Y-139250000D01*
D84*
X172300000Y-105371796D02*
X172300000Y-106214999D01*
D82*
X173500000Y-113385499D02*
X173489500Y-113374999D01*
D84*
X176800604Y-99099397D02*
X176650000Y-99250001D01*
X177065000Y-109399999D02*
X177065000Y-109799999D01*
D82*
X175890000Y-113374999D02*
X176290000Y-113374999D01*
D84*
X191250000Y-124750000D02*
X191250000Y-127473259D01*
X168700000Y-112720000D02*
X169079999Y-112720000D01*
X177300000Y-106180000D02*
X176334999Y-106180000D01*
X175900000Y-91200000D02*
X175900000Y-91562500D01*
D85*
X162200000Y-93800000D02*
X162200000Y-94380000D01*
D84*
X179326274Y-99923726D02*
X179261226Y-99923726D01*
D82*
X168700000Y-112720000D02*
X167700000Y-112720000D01*
D84*
X169212289Y-108547148D02*
X169159437Y-108600000D01*
D82*
%TO.N,/VDD33BIAS*%
X170462500Y-96000000D02*
X168300000Y-96000000D01*
X168121000Y-96467918D02*
X167888918Y-96700000D01*
X166287501Y-96700000D02*
X166237501Y-96650000D01*
X168121000Y-96179000D02*
X168121000Y-96467918D01*
X167888918Y-96700000D02*
X166287501Y-96700000D01*
D83*
X166600000Y-97960000D02*
X166600000Y-97012499D01*
X166600000Y-97960000D02*
X165800000Y-97960000D01*
X166600000Y-97012499D02*
X166237501Y-96650000D01*
D85*
X166203501Y-96764000D02*
X166100000Y-96867501D01*
D82*
X168300000Y-96000000D02*
X168121000Y-96179000D01*
D84*
%TO.N,/VDD33A2*%
X170820000Y-101667500D02*
X170487500Y-102000000D01*
X171151000Y-98248999D02*
X171151000Y-97251001D01*
X170899999Y-97000000D02*
X170462500Y-97000000D01*
X170750000Y-100222574D02*
X170750000Y-100730000D01*
X170362500Y-97100000D02*
X169420000Y-97100000D01*
X169662501Y-99157499D02*
X169320000Y-99500000D01*
X170820000Y-100800000D02*
X170820000Y-101667500D01*
X170899999Y-98500000D02*
X171151000Y-98248999D01*
X169420000Y-97100000D02*
X169320000Y-97200000D01*
D85*
X169320000Y-99660000D02*
X168680000Y-100300000D01*
D84*
X169900002Y-98625000D02*
X169662501Y-98862501D01*
X170700058Y-100172632D02*
X170750000Y-100222574D01*
D85*
X169320000Y-97260000D02*
X168680000Y-97900000D01*
D84*
X169662501Y-98862501D02*
X169662501Y-99157499D01*
D85*
X168680000Y-100300000D02*
X168680000Y-100200000D01*
D84*
X170462500Y-97000000D02*
X170362500Y-97100000D01*
X170462500Y-98500000D02*
X170337500Y-98625000D01*
D82*
X170820000Y-100780000D02*
X170820000Y-100800000D01*
D85*
X168580000Y-100300000D02*
X167900000Y-99620000D01*
X168680000Y-100300000D02*
X168580000Y-100300000D01*
D84*
X170462500Y-98500000D02*
X170899999Y-98500000D01*
X170337500Y-98625000D02*
X169900002Y-98625000D01*
X171151000Y-97251001D02*
X170899999Y-97000000D01*
D85*
X169320000Y-99500000D02*
X169320000Y-99660000D01*
X169320000Y-97200000D02*
X169320000Y-97260000D01*
D84*
X170750000Y-100730000D02*
X170820000Y-100800000D01*
D85*
%TO.N,/VDD33A1*%
X167993000Y-93873000D02*
X167900000Y-93780000D01*
X168944000Y-94124000D02*
X168196000Y-94124000D01*
D84*
X169320000Y-92200000D02*
X169600000Y-92200000D01*
X169400000Y-91500000D02*
X169400000Y-92120000D01*
D85*
X167900000Y-93870000D02*
X167942000Y-93870000D01*
D84*
X169793423Y-93085418D02*
X169708005Y-93000000D01*
X169400000Y-92120000D02*
X169320000Y-92200000D01*
X169600000Y-92200000D02*
X169800000Y-92000000D01*
X169210000Y-90510000D02*
X169020000Y-90700000D01*
X169510000Y-90510000D02*
X169210000Y-90510000D01*
X171151000Y-94194088D02*
X170845088Y-94500000D01*
X169800000Y-94500000D02*
X169320000Y-94500000D01*
X169708005Y-93000000D02*
X169320000Y-93000000D01*
X171151000Y-93305912D02*
X171151000Y-94194088D01*
D83*
X169977500Y-90510000D02*
X170200000Y-90287500D01*
D84*
X170462500Y-93000000D02*
X169878841Y-93000000D01*
X170845088Y-94500000D02*
X170462500Y-94500000D01*
D83*
X169510000Y-90510000D02*
X169977500Y-90510000D01*
D84*
X170845088Y-93000000D02*
X171151000Y-93305912D01*
D85*
X169320000Y-94500000D02*
X168944000Y-94124000D01*
D84*
X170462500Y-94500000D02*
X169800000Y-94500000D01*
X169878841Y-93000000D02*
X169793423Y-93085418D01*
D85*
X167942000Y-93870000D02*
X168196000Y-94124000D01*
X167900000Y-93780000D02*
X167878786Y-93758786D01*
D84*
X170462500Y-93000000D02*
X170845088Y-93000000D01*
D83*
%TO.N,/VDD18PLL*%
X171800000Y-89587500D02*
X171400000Y-89987500D01*
X171400000Y-89987500D02*
X171400000Y-90700000D01*
D84*
X171650000Y-91375001D02*
X171400000Y-91125001D01*
X171650000Y-91812500D02*
X171650000Y-91375001D01*
X171400000Y-91125001D02*
X171400000Y-90700000D01*
%TO.N,/VDD18TX*%
X169826549Y-95090276D02*
X169909724Y-95090276D01*
X170845088Y-95000000D02*
X171151000Y-95305912D01*
D85*
X165975000Y-95000000D02*
X165525000Y-95000000D01*
X163600000Y-93075000D02*
X163600000Y-91450000D01*
X165525000Y-95000000D02*
X163600000Y-93075000D01*
D84*
X170845088Y-96500000D02*
X170462500Y-96500000D01*
X170462500Y-95000000D02*
X170845088Y-95000000D01*
X169774000Y-96500000D02*
X169420000Y-96500000D01*
X170000000Y-95000000D02*
X170462500Y-95000000D01*
X170462500Y-96500000D02*
X169826000Y-96500000D01*
X169420000Y-95200000D02*
X169320000Y-95300000D01*
X169716825Y-95200000D02*
X169420000Y-95200000D01*
X169420000Y-96500000D02*
X169320000Y-96400000D01*
X171151000Y-95305912D02*
X171151000Y-96194088D01*
X169909724Y-95090276D02*
X170000000Y-95000000D01*
X171151000Y-96194088D02*
X170845088Y-96500000D01*
X169826549Y-95090276D02*
X169716825Y-95200000D01*
D85*
%TO.N,/ETH_MDIO*%
X175900000Y-105000000D02*
X175090000Y-105810000D01*
X177100000Y-105000000D02*
X175900000Y-105000000D01*
X181250000Y-100850000D02*
X177100000Y-105000000D01*
X181250000Y-98450000D02*
X181250000Y-100850000D01*
X178800000Y-96000000D02*
X181250000Y-98450000D01*
X175090000Y-105810000D02*
X175090000Y-106224999D01*
X178337500Y-96000000D02*
X178800000Y-96000000D01*
%TO.N,Net-(U2-EXRES)*%
X170286500Y-95676000D02*
X168114000Y-95676000D01*
X168114000Y-95676000D02*
X167600000Y-96190000D01*
X170462500Y-95500000D02*
X170286500Y-95676000D01*
%TO.N,/ETH_RXD1*%
X173090000Y-103610000D02*
X173090000Y-106224999D01*
X175300000Y-101400000D02*
X173090000Y-103610000D01*
X177150000Y-99687500D02*
X177150000Y-100850000D01*
X177150000Y-100850000D02*
X176600000Y-101400000D01*
X176600000Y-101400000D02*
X175300000Y-101400000D01*
%TO.N,/ETH_CLK*%
X178337500Y-98000000D02*
X179550000Y-98000000D01*
X180600000Y-100300000D02*
X176500000Y-104400000D01*
X176500000Y-104400000D02*
X175900000Y-104400000D01*
X174690000Y-105610000D02*
X174690000Y-106224999D01*
X179550000Y-98000000D02*
X180600000Y-99050000D01*
X175900000Y-104400000D02*
X174690000Y-105610000D01*
X180600000Y-99050000D02*
X180600000Y-100300000D01*
%TO.N,/ETH_RXD0*%
X177080000Y-102000000D02*
X175500000Y-102000000D01*
X177650000Y-101430000D02*
X177080000Y-102000000D01*
X173490000Y-104010000D02*
X173490000Y-106224999D01*
X177650000Y-99687500D02*
X177650000Y-101430000D01*
X175500000Y-102000000D02*
X173490000Y-104010000D01*
%TO.N,/ETH_MDC*%
X176000000Y-105300000D02*
X175490000Y-105810000D01*
X178337500Y-95500000D02*
X179700000Y-95500000D01*
X175490000Y-105810000D02*
X175490000Y-106224999D01*
X181750000Y-97550000D02*
X181750000Y-100950000D01*
X177400000Y-105300000D02*
X176000000Y-105300000D01*
X181750000Y-100950000D02*
X177400000Y-105300000D01*
X179700000Y-95500000D02*
X181750000Y-97550000D01*
%TO.N,/ETH_CRS*%
X180100000Y-99896547D02*
X177296547Y-102700000D01*
X177296547Y-102700000D02*
X175550000Y-102700000D01*
X180100000Y-99450000D02*
X180100000Y-99896547D01*
X179150000Y-98500000D02*
X180100000Y-99450000D01*
X173890000Y-104360000D02*
X173890000Y-106224999D01*
X178337500Y-98500000D02*
X179150000Y-98500000D01*
X175550000Y-102700000D02*
X173890000Y-104360000D01*
%TO.N,/ETH_TXD1*%
X171490000Y-105685499D02*
X171500000Y-105675499D01*
X172150000Y-101600000D02*
X172150000Y-100650000D01*
X172650000Y-100150000D02*
X172650000Y-99687500D01*
X171500000Y-105675499D02*
X171500000Y-103050000D01*
X171800000Y-101950000D02*
X172150000Y-101600000D01*
X171500000Y-103050000D02*
X171800000Y-102750000D01*
D82*
X171490000Y-105685499D02*
X171490000Y-106224999D01*
D85*
X172150000Y-100650000D02*
X172650000Y-100150000D01*
X171800000Y-102750000D02*
X171800000Y-101950000D01*
%TO.N,+1V8*%
X176100000Y-88175000D02*
X175475000Y-88800000D01*
D83*
X172500000Y-87500000D02*
X172312500Y-87500000D01*
D85*
X176700000Y-90620000D02*
X176700000Y-91100000D01*
X176700000Y-91100000D02*
X176700000Y-91762500D01*
D84*
X175650000Y-99687500D02*
X175650000Y-100400000D01*
X175780000Y-100530000D02*
X175650000Y-100400000D01*
X175780000Y-100800000D02*
X175780000Y-100530000D01*
D85*
X176700000Y-91762500D02*
X176650000Y-91812500D01*
X176100000Y-85650000D02*
X176100000Y-88175000D01*
D83*
X172312500Y-87500000D02*
X171800000Y-88012500D01*
D85*
%TO.N,/ETH_TXD0*%
X172150000Y-102950000D02*
X172150000Y-104793794D01*
X171848241Y-105618062D02*
X171890000Y-105659821D01*
D82*
X171890000Y-105659821D02*
X171890000Y-106224999D01*
D85*
X171848241Y-105095553D02*
X171848241Y-105618062D01*
X173150000Y-101950000D02*
X172150000Y-102950000D01*
X173150000Y-99687500D02*
X173150000Y-101950000D01*
X172150000Y-104793794D02*
X171848241Y-105095553D01*
%TO.N,Net-(U2-XI)*%
X174000000Y-89907500D02*
X174150000Y-89757500D01*
X173570000Y-90750000D02*
X173121000Y-91199000D01*
X172650000Y-91375001D02*
X172650000Y-91812500D01*
X174150000Y-90170000D02*
X174150000Y-89757500D01*
X175100000Y-90707500D02*
X174150000Y-89757500D01*
X173570000Y-90750000D02*
X174150000Y-90170000D01*
X175100000Y-90720000D02*
X175100000Y-90707500D01*
X172826001Y-91199000D02*
X172650000Y-91375001D01*
X173121000Y-91199000D02*
X172826001Y-91199000D01*
D82*
%TO.N,/ETH_TXEN*%
X172690000Y-106224999D02*
X172690000Y-105499999D01*
D85*
X173650000Y-99687500D02*
X173650000Y-102200000D01*
X172690000Y-103160000D02*
X172690000Y-105499999D01*
X173650000Y-102200000D02*
X172690000Y-103160000D01*
D83*
%TO.N,/POE_IN_N*%
X139700000Y-104000000D02*
X138190000Y-105510000D01*
X132475000Y-105510000D02*
X131990000Y-105510000D01*
X138190000Y-105510000D02*
X132475000Y-105510000D01*
X139700000Y-90932000D02*
X139700000Y-104000000D01*
X141316000Y-89316000D02*
X139700000Y-90932000D01*
D86*
%TO.N,/AUX_PWR_OUT_P*%
X167025000Y-149220033D02*
X168304967Y-150500000D01*
X168304967Y-150500000D02*
X175924967Y-150500000D01*
X176924967Y-151500000D02*
X178488834Y-151500000D01*
X178488834Y-151500000D02*
X182038834Y-147950000D01*
X182038834Y-147950000D02*
X182600000Y-147950000D01*
X175924967Y-150500000D02*
X176924967Y-151500000D01*
D83*
%TO.N,Net-(J1-GND)*%
X163000000Y-88875000D02*
X161529717Y-88875000D01*
D82*
X163615000Y-88260000D02*
X163000000Y-88875000D01*
D83*
X161529717Y-88875000D02*
X160244750Y-90159967D01*
D82*
X164800000Y-88260000D02*
X163615000Y-88260000D01*
%TO.N,/SW_SCL*%
X169000000Y-88570000D02*
X169000000Y-89000000D01*
X174180264Y-91782236D02*
X174150000Y-91812500D01*
X174180264Y-90722613D02*
X174180264Y-91782236D01*
D85*
%TO.N,/SW_LED2*%
X179500000Y-92500000D02*
X179000000Y-93000000D01*
X169800000Y-84700000D02*
X169800000Y-85180000D01*
X169800000Y-84320000D02*
X169800000Y-84700000D01*
X179000000Y-93000000D02*
X178337500Y-93000000D01*
%TO.N,/SW_LED5*%
X180250000Y-93250000D02*
X180250000Y-94150000D01*
X179900000Y-94500000D02*
X178337500Y-94500000D01*
X170600000Y-84700000D02*
X170600000Y-85180000D01*
X180250000Y-94150000D02*
X179900000Y-94500000D01*
X170600000Y-84320000D02*
X170600000Y-84700000D01*
D82*
%TO.N,Net-(J1-RXC)*%
X153684717Y-82500000D02*
X154484717Y-81700000D01*
D85*
X151864750Y-84319967D02*
X151864750Y-85589967D01*
X151864750Y-85589967D02*
X150594750Y-86859967D01*
D82*
X154484717Y-81700000D02*
X154780000Y-81700000D01*
X153684717Y-82500000D02*
X151864750Y-84319967D01*
D85*
%TO.N,/SW_LED3*%
X181000000Y-140680000D02*
X181000000Y-140250000D01*
X178337500Y-93500000D02*
X179500000Y-93500000D01*
X181000000Y-140250000D02*
X181000000Y-139820000D01*
%TO.N,/ETH1_GRN_N*%
X163000000Y-96570000D02*
X162300034Y-97269966D01*
X162300034Y-97269966D02*
X159129750Y-97269966D01*
%TO.N,/SW_LED4*%
X181000000Y-137000000D02*
X181000000Y-137430000D01*
X181000000Y-136570000D02*
X181000000Y-137000000D01*
X178337500Y-94000000D02*
X179200000Y-94000000D01*
%TO.N,Net-(J3-C-Pad4)*%
X172105000Y-153010033D02*
X172105000Y-154280033D01*
X172105000Y-154280033D02*
X170835000Y-155550033D01*
X160400000Y-155900000D02*
X160300000Y-155800000D01*
X160880000Y-155900000D02*
X160400000Y-155900000D01*
%TO.N,/SW_RST*%
X173538519Y-92450353D02*
X173494368Y-92406202D01*
X171250000Y-102800000D02*
X171090000Y-102960000D01*
X171090000Y-102960000D02*
X171090000Y-106224999D01*
X171700000Y-101300000D02*
X171250000Y-101750000D01*
X173650000Y-92250000D02*
X173650000Y-91812500D01*
X173494368Y-92405632D02*
X173650000Y-92250000D01*
X171250000Y-101750000D02*
X171250000Y-102800000D01*
X171700000Y-100750000D02*
X171700000Y-101300000D01*
X173494368Y-92406202D02*
X173494368Y-92405632D01*
%TO.N,/ETH2_GRN_P*%
X181000000Y-135930000D02*
X180000000Y-136930000D01*
X180000000Y-136930000D02*
X180000000Y-141500000D01*
X180000000Y-141500000D02*
X178899966Y-142600034D01*
X178899966Y-142600034D02*
X176840000Y-142600034D01*
%TO.N,/ETH2_YLW_N*%
X178570000Y-143750000D02*
X164709966Y-143750000D01*
X164709966Y-143750000D02*
X163559999Y-142600033D01*
X181000000Y-141320000D02*
X178570000Y-143750000D01*
D82*
%TO.N,Net-(USB1-CC2)*%
X182760000Y-129010000D02*
X182750000Y-129000000D01*
X183750000Y-129010000D02*
X182760000Y-129010000D01*
D85*
%TO.N,/P1T-*%
X167650000Y-83800000D02*
X167650000Y-90150000D01*
X163850000Y-80000000D02*
X167650000Y-83800000D01*
X145904750Y-84709967D02*
X145904750Y-83955460D01*
X168804000Y-91124000D02*
X168380000Y-90700000D01*
X171150000Y-91812500D02*
X170461500Y-91124000D01*
X170461500Y-91124000D02*
X168804000Y-91124000D01*
X148054750Y-86859967D02*
X145904750Y-84709967D01*
X149860210Y-80000000D02*
X163850000Y-80000000D01*
X167650000Y-90150000D02*
X168200000Y-90700000D01*
X145904750Y-83955460D02*
X149860210Y-80000000D01*
X168200000Y-90700000D02*
X168380000Y-90700000D01*
%TO.N,/P1R-*%
X153134750Y-86859967D02*
X152254750Y-87739967D01*
X151500208Y-80900000D02*
X160604968Y-80900000D01*
X166200000Y-86495032D02*
X166200000Y-91087868D01*
X170462500Y-93500000D02*
X169180000Y-93500000D01*
X169180000Y-93500000D02*
X168680000Y-93000000D01*
X148500000Y-85000000D02*
X148444749Y-84944749D01*
X167868179Y-92756047D02*
X168436047Y-92756047D01*
X148500000Y-86009725D02*
X148500000Y-85000000D01*
X152254750Y-87739967D02*
X150230242Y-87739967D01*
X148444749Y-84944749D02*
X148444749Y-83955459D01*
X168436047Y-92756047D02*
X168680000Y-93000000D01*
X160604968Y-80900000D02*
X166200000Y-86495032D01*
X148444749Y-83955459D02*
X151500208Y-80900000D01*
X150230242Y-87739967D02*
X148500000Y-86009725D01*
X168680000Y-93000000D02*
X168658786Y-92978786D01*
X166200000Y-91087868D02*
X167868179Y-92756047D01*
%TO.N,/P1R+*%
X165900000Y-86550000D02*
X165900000Y-91212132D01*
X160501000Y-81151000D02*
X165900000Y-86550000D01*
X151604176Y-81151000D02*
X160501000Y-81151000D01*
X167900000Y-93230000D02*
X168471000Y-93801000D01*
X165900000Y-91212132D02*
X167656047Y-92968179D01*
X167656047Y-92986047D02*
X167900000Y-93230000D01*
X149324749Y-84319967D02*
X149324749Y-83430427D01*
X168471000Y-93801000D02*
X170263500Y-93801000D01*
X149324749Y-83430427D02*
X151604176Y-81151000D01*
X170263500Y-93801000D02*
X170462500Y-94000000D01*
X167656047Y-92968179D02*
X167656047Y-92986047D01*
%TO.N,/P1T+*%
X167350000Y-83854968D02*
X167350000Y-91100000D01*
X170337500Y-92625000D02*
X169105000Y-92625000D01*
X168450000Y-92200000D02*
X168680000Y-92200000D01*
X163746032Y-80251000D02*
X167350000Y-83854968D01*
X149964178Y-80251000D02*
X163746032Y-80251000D01*
X146784750Y-83430428D02*
X149964178Y-80251000D01*
X169105000Y-92625000D02*
X168680000Y-92200000D01*
X170462500Y-92500000D02*
X170337500Y-92625000D01*
X146784750Y-84319968D02*
X146784750Y-83430428D01*
X167350000Y-91100000D02*
X168450000Y-92200000D01*
%TO.N,/P2T-*%
X174645000Y-153010033D02*
X174645000Y-152932868D01*
X174645000Y-152932868D02*
X173062132Y-151350000D01*
X153550000Y-125650000D02*
X153550000Y-149875736D01*
X164937868Y-154350000D02*
X165393934Y-153893934D01*
X163700000Y-105412132D02*
X163700000Y-115500000D01*
X169532133Y-100800000D02*
X169182133Y-101150000D01*
X165797020Y-153488048D02*
X165392534Y-153892534D01*
X165824204Y-152474203D02*
X165797020Y-152501387D01*
X153550000Y-149875736D02*
X158024264Y-154350000D01*
X170180000Y-100800000D02*
X169532133Y-100800000D01*
X173062132Y-151350000D02*
X166465399Y-151350000D01*
X171150000Y-99687500D02*
X170412500Y-99687500D01*
X169182133Y-101150000D02*
X167962132Y-101150000D01*
X165797020Y-152501387D02*
X165797020Y-153488048D01*
X165824204Y-151991195D02*
X165824204Y-152474203D01*
X170412500Y-99687500D02*
X170180000Y-99920000D01*
X170180000Y-99920000D02*
X170180000Y-100800000D01*
X166465399Y-151350000D02*
X165824204Y-151991195D01*
X167962132Y-101150000D02*
X163700000Y-105412132D01*
X158024264Y-154350000D02*
X164937868Y-154350000D01*
X163700000Y-115500000D02*
X153550000Y-125650000D01*
%TO.N,/P2R+*%
X167900000Y-98300000D02*
X166906066Y-99293934D01*
X168335472Y-154200000D02*
X170000000Y-154200000D01*
X169720000Y-97500000D02*
X169320000Y-97900000D01*
X167369001Y-155166471D02*
X168335472Y-154200000D01*
X166004968Y-157000000D02*
X167369001Y-155635967D01*
X151800000Y-124437868D02*
X151800000Y-151300000D01*
X170462500Y-97500000D02*
X169720000Y-97500000D01*
X167369001Y-155635967D02*
X167369001Y-155166471D01*
X169320000Y-97900000D02*
X168920000Y-98300000D01*
X173375001Y-152675001D02*
X173375001Y-155550033D01*
X170000000Y-154200000D02*
X171179000Y-153021000D01*
X162050000Y-114187868D02*
X151800000Y-124437868D01*
X157500000Y-157000000D02*
X166004968Y-157000000D01*
X166893934Y-99293934D02*
X162050000Y-104137868D01*
X171179000Y-152626471D02*
X171721438Y-152084033D01*
X171721438Y-152084033D02*
X172784033Y-152084033D01*
X171179000Y-153021000D02*
X171179000Y-152626471D01*
X151800000Y-151300000D02*
X157500000Y-157000000D01*
X172784033Y-152084033D02*
X173375001Y-152675001D01*
X168920000Y-98300000D02*
X167900000Y-98300000D01*
X162050000Y-104137868D02*
X162050000Y-114187868D01*
X166906066Y-99293934D02*
X166893934Y-99293934D01*
%TO.N,/P2R-*%
X169298968Y-98276000D02*
X168968948Y-98606020D01*
X162350000Y-104262132D02*
X162350000Y-114312132D01*
X170171547Y-98000000D02*
X169922547Y-98249000D01*
X167118001Y-155531999D02*
X167118001Y-155062503D01*
X169922547Y-98249000D02*
X169594094Y-98249000D01*
X162350000Y-114312132D02*
X152100000Y-124562132D01*
X157624262Y-156700000D02*
X165950000Y-156700000D01*
X167632132Y-98980000D02*
X162350000Y-104262132D01*
X169594094Y-98249000D02*
X169567094Y-98276000D01*
X167900000Y-98980000D02*
X167632132Y-98980000D01*
X152100000Y-124562132D02*
X152100000Y-151175738D01*
X168273980Y-98606020D02*
X167900000Y-98980000D01*
X168968948Y-98606020D02*
X168273980Y-98606020D01*
X152100000Y-151175738D02*
X157624262Y-156700000D01*
X165950000Y-156700000D02*
X167118001Y-155531999D01*
X170462500Y-98000000D02*
X170171547Y-98000000D01*
X167118001Y-155062503D02*
X169170471Y-153010033D01*
X169567094Y-98276000D02*
X169298968Y-98276000D01*
X169170471Y-153010033D02*
X169565000Y-153010033D01*
%TO.N,/P2T+*%
X173719000Y-152431132D02*
X173719000Y-154254032D01*
X166150000Y-153444595D02*
X166099000Y-153393595D01*
X172937868Y-151650000D02*
X173719000Y-152431132D01*
X166131577Y-152108086D02*
X166589663Y-151650000D01*
X166150000Y-152575471D02*
X166150000Y-152126509D01*
X165062132Y-154650000D02*
X166150000Y-153562132D01*
X153250000Y-125525738D02*
X153250000Y-150000000D01*
X166589663Y-151650000D02*
X172937868Y-151650000D01*
X157900000Y-154650000D02*
X165062132Y-154650000D01*
X169057867Y-100850000D02*
X167837868Y-100850000D01*
X163400000Y-115375738D02*
X153250000Y-125525738D01*
X170462500Y-99000000D02*
X169320000Y-100142500D01*
X167837868Y-100850000D02*
X163400000Y-105287868D01*
X169320000Y-100142500D02*
X169320000Y-100300000D01*
X153250000Y-150000000D02*
X157900000Y-154650000D01*
X163400000Y-105287868D02*
X163400000Y-115375738D01*
X166150000Y-152126509D02*
X166131577Y-152108086D01*
X169320000Y-100587867D02*
X169057867Y-100850000D01*
X166150000Y-153562132D02*
X166150000Y-153444595D01*
X175015000Y-155550032D02*
X175915000Y-155550032D01*
X166099000Y-152626471D02*
X166150000Y-152575471D01*
X169320000Y-100300000D02*
X169320000Y-100587867D01*
X166099000Y-153393595D02*
X166099000Y-152626471D01*
X173719000Y-154254032D02*
X175015000Y-155550032D01*
D84*
%TO.N,Net-(U7-SW)*%
X192523259Y-128712500D02*
X192535759Y-128700000D01*
X192523259Y-130200000D02*
X192523259Y-128712500D01*
D83*
%TO.N,Net-(J5-Pin_1)*%
X192650000Y-114750000D02*
X192297724Y-114750000D01*
%TO.N,+5V*%
X194223259Y-132450000D02*
X197285142Y-132450000D01*
D82*
X191027276Y-116372724D02*
X190675000Y-116372724D01*
D84*
X177420000Y-117380000D02*
X178430000Y-117380000D01*
%TO.N,Net-(J4-Pin_1)*%
X188280000Y-108025692D02*
X188280000Y-107200296D01*
%TO.N,+5V*%
X177150000Y-117400000D02*
X176500000Y-118050000D01*
X177350000Y-117450000D02*
X177420000Y-117380000D01*
D83*
X185975000Y-109322724D02*
X186157572Y-109322724D01*
D84*
X187372724Y-116622724D02*
X187250000Y-116500000D01*
X192923259Y-130600000D02*
X192923259Y-131150000D01*
X192923259Y-131150000D02*
X194223259Y-132450000D01*
D83*
%TO.N,Net-(J2-Pin_1)*%
X183930000Y-99650296D02*
X183930000Y-100172276D01*
D84*
%TO.N,+5V*%
X177350000Y-117450000D02*
X177300000Y-117400000D01*
X192523259Y-130600000D02*
X192923259Y-130600000D01*
X183250000Y-116500000D02*
X181500000Y-116500000D01*
D83*
X197285142Y-132450000D02*
X198308261Y-133473119D01*
D84*
X190425000Y-116622724D02*
X187372724Y-116622724D01*
X177300000Y-117400000D02*
X177150000Y-117400000D01*
D83*
%TO.N,/VBUS*%
X179537925Y-130000000D02*
X180425000Y-130000000D01*
X184750000Y-129750000D02*
X180675000Y-129750000D01*
X178849000Y-129311075D02*
X179537925Y-130000000D01*
X180425000Y-125000000D02*
X179425000Y-125000000D01*
X178849000Y-125576000D02*
X178849000Y-129311075D01*
X179425000Y-125000000D02*
X178849000Y-125576000D01*
X180675000Y-129750000D02*
X180425000Y-130000000D01*
D82*
%TO.N,/USB_DM*%
X180649000Y-125751000D02*
X181109000Y-125291000D01*
X180649000Y-127399000D02*
X180649000Y-125751000D01*
X182600000Y-109300000D02*
X181220000Y-109300000D01*
X183597082Y-125461000D02*
X184389000Y-125461000D01*
X184948000Y-124902000D02*
X184948000Y-111648000D01*
X184389000Y-125461000D02*
X184948000Y-124902000D01*
X181109000Y-125291000D02*
X183427082Y-125291000D01*
X184948000Y-111648000D02*
X182600000Y-109300000D01*
X183427082Y-125291000D02*
X183597082Y-125461000D01*
X181250000Y-128000000D02*
X180649000Y-127399000D01*
D85*
%TO.N,/USB_DP*%
X181250000Y-127000000D02*
X181425000Y-127000000D01*
D82*
X184074322Y-127000000D02*
X181250000Y-127000000D01*
X185249000Y-125825322D02*
X184074322Y-127000000D01*
X185249000Y-111523322D02*
X185249000Y-125825322D01*
X181220000Y-108500000D02*
X182150000Y-108500000D01*
X182150000Y-108500000D02*
X182649000Y-108999000D01*
X182649000Y-108999000D02*
X182724678Y-108999000D01*
X182724678Y-108999000D02*
X185249000Y-111523322D01*
%TO.N,+1V1*%
X177541311Y-110999999D02*
X178341310Y-110200000D01*
D84*
X173890000Y-113374999D02*
X173910799Y-113395798D01*
X174032404Y-114447596D02*
X173880000Y-114600000D01*
D82*
X177065000Y-110999999D02*
X177541311Y-110999999D01*
D84*
X174290000Y-105059999D02*
X174290000Y-106224999D01*
D82*
X178341310Y-110200000D02*
X178400000Y-110200000D01*
D85*
X173890000Y-114590000D02*
X173880000Y-114600000D01*
D84*
X173910799Y-113395798D02*
X173910799Y-113889123D01*
X169915000Y-109799999D02*
X168980001Y-109799999D01*
X174810588Y-104539411D02*
X174290000Y-105059999D01*
X168980001Y-109799999D02*
X168800000Y-109980000D01*
X174032404Y-114010728D02*
X174032404Y-114447596D01*
X173910799Y-113889123D02*
X174032404Y-114010728D01*
D82*
%TO.N,Net-(U3-XIN)*%
X167775000Y-109022500D02*
X167300000Y-108547500D01*
X167300000Y-108547500D02*
X166052500Y-107300000D01*
X169450000Y-109022500D02*
X167775000Y-109022500D01*
X166052500Y-107300000D02*
X165770000Y-107300000D01*
%TO.N,Net-(U3-XOUT)*%
X165100000Y-111277500D02*
X165720000Y-111897500D01*
X165925000Y-109422500D02*
X165100000Y-110247500D01*
X169450000Y-109422500D02*
X165925000Y-109422500D01*
X165100000Y-110247500D02*
X165100000Y-111277500D01*
%TO.N,VDDA*%
X177220000Y-115950000D02*
X177220000Y-115145000D01*
X177065000Y-112599999D02*
X177065000Y-114385000D01*
X177065000Y-114385000D02*
X177180000Y-114500000D01*
X177220000Y-115145000D02*
X176925000Y-114850000D01*
D85*
%TO.N,Net-(U3-USB_DM)*%
X177975494Y-110175494D02*
X177975494Y-110174506D01*
X177065000Y-110599999D02*
X177550989Y-110599999D01*
X178850000Y-109300000D02*
X180580000Y-109300000D01*
X177550989Y-110599999D02*
X177975494Y-110175494D01*
X177975494Y-110174506D02*
X178850000Y-109300000D01*
%TO.N,Net-(U3-USB_DP)*%
X180580000Y-108500000D02*
X179254499Y-108500000D01*
X177554500Y-110199999D02*
X177065000Y-110199999D01*
X179254499Y-108500000D02*
X177554500Y-110199999D01*
D84*
%TO.N,Net-(U3-VREG_LX)*%
X182000000Y-112900000D02*
X180899999Y-111799999D01*
X180899999Y-111799999D02*
X177065000Y-111799999D01*
D83*
%TO.N,/POE_IN_P*%
X132475000Y-102975000D02*
X132475000Y-102970000D01*
D85*
%TO.N,/LED_CTL_1*%
X173090000Y-114890000D02*
X173090000Y-113374999D01*
X175830000Y-116510000D02*
X174710000Y-116510000D01*
X179430000Y-116380000D02*
X179430000Y-115640000D01*
X174710000Y-116510000D02*
X173090000Y-114890000D01*
%TO.N,/LED_CTL_2*%
X180930500Y-116380000D02*
X180930500Y-115630500D01*
X176590000Y-117010000D02*
X174110000Y-117010000D01*
X172690000Y-115590000D02*
X172690000Y-113374999D01*
X174110000Y-117010000D02*
X172690000Y-115590000D01*
X180930500Y-115630500D02*
X180930000Y-115630000D01*
%TO.N,/LED_CTL_3*%
X178930500Y-118880000D02*
X178930500Y-119569500D01*
X177776000Y-120724000D02*
X174224000Y-120724000D01*
X172500000Y-119000000D02*
X172500000Y-116500000D01*
X174224000Y-120724000D02*
X172500000Y-119000000D01*
X172290000Y-116290000D02*
X172290000Y-113374999D01*
X172500000Y-116500000D02*
X172290000Y-116290000D01*
X178930500Y-118880000D02*
X179000000Y-118949500D01*
X178930500Y-119569500D02*
X177776000Y-120724000D01*
%TO.N,/LED_CTL_4*%
X180430000Y-118880000D02*
X180430000Y-119900000D01*
X180430000Y-119900000D02*
X178830000Y-121500000D01*
X171890000Y-118890000D02*
X171890000Y-113374999D01*
X178830000Y-121500000D02*
X174500000Y-121500000D01*
X174500000Y-121500000D02*
X171890000Y-118890000D01*
D82*
%TO.N,Net-(USB1-CC1)*%
X181250000Y-126000000D02*
X183915000Y-126000000D01*
D83*
%TO.N,Net-(C24-Pad1)*%
X162000000Y-149360033D02*
X162350000Y-149710033D01*
D82*
X158810000Y-148850000D02*
X159875000Y-149915000D01*
X159875000Y-149915000D02*
X159875000Y-150000000D01*
D83*
X162350000Y-149710033D02*
X160164967Y-149710033D01*
X160164967Y-149710033D02*
X159875000Y-150000000D01*
D82*
%TO.N,+5V*%
X198362122Y-124407583D02*
X198270000Y-124499705D01*
%TO.N,Net-(J6-Pin_1)*%
X193622122Y-120937878D02*
X193510000Y-121050000D01*
D84*
%TO.N,Net-(U11-SW)*%
X184566132Y-142888367D02*
X184596132Y-142858367D01*
X184566132Y-145258367D02*
X184566132Y-142888367D01*
%TO.N,Net-(U11-BOOT)*%
X186807557Y-145250000D02*
X185214499Y-145250000D01*
X185214499Y-145250000D02*
X185206132Y-145258367D01*
D82*
%TO.N,Net-(J8-Pin_3)*%
X191467557Y-146860000D02*
X191177557Y-147150000D01*
X191467557Y-146000000D02*
X191467557Y-146860000D01*
D83*
X193736132Y-136790000D02*
X193176132Y-137350000D01*
D84*
%TO.N,Net-(U7-VSET)*%
X192923259Y-130200000D02*
X193413259Y-130200000D01*
X193413259Y-130200000D02*
X194023259Y-130810000D01*
D82*
%TO.N,Net-(U11-FB)*%
X189077557Y-146900000D02*
X189907557Y-146900000D01*
X190517557Y-146790000D02*
X190157557Y-147150000D01*
X190517557Y-146210000D02*
X190517557Y-146790000D01*
X189907557Y-146900000D02*
X190157557Y-147150000D01*
%TO.N,Net-(U8-4Y)*%
X179930000Y-115870000D02*
X179930000Y-116380000D01*
X185730000Y-114950000D02*
X186473678Y-114950000D01*
X184500000Y-114960000D02*
X184260000Y-115200000D01*
X187399000Y-112399000D02*
X187399000Y-114024678D01*
X184000000Y-109000000D02*
X187399000Y-112399000D01*
X180600000Y-115200000D02*
X179930000Y-115870000D01*
X186473678Y-114950000D02*
X187399000Y-114024678D01*
X184000000Y-105960000D02*
X184000000Y-109000000D01*
X184260000Y-115200000D02*
X180600000Y-115200000D01*
%TO.N,Net-(U8-3Y)*%
X185770000Y-117340000D02*
X187950000Y-115160000D01*
X187950000Y-115160000D02*
X187950000Y-113010000D01*
X181430000Y-117380000D02*
X184500000Y-117380000D01*
%TO.N,Net-(U8-2Y)*%
X185765000Y-118235000D02*
X186325000Y-117675000D01*
X184380000Y-118880000D02*
X180930500Y-118880000D01*
X186325000Y-117675000D02*
X190315000Y-117675000D01*
X190315000Y-117675000D02*
X190740000Y-118100000D01*
X184390000Y-118870000D02*
X184380000Y-118880000D01*
%TO.N,Net-(U8-1Y)*%
X183370000Y-119360000D02*
X182490000Y-120240000D01*
X179430000Y-119630000D02*
X179430000Y-118880000D01*
X182490000Y-120240000D02*
X180670000Y-120240000D01*
X184250000Y-119360000D02*
X183370000Y-119360000D01*
D84*
%TO.N,Net-(U11-AGND)*%
X189077557Y-146400000D02*
X189704557Y-146400000D01*
D83*
X189925057Y-145782500D02*
X189925057Y-145182500D01*
D84*
X189925057Y-145782500D02*
X189925057Y-146179500D01*
D82*
X190502557Y-145175000D02*
X190517557Y-145190000D01*
D84*
X190517557Y-145190000D02*
X189932557Y-145190000D01*
X189925057Y-146179500D02*
X189704557Y-146400000D01*
D83*
X189925057Y-145182500D02*
X189917557Y-145175000D01*
D84*
X189932557Y-145190000D02*
X189917557Y-145175000D01*
D83*
%TO.N,Net-(U1-TYP2_DET)*%
X143735000Y-119310000D02*
X132475000Y-108050000D01*
X143735000Y-124695000D02*
X143735000Y-119310000D01*
D84*
%TO.N,/SDA1*%
X156237500Y-135000000D02*
X156762500Y-135000000D01*
D85*
%TO.N,Net-(J9-Pin_3)*%
X170947951Y-110150498D02*
X170349502Y-110150498D01*
X170349502Y-110150498D02*
X170300001Y-110199999D01*
X170300001Y-110199999D02*
X169915000Y-110199999D01*
%TO.N,Net-(J9-Pin_2)*%
X170502500Y-110599999D02*
X169915000Y-110599999D01*
D82*
%TO.N,Net-(U3-RUN)*%
X169431746Y-110999999D02*
X168931745Y-111500000D01*
X168931745Y-111500000D02*
X168050001Y-111500000D01*
X144000000Y-141150000D02*
X147000000Y-141150000D01*
X169915000Y-110999999D02*
X169431746Y-110999999D01*
X147000000Y-141150000D02*
X150000000Y-141150000D01*
X168050001Y-111500000D02*
X167700000Y-111850001D01*
X167700000Y-111850001D02*
X167700000Y-112080000D01*
%TO.N,Net-(J2-Pin_1)*%
X184900296Y-99650296D02*
X183930000Y-99650296D01*
X186500000Y-101250000D02*
X184900296Y-99650296D01*
X186500000Y-102750000D02*
X186500000Y-101250000D01*
X186250000Y-103000000D02*
X186500000Y-102750000D01*
X185500000Y-103000000D02*
X186250000Y-103000000D01*
X184000000Y-104500000D02*
X185500000Y-103000000D01*
%TD*%
%TA.AperFunction,Conductor*%
%TO.N,GND*%
G36*
X177308059Y-88201061D02*
G01*
X177413223Y-88214906D01*
X177444491Y-88223284D01*
X177534918Y-88260740D01*
X177562952Y-88276925D01*
X177640602Y-88336509D01*
X177663491Y-88359398D01*
X177723074Y-88437048D01*
X177739259Y-88465081D01*
X177776715Y-88555508D01*
X177785093Y-88586775D01*
X177798939Y-88691939D01*
X177800000Y-88708125D01*
X177800000Y-89811781D01*
X177798556Y-89830647D01*
X177779757Y-89952771D01*
X177768410Y-89988755D01*
X177717998Y-90090966D01*
X177696354Y-90121872D01*
X177617538Y-90204189D01*
X177587602Y-90227154D01*
X177501785Y-90274221D01*
X177442156Y-90289500D01*
X177380247Y-90289500D01*
X177321773Y-90301131D01*
X177321761Y-90301136D01*
X177319135Y-90302891D01*
X177311478Y-90305396D01*
X177310489Y-90305806D01*
X177310457Y-90305730D01*
X177255640Y-90323666D01*
X176973490Y-90335934D01*
X176905659Y-90319180D01*
X176899212Y-90315152D01*
X176878231Y-90301132D01*
X176878229Y-90301131D01*
X176819752Y-90289500D01*
X176819748Y-90289500D01*
X176580252Y-90289500D01*
X176580247Y-90289500D01*
X176521770Y-90301131D01*
X176521769Y-90301132D01*
X176463467Y-90340089D01*
X176399962Y-90360870D01*
X175909641Y-90382189D01*
X175889660Y-90381444D01*
X175797420Y-90370511D01*
X175759107Y-90359519D01*
X175684287Y-90324221D01*
X175651441Y-90301641D01*
X175591687Y-90244428D01*
X175567702Y-90212594D01*
X175529187Y-90139378D01*
X175516541Y-90101578D01*
X175501612Y-90009898D01*
X175500000Y-89989969D01*
X175500000Y-89769864D01*
X175501488Y-89750714D01*
X175520858Y-89626795D01*
X175532544Y-89590324D01*
X175588813Y-89478218D01*
X175598725Y-89461782D01*
X175623267Y-89427423D01*
X175678252Y-89384314D01*
X175724168Y-89375499D01*
X175738138Y-89375499D01*
X175785545Y-89369259D01*
X175889579Y-89320747D01*
X175970747Y-89239579D01*
X176019259Y-89135545D01*
X176025500Y-89088139D01*
X176025499Y-88904035D01*
X176045183Y-88836998D01*
X176048579Y-88831987D01*
X176344725Y-88417382D01*
X176357348Y-88402379D01*
X176447337Y-88311174D01*
X176478853Y-88288016D01*
X176583912Y-88233951D01*
X176621081Y-88221764D01*
X176727735Y-88204724D01*
X176747589Y-88201553D01*
X176767151Y-88200000D01*
X177291874Y-88200000D01*
X177308059Y-88201061D01*
G37*
%TD.AperFunction*%
%TD*%
%TA.AperFunction,Conductor*%
%TO.N,+1V1*%
G36*
X179576912Y-109601016D02*
G01*
X179679887Y-109614279D01*
X179710527Y-109622305D01*
X179805670Y-109660780D01*
X179806784Y-109661231D01*
X179821082Y-109668109D01*
X180071687Y-109809074D01*
X180499999Y-110050000D01*
X182676000Y-110050000D01*
X182743039Y-110069685D01*
X182788794Y-110122489D01*
X182800000Y-110174000D01*
X182800000Y-110991874D01*
X182798939Y-111008060D01*
X182785093Y-111113224D01*
X182776715Y-111144491D01*
X182739259Y-111234918D01*
X182723074Y-111262951D01*
X182663491Y-111340601D01*
X182640601Y-111363491D01*
X182562951Y-111423074D01*
X182534918Y-111439259D01*
X182444491Y-111476715D01*
X182413224Y-111485093D01*
X182319398Y-111497446D01*
X182308058Y-111498939D01*
X182291874Y-111500000D01*
X179817608Y-111500000D01*
X179800503Y-111498814D01*
X179773284Y-111495022D01*
X179689489Y-111483351D01*
X179656581Y-111474003D01*
X179561953Y-111432290D01*
X179532853Y-111414305D01*
X179453226Y-111348321D01*
X179430147Y-111323068D01*
X179366670Y-111230691D01*
X179357962Y-111215925D01*
X179250000Y-111000000D01*
X179188590Y-110877179D01*
X179175499Y-110821725D01*
X179175499Y-110761867D01*
X179175499Y-110761862D01*
X179169259Y-110714455D01*
X179120747Y-110610421D01*
X179039579Y-110529253D01*
X179039577Y-110529251D01*
X179007039Y-110514078D01*
X179000000Y-110500000D01*
X178976849Y-110500000D01*
X178951936Y-110488383D01*
X178951933Y-110488383D01*
X178935545Y-110480741D01*
X178935542Y-110480740D01*
X178935541Y-110480740D01*
X178888140Y-110474500D01*
X178524865Y-110474500D01*
X178511860Y-110471377D01*
X178501977Y-110472369D01*
X178468570Y-110460985D01*
X178422078Y-110437296D01*
X178390692Y-110414492D01*
X178335507Y-110359307D01*
X178312703Y-110327921D01*
X178277269Y-110258378D01*
X178265282Y-110221487D01*
X178263055Y-110207427D01*
X178272006Y-110138137D01*
X178297841Y-110100352D01*
X178761875Y-109636319D01*
X178823198Y-109602834D01*
X178849556Y-109600000D01*
X179561072Y-109600000D01*
X179576912Y-109601016D01*
G37*
%TD.AperFunction*%
%TD*%
%TA.AperFunction,Conductor*%
%TO.N,+1V1*%
G36*
X174432539Y-106219685D02*
G01*
X174478294Y-106272489D01*
X174489500Y-106324000D01*
X174489500Y-106672393D01*
X174489501Y-106672401D01*
X174495330Y-106701711D01*
X174517542Y-106734956D01*
X174524396Y-106739535D01*
X174550787Y-106757168D01*
X174550790Y-106757168D01*
X174550791Y-106757169D01*
X174586076Y-106764188D01*
X174585693Y-106766110D01*
X174642091Y-106788881D01*
X174682453Y-106845913D01*
X174685574Y-106915713D01*
X174684930Y-106918219D01*
X174674500Y-106957144D01*
X174674500Y-106957147D01*
X174674500Y-107042853D01*
X174692465Y-107109897D01*
X174696682Y-107125637D01*
X174696685Y-107125644D01*
X174739530Y-107199855D01*
X174739534Y-107199860D01*
X174739535Y-107199862D01*
X174800138Y-107260465D01*
X174800140Y-107260466D01*
X174800144Y-107260469D01*
X174851469Y-107290101D01*
X174874362Y-107303318D01*
X174957147Y-107325500D01*
X174957149Y-107325500D01*
X175042851Y-107325500D01*
X175042853Y-107325500D01*
X175125638Y-107303318D01*
X175199862Y-107260465D01*
X175223508Y-107236819D01*
X175284831Y-107203334D01*
X175311189Y-107200500D01*
X176304316Y-107200500D01*
X176304324Y-107200499D01*
X176403000Y-107200499D01*
X176470039Y-107220184D01*
X176515794Y-107272988D01*
X176527000Y-107324498D01*
X176527000Y-107509893D01*
X176527001Y-107509901D01*
X176532830Y-107539211D01*
X176537504Y-107550495D01*
X176533949Y-107551967D01*
X176548295Y-107597804D01*
X176534450Y-107648240D01*
X176537504Y-107649506D01*
X176532829Y-107660790D01*
X176527000Y-107690097D01*
X176527000Y-107909893D01*
X176527001Y-107909901D01*
X176532830Y-107939211D01*
X176537504Y-107950495D01*
X176533949Y-107951967D01*
X176548295Y-107997804D01*
X176534450Y-108048240D01*
X176537504Y-108049506D01*
X176532829Y-108060790D01*
X176527000Y-108090097D01*
X176527000Y-108309893D01*
X176527001Y-108309901D01*
X176532830Y-108339211D01*
X176537504Y-108350495D01*
X176533949Y-108351967D01*
X176548295Y-108397804D01*
X176534450Y-108448240D01*
X176537504Y-108449506D01*
X176532829Y-108460790D01*
X176527000Y-108490097D01*
X176527000Y-108709893D01*
X176527001Y-108709901D01*
X176532830Y-108739211D01*
X176537504Y-108750495D01*
X176533949Y-108751967D01*
X176548295Y-108797804D01*
X176534450Y-108848240D01*
X176537504Y-108849506D01*
X176532829Y-108860790D01*
X176527000Y-108890097D01*
X176527000Y-109109893D01*
X176527001Y-109109901D01*
X176532830Y-109139211D01*
X176537504Y-109150495D01*
X176533949Y-109151967D01*
X176548295Y-109197804D01*
X176534450Y-109248240D01*
X176537504Y-109249506D01*
X176532829Y-109260790D01*
X176527000Y-109290097D01*
X176527000Y-109509893D01*
X176527001Y-109509901D01*
X176532830Y-109539211D01*
X176537504Y-109550495D01*
X176533949Y-109551967D01*
X176548295Y-109597804D01*
X176534450Y-109648240D01*
X176537504Y-109649506D01*
X176532829Y-109660790D01*
X176527000Y-109690097D01*
X176527000Y-109909893D01*
X176527001Y-109909901D01*
X176532830Y-109939211D01*
X176537504Y-109950495D01*
X176533949Y-109951967D01*
X176548295Y-109997804D01*
X176534450Y-110048240D01*
X176537504Y-110049506D01*
X176532829Y-110060790D01*
X176527000Y-110090097D01*
X176527000Y-110309893D01*
X176527001Y-110309901D01*
X176532830Y-110339211D01*
X176537504Y-110350495D01*
X176533949Y-110351967D01*
X176548295Y-110397804D01*
X176534450Y-110448240D01*
X176537504Y-110449506D01*
X176532829Y-110460790D01*
X176527000Y-110490097D01*
X176527000Y-110709893D01*
X176527001Y-110709901D01*
X176532830Y-110739211D01*
X176555042Y-110772456D01*
X176559597Y-110775499D01*
X176588287Y-110794668D01*
X176588290Y-110794668D01*
X176588291Y-110794669D01*
X176598147Y-110796629D01*
X176617601Y-110800499D01*
X176687727Y-110800498D01*
X176716523Y-110808954D01*
X176745926Y-110815005D01*
X176749700Y-110818695D01*
X176754764Y-110820182D01*
X176774420Y-110842865D01*
X176795883Y-110863851D01*
X176797062Y-110868995D01*
X176800520Y-110872985D01*
X176804792Y-110902696D01*
X176811502Y-110931953D01*
X176809712Y-110936919D01*
X176810464Y-110942143D01*
X176797995Y-110969446D01*
X176787822Y-110997688D01*
X176782712Y-111002913D01*
X176781440Y-111005700D01*
X176763148Y-111022923D01*
X176762887Y-111023123D01*
X176734918Y-111039259D01*
X176644491Y-111076715D01*
X176613224Y-111085093D01*
X176519398Y-111097446D01*
X176508058Y-111098939D01*
X176491874Y-111100000D01*
X176454345Y-111100000D01*
X176422253Y-111095775D01*
X176342853Y-111074500D01*
X176257147Y-111074500D01*
X176177746Y-111095775D01*
X176145655Y-111100000D01*
X175414499Y-111100000D01*
X175347460Y-111080315D01*
X175301705Y-111027511D01*
X175290499Y-110976000D01*
X175290499Y-110452481D01*
X175294724Y-110420388D01*
X175294725Y-110420385D01*
X175315500Y-110342852D01*
X175315500Y-110257146D01*
X175306584Y-110223873D01*
X175294724Y-110179606D01*
X175290499Y-110147514D01*
X175290499Y-109452483D01*
X175294724Y-109420390D01*
X175295980Y-109415701D01*
X175315500Y-109342852D01*
X175315500Y-109257146D01*
X175301616Y-109205330D01*
X175294724Y-109179606D01*
X175290499Y-109147514D01*
X175290499Y-108452483D01*
X175294724Y-108420390D01*
X175300030Y-108400587D01*
X175315500Y-108342852D01*
X175315500Y-108257146D01*
X175299299Y-108196682D01*
X175294724Y-108179606D01*
X175290499Y-108147514D01*
X175290499Y-108090104D01*
X175290498Y-108090096D01*
X175284669Y-108060786D01*
X175262457Y-108027541D01*
X175229214Y-108005331D01*
X175229215Y-108005331D01*
X175229213Y-108005330D01*
X175229211Y-108005329D01*
X175229208Y-108005328D01*
X175199901Y-107999499D01*
X175199899Y-107999499D01*
X175142480Y-107999499D01*
X175110387Y-107995274D01*
X175107645Y-107994539D01*
X175032853Y-107974499D01*
X174947147Y-107974499D01*
X174869612Y-107995274D01*
X174837521Y-107999499D01*
X174142479Y-107999499D01*
X174110387Y-107995274D01*
X174032853Y-107974499D01*
X173947147Y-107974499D01*
X173869612Y-107995274D01*
X173837521Y-107999499D01*
X173142479Y-107999499D01*
X173110387Y-107995274D01*
X173032853Y-107974499D01*
X172947147Y-107974499D01*
X172869613Y-107995274D01*
X172837520Y-107999499D01*
X172142479Y-107999499D01*
X172110387Y-107995274D01*
X172032853Y-107974499D01*
X171947147Y-107974499D01*
X171947145Y-107974499D01*
X171869611Y-107995274D01*
X171837521Y-107999499D01*
X171780104Y-107999499D01*
X171780096Y-107999500D01*
X171750787Y-108005329D01*
X171717542Y-108027541D01*
X171695332Y-108060784D01*
X171695329Y-108060790D01*
X171689500Y-108090097D01*
X171689500Y-108147520D01*
X171685275Y-108179611D01*
X171664500Y-108257146D01*
X171664500Y-108342852D01*
X171685275Y-108420388D01*
X171689500Y-108452477D01*
X171689500Y-109147519D01*
X171685274Y-109179612D01*
X171664500Y-109257146D01*
X171664500Y-109342852D01*
X171685275Y-109420388D01*
X171689500Y-109452477D01*
X171689500Y-110147519D01*
X171685274Y-110179612D01*
X171664500Y-110257146D01*
X171664500Y-110342852D01*
X171681241Y-110405330D01*
X171685275Y-110420385D01*
X171689500Y-110452478D01*
X171689500Y-111147519D01*
X171685274Y-111179612D01*
X171664500Y-111257146D01*
X171664500Y-111342852D01*
X171676176Y-111386426D01*
X171685275Y-111420386D01*
X171689500Y-111452477D01*
X171689500Y-111509894D01*
X171689501Y-111509902D01*
X171695330Y-111539211D01*
X171717542Y-111572456D01*
X171734219Y-111583598D01*
X171750787Y-111594668D01*
X171780101Y-111600499D01*
X171837518Y-111600498D01*
X171869607Y-111604722D01*
X171947147Y-111625499D01*
X171947149Y-111625499D01*
X172032851Y-111625499D01*
X172032853Y-111625499D01*
X172110391Y-111604722D01*
X172142483Y-111600498D01*
X172837516Y-111600498D01*
X172869609Y-111604723D01*
X172875459Y-111606290D01*
X172947147Y-111625499D01*
X172947149Y-111625499D01*
X173032851Y-111625499D01*
X173032853Y-111625499D01*
X173110391Y-111604722D01*
X173142483Y-111600498D01*
X173837515Y-111600498D01*
X173869605Y-111604721D01*
X173908094Y-111615034D01*
X173967752Y-111651397D01*
X173998283Y-111714243D01*
X174000000Y-111734809D01*
X174000000Y-112891874D01*
X173998939Y-112908060D01*
X173985093Y-113013224D01*
X173976715Y-113044491D01*
X173939259Y-113134918D01*
X173923076Y-113162949D01*
X173912377Y-113176893D01*
X173855950Y-113218097D01*
X173786204Y-113222254D01*
X173725283Y-113188043D01*
X173692528Y-113126327D01*
X173689999Y-113101409D01*
X173689999Y-112927604D01*
X173689998Y-112927596D01*
X173684169Y-112898286D01*
X173661957Y-112865041D01*
X173630997Y-112844356D01*
X173628713Y-112842830D01*
X173628711Y-112842829D01*
X173628708Y-112842828D01*
X173599401Y-112836999D01*
X173379605Y-112836999D01*
X173379597Y-112837000D01*
X173350287Y-112842829D01*
X173339004Y-112847503D01*
X173337500Y-112843872D01*
X173291912Y-112858127D01*
X173241796Y-112844356D01*
X173240493Y-112847503D01*
X173229208Y-112842828D01*
X173199901Y-112836999D01*
X172980105Y-112836999D01*
X172980097Y-112837000D01*
X172950787Y-112842829D01*
X172939504Y-112847503D01*
X172938032Y-112843951D01*
X172892166Y-112858294D01*
X172841759Y-112844445D01*
X172840493Y-112847503D01*
X172829208Y-112842828D01*
X172799901Y-112836999D01*
X172580105Y-112836999D01*
X172580097Y-112837000D01*
X172550787Y-112842829D01*
X172539504Y-112847503D01*
X172538032Y-112843951D01*
X172492166Y-112858294D01*
X172441759Y-112844445D01*
X172440493Y-112847503D01*
X172429208Y-112842828D01*
X172399901Y-112836999D01*
X172180105Y-112836999D01*
X172180097Y-112837000D01*
X172150787Y-112842829D01*
X172139504Y-112847503D01*
X172138032Y-112843951D01*
X172092166Y-112858294D01*
X172041759Y-112844445D01*
X172040493Y-112847503D01*
X172029208Y-112842828D01*
X171999901Y-112836999D01*
X171780105Y-112836999D01*
X171780097Y-112837000D01*
X171750787Y-112842829D01*
X171739504Y-112847503D01*
X171738065Y-112844029D01*
X171691919Y-112858461D01*
X171641222Y-112844534D01*
X171639993Y-112847503D01*
X171628708Y-112842828D01*
X171599401Y-112836999D01*
X171379605Y-112836999D01*
X171379597Y-112837000D01*
X171350287Y-112842829D01*
X171339004Y-112847503D01*
X171337500Y-112843872D01*
X171291912Y-112858127D01*
X171241796Y-112844356D01*
X171240493Y-112847503D01*
X171229208Y-112842828D01*
X171199901Y-112836999D01*
X170980105Y-112836999D01*
X170980097Y-112837000D01*
X170950787Y-112842829D01*
X170939504Y-112847503D01*
X170938032Y-112843951D01*
X170892166Y-112858294D01*
X170844330Y-112849597D01*
X170832075Y-112844742D01*
X170829213Y-112842830D01*
X170825265Y-112842044D01*
X170814813Y-112837904D01*
X170795775Y-112823043D01*
X170774374Y-112811847D01*
X170772801Y-112810301D01*
X170479697Y-112517197D01*
X170454463Y-112470984D01*
X170451843Y-112472070D01*
X170442496Y-112449503D01*
X170446051Y-112448030D01*
X170431705Y-112402207D01*
X170445547Y-112351755D01*
X170442496Y-112350492D01*
X170447166Y-112339216D01*
X170447169Y-112339212D01*
X170453000Y-112309898D01*
X170452999Y-112090101D01*
X170447169Y-112060786D01*
X170442496Y-112049503D01*
X170446051Y-112048030D01*
X170431705Y-112002207D01*
X170445547Y-111951755D01*
X170442496Y-111950492D01*
X170447166Y-111939216D01*
X170447169Y-111939212D01*
X170453000Y-111909898D01*
X170452999Y-111690101D01*
X170447169Y-111660786D01*
X170442496Y-111649503D01*
X170446051Y-111648030D01*
X170431705Y-111602207D01*
X170445547Y-111551755D01*
X170442496Y-111550492D01*
X170447166Y-111539216D01*
X170447169Y-111539212D01*
X170453000Y-111509898D01*
X170452999Y-111290101D01*
X170447169Y-111260786D01*
X170442496Y-111249503D01*
X170446051Y-111248030D01*
X170431705Y-111202207D01*
X170432847Y-111183063D01*
X170436740Y-111154819D01*
X170447169Y-111139212D01*
X170453000Y-111109898D01*
X170452999Y-111036882D01*
X170454161Y-111028458D01*
X170465141Y-111004038D01*
X170472683Y-110978355D01*
X170479250Y-110972664D01*
X170482816Y-110964735D01*
X170505255Y-110950129D01*
X170525486Y-110932599D01*
X170540458Y-110927216D01*
X170541374Y-110926621D01*
X170542128Y-110926616D01*
X170544906Y-110925618D01*
X170545350Y-110925499D01*
X170545353Y-110925499D01*
X170628138Y-110903317D01*
X170702362Y-110860464D01*
X170762965Y-110799861D01*
X170805818Y-110725637D01*
X170828000Y-110642852D01*
X170828000Y-110599998D01*
X170847685Y-110532959D01*
X170900489Y-110487204D01*
X170952000Y-110475998D01*
X170990802Y-110475998D01*
X170990804Y-110475998D01*
X171073589Y-110453816D01*
X171147813Y-110410963D01*
X171208416Y-110350360D01*
X171251269Y-110276136D01*
X171273451Y-110193351D01*
X171273451Y-110107645D01*
X171251269Y-110024860D01*
X171251265Y-110024853D01*
X171208420Y-109950642D01*
X171208414Y-109950634D01*
X171147814Y-109890034D01*
X171147806Y-109890028D01*
X171073595Y-109847183D01*
X171073591Y-109847181D01*
X171073589Y-109847180D01*
X170990804Y-109824998D01*
X170905098Y-109824998D01*
X170822313Y-109847180D01*
X170822306Y-109847183D01*
X170748095Y-109890028D01*
X170748087Y-109890034D01*
X170699443Y-109938679D01*
X170638120Y-109972164D01*
X170611762Y-109974998D01*
X170314591Y-109974998D01*
X170287822Y-109986086D01*
X170278228Y-109990060D01*
X170270052Y-109991686D01*
X170265712Y-109994476D01*
X170230777Y-109999499D01*
X170124000Y-109999499D01*
X170056961Y-109979814D01*
X170011206Y-109927010D01*
X170000000Y-109875499D01*
X170000000Y-109724498D01*
X170019685Y-109657459D01*
X170072489Y-109611704D01*
X170124000Y-109600498D01*
X170362395Y-109600498D01*
X170362398Y-109600498D01*
X170391713Y-109594668D01*
X170424957Y-109572456D01*
X170447169Y-109539212D01*
X170453000Y-109509898D01*
X170452999Y-109290101D01*
X170447169Y-109260786D01*
X170442496Y-109249503D01*
X170446051Y-109248030D01*
X170431705Y-109202207D01*
X170445547Y-109151755D01*
X170442496Y-109150492D01*
X170447166Y-109139216D01*
X170447169Y-109139212D01*
X170453000Y-109109898D01*
X170452999Y-108917916D01*
X170472683Y-108850877D01*
X170525487Y-108805122D01*
X170594645Y-108795178D01*
X170622339Y-108802775D01*
X170624358Y-108803316D01*
X170624362Y-108803318D01*
X170707147Y-108825500D01*
X170707149Y-108825500D01*
X170792851Y-108825500D01*
X170792853Y-108825500D01*
X170875638Y-108803318D01*
X170949862Y-108760465D01*
X171010465Y-108699862D01*
X171053318Y-108625638D01*
X171075500Y-108542853D01*
X171075500Y-108457147D01*
X171053318Y-108374362D01*
X171052218Y-108372456D01*
X171010469Y-108300144D01*
X171010463Y-108300136D01*
X170949863Y-108239536D01*
X170949862Y-108239535D01*
X170937480Y-108232386D01*
X170889267Y-108181822D01*
X170876042Y-108113216D01*
X170902009Y-108048350D01*
X170937479Y-108017613D01*
X170949862Y-108010465D01*
X171010465Y-107949862D01*
X171053318Y-107875638D01*
X171075500Y-107792853D01*
X171075500Y-107707147D01*
X171053318Y-107624362D01*
X171039252Y-107599998D01*
X171010469Y-107550144D01*
X171010463Y-107550136D01*
X170949863Y-107489536D01*
X170949862Y-107489535D01*
X170937480Y-107482386D01*
X170889267Y-107431822D01*
X170876042Y-107363216D01*
X170902009Y-107298350D01*
X170920949Y-107279038D01*
X170928749Y-107272654D01*
X170949862Y-107260465D01*
X170977878Y-107232448D01*
X170982657Y-107228538D01*
X171009374Y-107217234D01*
X171034831Y-107203334D01*
X171044750Y-107202267D01*
X171047004Y-107201314D01*
X171049542Y-107201752D01*
X171061189Y-107200500D01*
X173188811Y-107200500D01*
X173255850Y-107220185D01*
X173276492Y-107236819D01*
X173300138Y-107260465D01*
X173300140Y-107260466D01*
X173300144Y-107260469D01*
X173351469Y-107290101D01*
X173374362Y-107303318D01*
X173457147Y-107325500D01*
X173457149Y-107325500D01*
X173542851Y-107325500D01*
X173542853Y-107325500D01*
X173625638Y-107303318D01*
X173699862Y-107260465D01*
X173760465Y-107199862D01*
X173803318Y-107125638D01*
X173825500Y-107042853D01*
X173825500Y-106957147D01*
X173815303Y-106919091D01*
X173816965Y-106849243D01*
X173856126Y-106791380D01*
X173920355Y-106763875D01*
X173935072Y-106762998D01*
X173999898Y-106762998D01*
X174029213Y-106757168D01*
X174062457Y-106734956D01*
X174084669Y-106701712D01*
X174090500Y-106672398D01*
X174090499Y-106323997D01*
X174093049Y-106315313D01*
X174091761Y-106306353D01*
X174102738Y-106282316D01*
X174110183Y-106256961D01*
X174117025Y-106251032D01*
X174120786Y-106242797D01*
X174143017Y-106228510D01*
X174162987Y-106211206D01*
X174173502Y-106208918D01*
X174179564Y-106205023D01*
X174214499Y-106200000D01*
X174365500Y-106200000D01*
X174432539Y-106219685D01*
G37*
%TD.AperFunction*%
%TD*%
%TA.AperFunction,Conductor*%
%TO.N,+24V*%
G36*
X186477751Y-145909422D02*
G01*
X186582637Y-145923192D01*
X186613825Y-145931525D01*
X186704043Y-145968780D01*
X186732023Y-145984881D01*
X186809568Y-146044162D01*
X186832444Y-146066939D01*
X186892061Y-146144229D01*
X186908283Y-146172139D01*
X186942912Y-146254980D01*
X186950946Y-146283201D01*
X186951310Y-146285474D01*
X186951847Y-146289861D01*
X186964314Y-146366696D01*
X186964312Y-146366709D01*
X186964747Y-146369625D01*
X186968620Y-146398166D01*
X186969745Y-146414304D01*
X186970259Y-146533144D01*
X186992394Y-151650000D01*
X184176132Y-151650000D01*
X184176132Y-146416492D01*
X184177193Y-146400307D01*
X184191038Y-146295143D01*
X184199416Y-146263875D01*
X184236872Y-146173446D01*
X184253055Y-146145417D01*
X184312645Y-146067759D01*
X184335524Y-146044880D01*
X184413182Y-145985290D01*
X184441211Y-145969107D01*
X184531641Y-145931650D01*
X184562907Y-145923273D01*
X184668073Y-145909428D01*
X184684258Y-145908367D01*
X186461610Y-145908367D01*
X186477751Y-145909422D01*
G37*
%TD.AperFunction*%
%TD*%
%TA.AperFunction,Conductor*%
%TO.N,+3V3*%
G36*
X191181318Y-127251061D02*
G01*
X191286482Y-127264906D01*
X191317750Y-127273284D01*
X191408177Y-127310740D01*
X191436211Y-127326925D01*
X191513861Y-127386509D01*
X191536750Y-127409398D01*
X191596333Y-127487048D01*
X191612518Y-127515081D01*
X191649974Y-127605508D01*
X191658352Y-127636775D01*
X191672198Y-127741939D01*
X191673259Y-127758125D01*
X191673259Y-130521016D01*
X191672921Y-130530166D01*
X191668491Y-130590039D01*
X191665797Y-130608143D01*
X191652604Y-130666701D01*
X191650264Y-130675551D01*
X191440975Y-131363223D01*
X191436049Y-131379407D01*
X191436046Y-131379415D01*
X191433428Y-131388015D01*
X191427875Y-131402802D01*
X191385444Y-131497062D01*
X191368942Y-131523946D01*
X191309105Y-131598236D01*
X191286356Y-131620084D01*
X191214841Y-131673074D01*
X191209716Y-131676871D01*
X191182188Y-131692274D01*
X191093697Y-131727886D01*
X191063175Y-131735845D01*
X191019956Y-131741387D01*
X191003533Y-131743493D01*
X190987763Y-131744500D01*
X186431385Y-131744500D01*
X186426455Y-131744661D01*
X186424478Y-131744726D01*
X186409107Y-131745734D01*
X186384813Y-131744938D01*
X186310034Y-131735093D01*
X186278767Y-131726715D01*
X186188340Y-131689259D01*
X186160307Y-131673074D01*
X186082657Y-131613491D01*
X186059767Y-131590601D01*
X186000184Y-131512951D01*
X185983999Y-131484918D01*
X185946543Y-131394491D01*
X185938165Y-131363223D01*
X185924320Y-131258059D01*
X185923259Y-131241874D01*
X185923259Y-127758125D01*
X185924320Y-127741940D01*
X185938165Y-127636776D01*
X185938165Y-127636775D01*
X185946543Y-127605508D01*
X185983999Y-127515081D01*
X186000182Y-127487050D01*
X186059772Y-127409392D01*
X186082651Y-127386513D01*
X186160309Y-127326923D01*
X186188338Y-127310740D01*
X186278768Y-127273283D01*
X186310034Y-127264906D01*
X186415200Y-127251061D01*
X186431385Y-127250000D01*
X191165133Y-127250000D01*
X191181318Y-127251061D01*
G37*
%TD.AperFunction*%
%TD*%
%TA.AperFunction,Conductor*%
%TO.N,GND*%
G36*
X192431318Y-131601061D02*
G01*
X192536482Y-131614906D01*
X192567750Y-131623284D01*
X192658177Y-131660740D01*
X192686211Y-131676925D01*
X192763861Y-131736509D01*
X192786750Y-131759398D01*
X192846333Y-131837048D01*
X192862518Y-131865081D01*
X192899974Y-131955508D01*
X192908352Y-131986775D01*
X192922198Y-132091939D01*
X192923259Y-132108125D01*
X192923259Y-134841874D01*
X192922198Y-134858059D01*
X192922198Y-134858060D01*
X192908352Y-134963224D01*
X192899974Y-134994491D01*
X192862518Y-135084918D01*
X192846333Y-135112951D01*
X192786750Y-135190601D01*
X192763860Y-135213491D01*
X192686210Y-135273074D01*
X192658177Y-135289259D01*
X192567750Y-135326715D01*
X192536483Y-135335093D01*
X192442657Y-135347446D01*
X192431317Y-135348939D01*
X192415133Y-135350000D01*
X186431385Y-135350000D01*
X186415200Y-135348939D01*
X186402176Y-135347224D01*
X186310034Y-135335093D01*
X186278767Y-135326715D01*
X186188340Y-135289259D01*
X186160307Y-135273074D01*
X186082657Y-135213491D01*
X186059767Y-135190601D01*
X186000184Y-135112951D01*
X185983999Y-135084918D01*
X185946543Y-134994491D01*
X185938165Y-134963223D01*
X185924320Y-134858059D01*
X185923259Y-134841874D01*
X185923259Y-132358125D01*
X185924320Y-132341940D01*
X185938165Y-132236776D01*
X185946543Y-132205508D01*
X185983999Y-132115081D01*
X186000182Y-132087050D01*
X186059772Y-132009392D01*
X186082651Y-131986513D01*
X186160309Y-131926923D01*
X186188338Y-131910740D01*
X186278768Y-131873283D01*
X186310034Y-131864906D01*
X186415200Y-131851061D01*
X186431385Y-131850000D01*
X191323258Y-131850000D01*
X191323259Y-131850000D01*
X191623259Y-131725000D01*
X191825303Y-131640815D01*
X191836793Y-131636679D01*
X191913470Y-131613288D01*
X191937403Y-131608501D01*
X192017178Y-131600602D01*
X192029378Y-131600000D01*
X192415133Y-131600000D01*
X192431318Y-131601061D01*
G37*
%TD.AperFunction*%
%TD*%
%TA.AperFunction,Conductor*%
%TO.N,Net-(J8-Pin_3)*%
G36*
X200036181Y-135019685D02*
G01*
X200081936Y-135072489D01*
X200091880Y-135141647D01*
X200088755Y-135156693D01*
X199933251Y-135725637D01*
X199932804Y-135727229D01*
X199769143Y-136296074D01*
X199768675Y-136297661D01*
X199597399Y-136864407D01*
X199596910Y-136865987D01*
X199418134Y-137430254D01*
X199417624Y-137431827D01*
X199231320Y-137993712D01*
X199230789Y-137995279D01*
X199084829Y-138416592D01*
X199044283Y-138473494D01*
X198979411Y-138499442D01*
X198967661Y-138500000D01*
X193267443Y-138500000D01*
X193243703Y-138497706D01*
X193175682Y-138484438D01*
X193173259Y-138478586D01*
X193173259Y-135716396D01*
X193175641Y-135692207D01*
X193183990Y-135650233D01*
X193202504Y-135605539D01*
X193219361Y-135580311D01*
X193253570Y-135546102D01*
X193260224Y-135541655D01*
X193278798Y-135529245D01*
X193323492Y-135510731D01*
X193365470Y-135502381D01*
X193389655Y-135500000D01*
X197000000Y-135500000D01*
X198065698Y-135073721D01*
X198155148Y-135037941D01*
X198166228Y-135034109D01*
X198240396Y-135012349D01*
X198263500Y-135007899D01*
X198340430Y-135000559D01*
X198352190Y-135000000D01*
X199969142Y-135000000D01*
X200036181Y-135019685D01*
G37*
%TD.AperFunction*%
%TD*%
%TA.AperFunction,Conductor*%
%TO.N,Net-(J8-Pin_3)*%
G36*
X193173259Y-138457172D02*
G01*
X188800014Y-138453002D01*
X188732993Y-138433253D01*
X188687289Y-138380406D01*
X188676132Y-138329002D01*
X188676132Y-137708367D01*
X184056493Y-137700667D01*
X183989487Y-137680871D01*
X183943820Y-137627990D01*
X183932702Y-137577159D01*
X183930469Y-137009932D01*
X183928140Y-136418481D01*
X183929142Y-136402254D01*
X183942641Y-136296777D01*
X183950937Y-136265404D01*
X183988220Y-136174637D01*
X184004370Y-136146497D01*
X184063924Y-136068516D01*
X184086822Y-136045526D01*
X184164573Y-135985663D01*
X184192646Y-135969406D01*
X184283266Y-135931765D01*
X184314599Y-135923348D01*
X184405874Y-135911300D01*
X184420028Y-135909433D01*
X184436253Y-135908367D01*
X193173259Y-135908367D01*
X193173259Y-138457172D01*
G37*
%TD.AperFunction*%
%TD*%
%TA.AperFunction,Conductor*%
%TO.N,+24V*%
G36*
X136530157Y-147518848D02*
G01*
X142493542Y-151245964D01*
X142505917Y-151254798D01*
X151750000Y-158750000D01*
X178249999Y-158750000D01*
X178250000Y-158750000D01*
X180250000Y-156500000D01*
X180250000Y-151774000D01*
X180269685Y-151706961D01*
X180322489Y-151661206D01*
X180374000Y-151650000D01*
X184176132Y-151650000D01*
X186992394Y-151650000D01*
X187026588Y-151650000D01*
X187046002Y-151728824D01*
X187045930Y-151730441D01*
X187046709Y-151731860D01*
X187049599Y-151758935D01*
X187031908Y-156570641D01*
X187011977Y-156637608D01*
X186990635Y-156662556D01*
X186553552Y-157053999D01*
X186552313Y-157055094D01*
X186106077Y-157444136D01*
X186104823Y-157445215D01*
X185653463Y-157828245D01*
X185652246Y-157829265D01*
X185195806Y-158206249D01*
X185194524Y-158207294D01*
X184733041Y-158578201D01*
X184731745Y-158579228D01*
X184265473Y-158943854D01*
X184264163Y-158944865D01*
X183793009Y-159303284D01*
X183791686Y-159304276D01*
X183315783Y-159656385D01*
X183314446Y-159657360D01*
X182833910Y-160003073D01*
X182832561Y-160004030D01*
X182347463Y-160343298D01*
X182346101Y-160344237D01*
X181856552Y-160676981D01*
X181855209Y-160677881D01*
X181841403Y-160686998D01*
X181774616Y-160707515D01*
X181773072Y-160707525D01*
X143981635Y-160707525D01*
X143914596Y-160687840D01*
X143902619Y-160679088D01*
X133532573Y-152103858D01*
X133493456Y-152045969D01*
X133491845Y-151976118D01*
X133511276Y-151935418D01*
X133546662Y-151886715D01*
X133636201Y-151710985D01*
X133697147Y-151523412D01*
X133717786Y-151393102D01*
X133728000Y-151328618D01*
X133728000Y-151131381D01*
X133707740Y-151003470D01*
X133697147Y-150936588D01*
X133665703Y-150839812D01*
X133636202Y-150749017D01*
X133636201Y-150749015D01*
X133546662Y-150573285D01*
X133430735Y-150413725D01*
X133291275Y-150274265D01*
X133131715Y-150158338D01*
X133030372Y-150106701D01*
X132955982Y-150068797D01*
X132768413Y-150007853D01*
X132573618Y-149977000D01*
X132573613Y-149977000D01*
X132483027Y-149977000D01*
X132450000Y-147500000D01*
X136464437Y-147500000D01*
X136530157Y-147518848D01*
G37*
%TD.AperFunction*%
%TD*%
%TA.AperFunction,Conductor*%
%TO.N,Net-(U11-SW)*%
G36*
X185181103Y-143285266D02*
G01*
X186347495Y-143296503D01*
X187322059Y-143304322D01*
X187338151Y-143305501D01*
X187356128Y-143308002D01*
X187442687Y-143320046D01*
X187473730Y-143328587D01*
X187563479Y-143366397D01*
X187591282Y-143382648D01*
X187668263Y-143442292D01*
X187690943Y-143465154D01*
X187749969Y-143542613D01*
X187765997Y-143570548D01*
X187803082Y-143660591D01*
X187811376Y-143691709D01*
X187821684Y-143770411D01*
X187823429Y-143783736D01*
X187825082Y-143796352D01*
X187826132Y-143812456D01*
X187826132Y-146025500D01*
X187806447Y-146092539D01*
X187753643Y-146138294D01*
X187702136Y-146149500D01*
X187677664Y-146149500D01*
X187677654Y-146149501D01*
X187648344Y-146155330D01*
X187615099Y-146177542D01*
X187592889Y-146210785D01*
X187592886Y-146210791D01*
X187587057Y-146240098D01*
X187587057Y-146520246D01*
X187577428Y-146553035D01*
X187568192Y-146585992D01*
X187567596Y-146586521D01*
X187567372Y-146587285D01*
X187541551Y-146609658D01*
X187515957Y-146632396D01*
X187514956Y-146632703D01*
X187514568Y-146633040D01*
X187482221Y-146642755D01*
X187460505Y-146646153D01*
X187421766Y-146646087D01*
X187341211Y-146633207D01*
X187304476Y-146621237D01*
X187231748Y-146584165D01*
X187200482Y-146561473D01*
X187142693Y-146503818D01*
X187119928Y-146472605D01*
X187082684Y-146399952D01*
X187070635Y-146363254D01*
X187055985Y-146272964D01*
X187054385Y-146253654D01*
X187053672Y-146092539D01*
X187050248Y-145318679D01*
X187058057Y-145299828D01*
X187058057Y-145200172D01*
X187049633Y-145179836D01*
X187048328Y-144884686D01*
X187046132Y-144388367D01*
X185617612Y-144384146D01*
X184375551Y-144380477D01*
X184356349Y-144378924D01*
X184232128Y-144359072D01*
X184195594Y-144347208D01*
X184092129Y-144294713D01*
X184060981Y-144272237D01*
X183978551Y-144190597D01*
X183955774Y-144159664D01*
X183902286Y-144056715D01*
X183890069Y-144020294D01*
X183869020Y-143896271D01*
X183867282Y-143877086D01*
X183866209Y-143791967D01*
X183867092Y-143775567D01*
X183879987Y-143668761D01*
X183888200Y-143636987D01*
X183925536Y-143545024D01*
X183941794Y-143516522D01*
X184001955Y-143437575D01*
X184025130Y-143414333D01*
X184103893Y-143353943D01*
X184132351Y-143337596D01*
X184224204Y-143299987D01*
X184255949Y-143291683D01*
X184362707Y-143278472D01*
X184379117Y-143277540D01*
X185181103Y-143285266D01*
G37*
%TD.AperFunction*%
%TD*%
%TA.AperFunction,Conductor*%
%TO.N,GND*%
G36*
X180532976Y-112059935D02*
G01*
X180534914Y-112060738D01*
X180562946Y-112076921D01*
X180640607Y-112136513D01*
X180663491Y-112159398D01*
X180723074Y-112237048D01*
X180739259Y-112265081D01*
X180776715Y-112355508D01*
X180785093Y-112386775D01*
X180798939Y-112491939D01*
X180800000Y-112508125D01*
X180800000Y-113891874D01*
X180798939Y-113908060D01*
X180785093Y-114013224D01*
X180776715Y-114044491D01*
X180739259Y-114134918D01*
X180723074Y-114162951D01*
X180663491Y-114240601D01*
X180640601Y-114263491D01*
X180562951Y-114323074D01*
X180534918Y-114339259D01*
X180444491Y-114376715D01*
X180413224Y-114385093D01*
X180319398Y-114397446D01*
X180308058Y-114398939D01*
X180291874Y-114400000D01*
X179000000Y-114400000D01*
X179000000Y-114891874D01*
X178998939Y-114908059D01*
X178998939Y-114908060D01*
X178985093Y-115013224D01*
X178976715Y-115044491D01*
X178939259Y-115134918D01*
X178923074Y-115162951D01*
X178863491Y-115240601D01*
X178840601Y-115263491D01*
X178762951Y-115323074D01*
X178734918Y-115339259D01*
X178644491Y-115376715D01*
X178613224Y-115385093D01*
X178519398Y-115397446D01*
X178508058Y-115398939D01*
X178491874Y-115400000D01*
X178308126Y-115400000D01*
X178291941Y-115398939D01*
X178278917Y-115397224D01*
X178186775Y-115385093D01*
X178155508Y-115376715D01*
X178065081Y-115339259D01*
X178037048Y-115323074D01*
X177959398Y-115263491D01*
X177936508Y-115240601D01*
X177876925Y-115162951D01*
X177860740Y-115134918D01*
X177823284Y-115044491D01*
X177814906Y-115013223D01*
X177801061Y-114908059D01*
X177800000Y-114891874D01*
X177800000Y-112508125D01*
X177801061Y-112491940D01*
X177814906Y-112386776D01*
X177814906Y-112386775D01*
X177823284Y-112355508D01*
X177860740Y-112265081D01*
X177876923Y-112237050D01*
X177936513Y-112159392D01*
X177959388Y-112136516D01*
X178037056Y-112076919D01*
X178065101Y-112060731D01*
X178067045Y-112059926D01*
X178114470Y-112050499D01*
X180485530Y-112050499D01*
X180532976Y-112059935D01*
G37*
%TD.AperFunction*%
%TD*%
%TA.AperFunction,Conductor*%
%TO.N,GND*%
G36*
X198611804Y-139428052D02*
G01*
X198657559Y-139480856D01*
X198667503Y-139550014D01*
X198660809Y-139576064D01*
X198642692Y-139624170D01*
X198626023Y-139668431D01*
X198625430Y-139669974D01*
X198409394Y-140221194D01*
X198408780Y-140222730D01*
X198185465Y-140770887D01*
X198184831Y-140772415D01*
X197954162Y-141317693D01*
X197953507Y-141319212D01*
X197715622Y-141861276D01*
X197714947Y-141862786D01*
X197469853Y-142401627D01*
X197469158Y-142403129D01*
X197216898Y-142938651D01*
X197216184Y-142940142D01*
X196956787Y-143472288D01*
X196956052Y-143473770D01*
X196689581Y-144002401D01*
X196688826Y-144003874D01*
X196415360Y-144528839D01*
X196414587Y-144530300D01*
X196337284Y-144673986D01*
X196134084Y-145051681D01*
X196133336Y-145053050D01*
X195845897Y-145570651D01*
X195845084Y-145572091D01*
X195550851Y-146085667D01*
X195550019Y-146087097D01*
X195248881Y-146596837D01*
X195248030Y-146598256D01*
X194940178Y-147103834D01*
X194939309Y-147105241D01*
X194624714Y-147606712D01*
X194623826Y-147608107D01*
X194302577Y-148105324D01*
X194301670Y-148106708D01*
X193973786Y-148599643D01*
X193972860Y-148601014D01*
X193638526Y-149089391D01*
X193637583Y-149090750D01*
X193296626Y-149574817D01*
X193295664Y-149576163D01*
X192948364Y-150055523D01*
X192947385Y-150056855D01*
X192593728Y-150531534D01*
X192592731Y-150532855D01*
X192232715Y-151002846D01*
X192231700Y-151004152D01*
X191865504Y-151469229D01*
X191864472Y-151470522D01*
X191492018Y-151930777D01*
X191490979Y-151932042D01*
X191390387Y-152053013D01*
X191112542Y-152387142D01*
X191111476Y-152388406D01*
X190726917Y-152838513D01*
X190725834Y-152839764D01*
X190335352Y-153284649D01*
X190334253Y-153285885D01*
X189937843Y-153725553D01*
X189936727Y-153726774D01*
X189534506Y-154161095D01*
X189533374Y-154162301D01*
X189125368Y-154591245D01*
X189124220Y-154592436D01*
X188710509Y-155015919D01*
X188709345Y-155017094D01*
X188290110Y-155434933D01*
X188288931Y-155436093D01*
X187864136Y-155848325D01*
X187862941Y-155849469D01*
X187635293Y-156064564D01*
X187573045Y-156096298D01*
X187503523Y-156089340D01*
X187448799Y-156045900D01*
X187426247Y-155979770D01*
X187426132Y-155974433D01*
X187426132Y-146861985D01*
X187433366Y-146837347D01*
X187436705Y-146811881D01*
X187443048Y-146804372D01*
X187445817Y-146794946D01*
X187465220Y-146778132D01*
X187481799Y-146758512D01*
X187494985Y-146752341D01*
X187498621Y-146749191D01*
X187513719Y-146743452D01*
X187514007Y-146743363D01*
X187544914Y-146734081D01*
X187545786Y-146733600D01*
X187546857Y-146733271D01*
X187546870Y-146733265D01*
X187546891Y-146733259D01*
X187570752Y-146719849D01*
X187583749Y-146712691D01*
X187584137Y-146712354D01*
X187584121Y-146712336D01*
X187586026Y-146711266D01*
X187610570Y-146689461D01*
X187610582Y-146689450D01*
X187611132Y-146688960D01*
X187636458Y-146667018D01*
X187637279Y-146665736D01*
X187638220Y-146664902D01*
X187638223Y-146664896D01*
X187638225Y-146664895D01*
X187653280Y-146640829D01*
X187668610Y-146616967D01*
X187668834Y-146616203D01*
X187668712Y-146616166D01*
X187669770Y-146614477D01*
X187669774Y-146614465D01*
X187669778Y-146614461D01*
X187678653Y-146582788D01*
X187679053Y-146581399D01*
X187688279Y-146549981D01*
X187688282Y-146549972D01*
X187692557Y-146520246D01*
X187692557Y-146358589D01*
X187712242Y-146291550D01*
X187754682Y-146251130D01*
X187768903Y-146242941D01*
X187776071Y-146241382D01*
X187822731Y-146218026D01*
X187843641Y-146199907D01*
X187853961Y-146193965D01*
X187876806Y-146188450D01*
X187898183Y-146178687D01*
X187899434Y-146178514D01*
X187918082Y-146176059D01*
X187934256Y-146175000D01*
X188052132Y-146175000D01*
X188119171Y-146194685D01*
X188164926Y-146247489D01*
X188176132Y-146299000D01*
X188176132Y-148658367D01*
X191926131Y-148658367D01*
X191926132Y-148658367D01*
X191907557Y-143908367D01*
X189050132Y-143908367D01*
X188983093Y-143888682D01*
X188937338Y-143835878D01*
X188926132Y-143784367D01*
X188926132Y-142885301D01*
X188920391Y-142874788D01*
X188917557Y-142848430D01*
X188917557Y-139916492D01*
X188918618Y-139900307D01*
X188932463Y-139795143D01*
X188940841Y-139763875D01*
X188978297Y-139673448D01*
X188994480Y-139645417D01*
X189054070Y-139567759D01*
X189076949Y-139544880D01*
X189154607Y-139485290D01*
X189182636Y-139469107D01*
X189273066Y-139431650D01*
X189304332Y-139423273D01*
X189409498Y-139409428D01*
X189425683Y-139408367D01*
X198544765Y-139408367D01*
X198611804Y-139428052D01*
G37*
%TD.AperFunction*%
%TD*%
%TA.AperFunction,Conductor*%
%TO.N,/POE_IN_N*%
G36*
X132443039Y-104525185D02*
G01*
X132488794Y-104577989D01*
X132500000Y-104629500D01*
X132500000Y-106429792D01*
X132480315Y-106496831D01*
X132439798Y-106536121D01*
X131250000Y-107250000D01*
X131243085Y-107809960D01*
X131241568Y-107827825D01*
X131222000Y-107951386D01*
X131222000Y-108148617D01*
X131236035Y-108237229D01*
X131237553Y-108258158D01*
X131131882Y-116817531D01*
X131111371Y-116884322D01*
X131058006Y-116929422D01*
X131007891Y-116940000D01*
X130565000Y-116940000D01*
X130565000Y-127376000D01*
X130545315Y-127443039D01*
X130492511Y-127488794D01*
X130441000Y-127500000D01*
X125379500Y-127500000D01*
X125312461Y-127480315D01*
X125266706Y-127427511D01*
X125255500Y-127376000D01*
X125255500Y-116852152D01*
X125261863Y-116812940D01*
X129336080Y-104590287D01*
X129375954Y-104532913D01*
X129440518Y-104506205D01*
X129453717Y-104505500D01*
X132376000Y-104505500D01*
X132443039Y-104525185D01*
G37*
%TD.AperFunction*%
%TD*%
%TA.AperFunction,Conductor*%
%TO.N,+24V*%
G36*
X120486809Y-130269685D02*
G01*
X120532564Y-130322489D01*
X120532879Y-130323183D01*
X128249999Y-147499999D01*
X128250000Y-147500000D01*
X132450000Y-147500000D01*
X132483027Y-149977000D01*
X132376382Y-149977000D01*
X132181586Y-150007853D01*
X131994017Y-150068797D01*
X131818284Y-150158338D01*
X131658722Y-150274267D01*
X131519267Y-150413722D01*
X131403338Y-150573284D01*
X131313797Y-150749017D01*
X131252853Y-150936586D01*
X131222000Y-151131381D01*
X131222000Y-151328618D01*
X131248238Y-151494278D01*
X131239283Y-151563572D01*
X131194287Y-151617023D01*
X131159830Y-151632905D01*
X127266698Y-152745229D01*
X127232633Y-152750000D01*
X123427818Y-152750000D01*
X123427799Y-152749994D01*
X123427781Y-152750000D01*
X123393856Y-152740027D01*
X123360779Y-152730315D01*
X123360760Y-152730298D01*
X123360747Y-152730295D01*
X123334081Y-152707175D01*
X123253999Y-152614698D01*
X123253004Y-152613534D01*
X122871398Y-152160801D01*
X122870340Y-152159529D01*
X122777434Y-152046275D01*
X122494829Y-151701773D01*
X122493875Y-151700593D01*
X122124595Y-151237985D01*
X122123575Y-151236689D01*
X122041793Y-151131387D01*
X121760386Y-150769048D01*
X121759394Y-150767752D01*
X121709484Y-150701688D01*
X121402617Y-150295495D01*
X121401639Y-150294184D01*
X121051040Y-149817001D01*
X121050084Y-149815680D01*
X120706029Y-149334067D01*
X120705076Y-149332715D01*
X120367409Y-148846463D01*
X120366475Y-148845098D01*
X120035344Y-148354412D01*
X120034428Y-148353034D01*
X120031248Y-148348184D01*
X119709855Y-147857947D01*
X119708981Y-147856595D01*
X119695688Y-147835717D01*
X119420187Y-147403000D01*
X119391029Y-147357203D01*
X119390150Y-147355802D01*
X119235586Y-147105735D01*
X119078880Y-146852203D01*
X119078092Y-146850908D01*
X118833675Y-146443412D01*
X118773602Y-146343257D01*
X118772760Y-146341833D01*
X118475006Y-145830060D01*
X118474184Y-145828625D01*
X118457100Y-145798339D01*
X118183326Y-145312997D01*
X118182566Y-145311628D01*
X118040847Y-145052368D01*
X117898571Y-144792090D01*
X117897827Y-144790707D01*
X117620797Y-144267444D01*
X117620033Y-144265977D01*
X117350129Y-143739302D01*
X117349384Y-143737826D01*
X117196089Y-143428602D01*
X117086365Y-143207270D01*
X117085687Y-143205877D01*
X117062387Y-143157258D01*
X116902162Y-142822916D01*
X116829813Y-142671946D01*
X116829109Y-142670450D01*
X116745712Y-142490298D01*
X116580461Y-142133331D01*
X116579788Y-142131850D01*
X116517701Y-141992898D01*
X116338253Y-141591294D01*
X116337614Y-141589838D01*
X116297141Y-141495916D01*
X116103345Y-141046188D01*
X116102707Y-141044677D01*
X115875713Y-140497955D01*
X115875114Y-140496487D01*
X115776518Y-140249773D01*
X115655388Y-139946672D01*
X115654792Y-139945149D01*
X115548778Y-139669248D01*
X115442455Y-139392544D01*
X115441935Y-139391164D01*
X115236934Y-138835626D01*
X115236421Y-138834208D01*
X115038857Y-138276010D01*
X115038351Y-138274548D01*
X115032326Y-138256775D01*
X114943422Y-137994511D01*
X114848300Y-137713906D01*
X114847779Y-137712336D01*
X114665185Y-137149092D01*
X114664686Y-137147515D01*
X114489716Y-136582188D01*
X114489237Y-136580605D01*
X114471420Y-136520198D01*
X114321737Y-136012703D01*
X114321294Y-136011162D01*
X114252166Y-135764719D01*
X114161382Y-135441068D01*
X114160946Y-135439472D01*
X114136471Y-135347515D01*
X114008680Y-134867387D01*
X114008331Y-134866043D01*
X113863657Y-134291777D01*
X113863315Y-134290378D01*
X113726310Y-133714214D01*
X113725981Y-133712791D01*
X113596723Y-133135059D01*
X113596374Y-133133451D01*
X113578750Y-133049433D01*
X113474815Y-132553966D01*
X113474492Y-132552368D01*
X113409612Y-132221149D01*
X113360721Y-131971556D01*
X113360419Y-131969960D01*
X113351278Y-131919754D01*
X113254358Y-131387408D01*
X113254073Y-131385778D01*
X113182541Y-130960786D01*
X113155827Y-130802071D01*
X113155569Y-130800474D01*
X113092555Y-130392948D01*
X113101764Y-130323688D01*
X113146956Y-130270402D01*
X113213783Y-130250007D01*
X113215099Y-130250000D01*
X120419770Y-130250000D01*
X120486809Y-130269685D01*
G37*
%TD.AperFunction*%
%TD*%
%TA.AperFunction,Conductor*%
%TO.N,/POE_IN_P*%
G36*
X138321784Y-83437647D02*
G01*
X138360445Y-83495846D01*
X138366008Y-83533434D01*
X138225848Y-103876854D01*
X138205702Y-103943757D01*
X138152584Y-103989147D01*
X138101851Y-104000000D01*
X129000000Y-104000000D01*
X124750000Y-116750000D01*
X124750000Y-127376000D01*
X124730315Y-127443039D01*
X124677511Y-127488794D01*
X124626000Y-127500000D01*
X112863222Y-127500000D01*
X112859772Y-127498987D01*
X112856271Y-127499805D01*
X112826492Y-127489214D01*
X112796183Y-127480315D01*
X112793829Y-127477599D01*
X112790441Y-127476394D01*
X112771114Y-127451384D01*
X112750428Y-127427511D01*
X112749270Y-127423117D01*
X112747718Y-127421108D01*
X112739688Y-127386739D01*
X112729257Y-127266749D01*
X112729144Y-127265341D01*
X112685740Y-126674825D01*
X112685632Y-126673213D01*
X112684635Y-126656624D01*
X112700263Y-126588524D01*
X112700972Y-126587278D01*
X137386562Y-83830643D01*
X137437127Y-83782430D01*
X137439052Y-83781460D01*
X137721003Y-83642854D01*
X137722171Y-83642289D01*
X138188799Y-83420578D01*
X138257795Y-83409589D01*
X138321784Y-83437647D01*
G37*
%TD.AperFunction*%
%TD*%
%TA.AperFunction,Conductor*%
%TO.N,GND*%
G36*
X131427551Y-151925699D02*
G01*
X131447006Y-151946819D01*
X131519265Y-152046275D01*
X131658725Y-152185735D01*
X131818285Y-152301662D01*
X131971704Y-152379833D01*
X131994017Y-152391202D01*
X132087801Y-152421674D01*
X132181588Y-152452147D01*
X132271807Y-152466436D01*
X132376382Y-152483000D01*
X132376387Y-152483000D01*
X132573618Y-152483000D01*
X132668052Y-152468042D01*
X132768412Y-152452147D01*
X132955985Y-152391201D01*
X133131715Y-152301662D01*
X133145407Y-152291713D01*
X133211213Y-152268232D01*
X133279267Y-152284056D01*
X133310111Y-152308688D01*
X133330315Y-152330946D01*
X133337889Y-152339290D01*
X142993055Y-160323370D01*
X143192101Y-160487965D01*
X143231220Y-160545857D01*
X143232831Y-160615708D01*
X143196422Y-160675341D01*
X143133552Y-160705823D01*
X143113080Y-160707525D01*
X132401935Y-160707525D01*
X132334896Y-160687840D01*
X132332915Y-160686541D01*
X132316198Y-160675341D01*
X132210884Y-160604781D01*
X132072200Y-160511863D01*
X132070832Y-160510933D01*
X131583506Y-160174925D01*
X131582151Y-160173977D01*
X131099351Y-159831498D01*
X131098008Y-159830532D01*
X130619719Y-159481570D01*
X130618389Y-159480586D01*
X130406816Y-159321854D01*
X130144913Y-159125362D01*
X130143630Y-159124386D01*
X129960112Y-158982837D01*
X129674825Y-158762792D01*
X129673532Y-158761781D01*
X129209633Y-158393997D01*
X129208344Y-158392961D01*
X128749471Y-158019089D01*
X128748195Y-158018035D01*
X128294271Y-157638006D01*
X128293010Y-157636936D01*
X127844241Y-157250924D01*
X127842994Y-157249837D01*
X127399317Y-156857789D01*
X127398085Y-156856685D01*
X127132376Y-156615507D01*
X126959779Y-156458845D01*
X126958583Y-156457745D01*
X126808745Y-156318050D01*
X126525615Y-156054084D01*
X126524424Y-156052959D01*
X126401974Y-155935706D01*
X126096794Y-155643480D01*
X126095621Y-155642341D01*
X125673563Y-155227262D01*
X125672391Y-155226094D01*
X125255942Y-154805457D01*
X125254786Y-154804274D01*
X124843931Y-154378064D01*
X124842791Y-154376866D01*
X124700528Y-154225291D01*
X124437600Y-153945152D01*
X124436570Y-153944040D01*
X124037173Y-153506954D01*
X124036073Y-153505734D01*
X123819176Y-153261918D01*
X123789325Y-153198746D01*
X123798366Y-153129463D01*
X123843428Y-153076067D01*
X123910205Y-153055511D01*
X123911822Y-153055500D01*
X127232633Y-153055500D01*
X127275006Y-153052547D01*
X127309071Y-153047776D01*
X127350625Y-153038975D01*
X127350633Y-153038972D01*
X127350636Y-153038972D01*
X128364396Y-152749326D01*
X131243757Y-151926651D01*
X131287711Y-151910352D01*
X131294771Y-151907097D01*
X131363891Y-151896904D01*
X131427551Y-151925699D01*
G37*
%TD.AperFunction*%
%TA.AperFunction,Conductor*%
G36*
X130508039Y-130269685D02*
G01*
X130553794Y-130322489D01*
X130565000Y-130374000D01*
X130565000Y-144880000D01*
X140816983Y-144880000D01*
X140884022Y-144899685D01*
X140929777Y-144952489D01*
X140940982Y-145004496D01*
X140935000Y-146500000D01*
X150876000Y-146500000D01*
X150943039Y-146519685D01*
X150988794Y-146572489D01*
X151000000Y-146624000D01*
X151000000Y-157488411D01*
X150980315Y-157555450D01*
X150927511Y-157601205D01*
X150858353Y-157611149D01*
X150797905Y-157584729D01*
X143794103Y-151905971D01*
X142698321Y-151017499D01*
X142698316Y-151017495D01*
X142683419Y-151006154D01*
X142671049Y-150997324D01*
X142670676Y-150997074D01*
X142655457Y-150986901D01*
X136692072Y-147259785D01*
X136614377Y-147225186D01*
X136614375Y-147225185D01*
X136614373Y-147225184D01*
X136548662Y-147206339D01*
X136548654Y-147206337D01*
X136464438Y-147194500D01*
X136464437Y-147194500D01*
X132450000Y-147194500D01*
X128527893Y-147194500D01*
X128460854Y-147174815D01*
X128415099Y-147122011D01*
X128414784Y-147121317D01*
X121154255Y-130960786D01*
X120913456Y-130424816D01*
X120903939Y-130355599D01*
X120933354Y-130292223D01*
X120992363Y-130254810D01*
X121026566Y-130250000D01*
X130441000Y-130250000D01*
X130508039Y-130269685D01*
G37*
%TD.AperFunction*%
%TD*%
M02*
