M48
; DRILL file {KiCad 9.0.6} date 2026-03-30T20:06:19-0700
; FORMAT={-:-/ absolute / inch / decimal}
; #@! TF.CreationDate,2026-03-30T20:06:19-07:00
; #@! TF.GenerationSoftware,Kicad,Pcbnew,9.0.6
; #@! TF.FileFunction,Plated,1,4,PTH
FMAT,2
INCH
; #@! TA.AperFunction,Plated,PTH,ComponentDrill
T1C0.0079
; #@! TA.AperFunction,Plated,PTH,ViaDrill
T2C0.0098
; #@! TA.AperFunction,Plated,PTH,ComponentDrill
T3C0.0157
; #@! TA.AperFunction,Plated,PTH,ViaDrill
T4C0.0197
; #@! TA.AperFunction,Plated,PTH,ComponentDrill
T5C0.0197
; #@! TA.AperFunction,Plated,PTH,ComponentDrill
T6C0.0236
; #@! TA.AperFunction,Plated,PTH,ComponentDrill
T7C0.0315
; #@! TA.AperFunction,Plated,PTH,ComponentDrill
T8C0.0354
; #@! TA.AperFunction,Plated,PTH,ComponentDrill
T9C0.0394
; #@! TA.AperFunction,Plated,PTH,ComponentDrill
T10C0.0398
; #@! TA.AperFunction,Plated,PTH,ComponentDrill
T11C0.0402
; #@! TA.AperFunction,Plated,PTH,ComponentDrill
T12C0.0630
; #@! TA.AperFunction,Plated,PTH,ComponentDrill
T13C0.0669
%
G90
G05
T1
X6.7598Y-3.7165
X6.7598Y-3.8228
X6.7598Y-3.876
X6.7598Y-3.6634
X6.7598Y-3.7697
X6.813Y-3.6634
X6.813Y-3.7165
X6.813Y-3.7697
X6.813Y-3.8228
X6.813Y-3.876
X6.8661Y-3.6634
X6.8661Y-3.7165
X6.8661Y-3.7697
X6.8661Y-3.8228
X6.8661Y-3.876
X6.9193Y-3.6634
X6.9193Y-3.7165
X6.9193Y-3.7697
X6.9193Y-3.8228
X6.9193Y-3.876
X6.9724Y-3.7697
X6.9724Y-3.876
X6.9724Y-3.6634
X6.9724Y-3.7165
X6.9724Y-3.8228
T2
X5.7874Y-5.4764
X5.7874Y-5.5571
X5.7874Y-5.7028
X5.935Y-4.8917
X6.1024Y-5.3051
X6.1535Y-3.2165
X6.2205Y-4.872
X6.2397Y-5.3445
X6.2397Y-5.374
X6.263Y-6.1339
X6.2894Y-4.8524
X6.3287Y-5.2362
X6.3339Y-6.1378
X6.3858Y-3.6929
X6.3878Y-3.7598
X6.4173Y-3.7598
X6.4828Y-3.8051
X6.5Y-4.2735
X6.5049Y-3.6791
X6.5157Y-4.5433
X6.5344Y-3.7402
X6.5433Y-3.8819
X6.5866Y-4.3434
X6.6181Y-3.8268
X6.622Y-3.5925
X6.6238Y-4.4147
X6.6339Y-3.5138
X6.6387Y-4.3718
X6.6409Y-3.7362
X6.6409Y-3.811
X6.6409Y-3.9016
X6.6457Y-4.2283
X6.6501Y-4.0157
X6.6535Y-3.5039
X6.6614Y-4.4331
X6.6619Y-4.2735
X6.6736Y-3.5634
X6.6796Y-3.8922
X6.6848Y-3.6648
X6.685Y-3.3346
X6.685Y-3.622
X6.6861Y-3.7437
X6.7008Y-3.3787
X6.7008Y-3.4606
X6.7127Y-4.3543
X6.7165Y-3.3346
X6.7205Y-3.9438
X6.7224Y-4.2126
X6.7224Y-4.2421
X6.7224Y-4.2717
X6.7302Y-4.3366
X6.7598Y-3.9665
X6.7713Y-4.2638
X6.7713Y-4.3031
X6.7713Y-4.3425
X6.7713Y-4.3819
X6.7805Y-4.0244
X6.7809Y-3.5587
X6.7824Y-4.1475
X6.7913Y-3.4449
X6.8106Y-4.2638
X6.8106Y-4.3031
X6.8106Y-4.3425
X6.8106Y-4.3819
X6.8307Y-4.2126
X6.8322Y-4.4977
X6.8322Y-3.6398
X6.85Y-4.2638
X6.85Y-4.3031
X6.85Y-4.3425
X6.85Y-4.3819
X6.8575Y-3.5718
X6.8622Y-3.9882
X6.8699Y-3.5041
X6.8743Y-3.5842
X6.8894Y-4.2638
X6.8894Y-4.3031
X6.8894Y-4.3425
X6.8894Y-4.3819
X6.8898Y-4.2126
X6.893Y-3.9533
X6.8937Y-4.5118
X6.9085Y-3.4961
X6.9154Y-3.9528
X6.9224Y-4.587
X6.9252Y-3.5906
X6.937Y-4.063
X6.9406Y-4.4882
X6.9409Y-4.3858
X6.9524Y-4.6067
X6.9567Y-3.5866
X6.9607Y-3.8991
X6.9695Y-3.4961
X6.9803Y-4.1803
X6.9823Y-4.624
X6.9843Y-3.5853
X6.9882Y-4.4882
X7.002Y-4.2933
X7.002Y-4.6693
X7.0079Y-4.1535
X7.0157Y-4.2244
X7.0197Y-3.9685
X7.0276Y-3.5669
X7.0472Y-3.622
X7.0472Y-4.0354
X7.0472Y-4.252
X7.0512Y-3.7402
X7.0512Y-3.8189
X7.0551Y-3.7008
X7.0642Y-4.5528
X7.0642Y-4.7098
X7.0669Y-3.6417
X7.0669Y-3.6811
X7.0866Y-4.252
X7.0965Y-3.6713
X7.0984Y-3.7598
X7.1063Y-4.0551
X7.113Y-4.7339
X7.1232Y-4.5524
X7.126Y-5.3937
X7.126Y-5.5217
X7.1457Y-4.5866
X7.1555Y-5.4331
X7.1555Y-5.4823
X7.1949Y-5.0394
X7.1949Y-5.0787
X7.2146Y-4.5866
X7.2539Y-4.6992
X7.2594Y-4.6799
X7.2638Y-4.526
X7.2638Y-4.6213
X7.3122Y-4.5256
X7.3136Y-4.6549
X7.3138Y-4.6197
X7.3156Y-4.6896
X7.372Y-4.5866
X7.4771Y-5.7156
X7.4774Y-5.7395
X7.5381Y-5.3898
X7.5381Y-5.748
X7.6348Y-5.0827
T4
X5.4134Y-6.2598
X5.4134Y-6.2992
X5.4216Y-3.4649
X5.4528Y-6.2598
X5.4528Y-6.2992
X5.4921Y-6.2598
X5.4921Y-6.2992
X5.5315Y-6.2598
X5.5315Y-6.2992
X5.5636Y-3.5164
X5.876Y-5.7972
X5.876Y-5.8366
X5.876Y-5.876
X5.876Y-5.9154
X5.876Y-5.9547
X5.876Y-5.9941
X5.876Y-6.0335
X5.876Y-6.0728
X5.9154Y-5.7972
X5.9154Y-5.8366
X5.9154Y-5.876
X5.9154Y-5.9154
X5.9154Y-5.9547
X5.9154Y-5.9941
X5.9154Y-6.0335
X5.9154Y-6.0728
X5.9449Y-4.685
X6.1801Y-5.9331
X6.4173Y-3.3829
X7.0472Y-4.4724
X7.0866Y-4.4724
X7.2146Y-4.2126
X7.2736Y-5.1083
X7.343Y-5.03
X7.3622Y-5.0591
X7.3819Y-5.0295
X7.4016Y-5.0591
X7.4213Y-5.0295
X7.4409Y-5.0591
X7.4458Y-5.3051
X7.4655Y-5.2756
X7.4676Y-5.5574
X7.4676Y-5.5968
X7.4676Y-5.6362
X7.4676Y-5.8921
X7.4676Y-5.9314
X7.4676Y-5.9708
X7.4676Y-6.0102
X7.4852Y-5.3051
X7.4869Y-5.8337
X7.5049Y-5.2756
X7.5069Y-5.5574
X7.5069Y-5.5968
X7.5069Y-5.6362
X7.5069Y-5.8921
X7.5069Y-5.9314
X7.5069Y-5.9708
X7.5245Y-5.3051
X7.5442Y-5.2756
X7.5463Y-5.8921
X7.5463Y-5.9314
X7.5639Y-5.3051
X7.628Y-5.6594
X7.628Y-5.6988
X7.628Y-5.7382
X7.6673Y-5.6594
X7.6673Y-5.6988
X7.6673Y-5.7382
T5
X7.0709Y-4.9606
X7.0709Y-5.0
X7.0709Y-5.0394
X7.0709Y-5.0787
X7.1358Y-4.9606
X7.1358Y-5.0
X7.1358Y-5.0394
X7.1358Y-5.0787
T7
X5.6589Y-4.9093
X5.6589Y-5.2093
X5.7589Y-4.9093
X5.7589Y-5.2093
X6.2697Y-4.9508
X6.2697Y-5.0098
X6.2697Y-5.0689
X6.2697Y-5.128
T8
X6.4758Y-5.9248
X6.4758Y-6.024
X6.5258Y-6.124
X6.5758Y-5.8748
X6.5758Y-6.024
X6.6258Y-6.124
X6.6758Y-6.024
X6.7258Y-6.124
X6.7758Y-6.024
X6.8258Y-5.8748
X6.8258Y-6.124
X6.8758Y-6.024
X6.9258Y-5.9248
X6.9258Y-6.124
T9
X5.2156Y-4.0539
X5.2156Y-4.1539
X5.2156Y-4.2539
X5.2156Y-4.3539
X5.2156Y-4.4539
X5.2156Y-4.5539
X5.2156Y-5.7539
X5.2156Y-5.8539
X5.2156Y-5.9539
X5.2156Y-6.0539
X6.2598Y-5.5594
X6.2598Y-5.6594
X6.2598Y-5.7594
X7.2413Y-3.9232
X7.2913Y-4.0098
X7.3413Y-4.0964
X7.4126Y-4.2205
X7.4626Y-4.3071
X7.5126Y-4.3937
X7.5846Y-4.5177
X7.6346Y-4.6043
X7.6846Y-4.6909
X7.7559Y-4.815
X7.8059Y-4.9016
X7.8074Y-5.1548
X7.8074Y-5.2548
X7.8074Y-5.3548
X7.8559Y-4.9882
T10
X7.1417Y-6.0256
X7.189Y-5.8248
T11
X6.4394Y-5.6142
X6.5394Y-5.6142
X6.8622Y-5.6142
X6.9622Y-5.6142
T12
X6.3917Y-5.8941
X7.0098Y-5.8941
T3
G00X7.0974Y-4.8819
M15
G01X7.1093Y-4.8819
M16
G05
G00X7.1093Y-5.1181
M15
G01X7.0974Y-5.1181
M16
G05
G00X7.1093Y-5.1575
M15
G01X7.0974Y-5.1575
M16
G05
T5
G00X7.0994Y-4.9213
M15
G01X7.1073Y-4.9213
M16
G05
T6
G00X7.047Y-4.8671
M15
G01X7.047Y-4.8396
M16
G05
G00X7.047Y-5.1998
M15
G01X7.047Y-5.1722
M16
G05
G00X7.1596Y-4.8396
M15
G01X7.1596Y-4.8671
M16
G05
G00X7.1596Y-5.1998
M15
G01X7.1596Y-5.1722
M16
G05
T8
G00X5.7789Y-3.3197
M15
G01X5.7789Y-3.3197
M16
G05
G00X5.8289Y-3.4197
M15
G01X5.8289Y-3.4197
M16
G05
G00X5.8789Y-3.3197
M15
G01X5.8789Y-3.3197
M16
G05
G00X5.9289Y-3.4197
M15
G01X5.9289Y-3.4197
M16
G05
G00X5.9789Y-3.3197
M15
G01X5.9789Y-3.3197
M16
G05
G00X6.0289Y-3.4197
M15
G01X6.0289Y-3.4197
M16
G05
G00X6.0789Y-3.3197
M15
G01X6.0789Y-3.3197
M16
G05
G00X6.1789Y-3.3197
M15
G01X6.1789Y-3.3197
M16
G05
G00X6.2289Y-3.4197
M15
G01X6.2289Y-3.4197
M16
G05
T11
G00X5.743Y-3.8295
M15
G01X5.7428Y-3.8295
M16
G05
G00X5.843Y-3.8295
M15
G01X5.8428Y-3.8295
M16
G05
G00X6.165Y-3.8295
M15
G01X6.1649Y-3.8295
M16
G05
G00X6.265Y-3.8295
M15
G01X6.2649Y-3.8295
M16
G05
T13
G00X5.7007Y-3.5496
M15
G01X5.6973Y-3.5496
M16
G05
G00X6.3105Y-3.5496
M15
G01X6.3072Y-3.5496
M16
G05
M30
