%TF.GenerationSoftware,KiCad,Pcbnew,9.0.6*%
%TF.CreationDate,2026-03-30T20:06:19-07:00*%
%TF.ProjectId,Hex Lattice,48657820-4c61-4747-9469-63652e6b6963,rev?*%
%TF.SameCoordinates,Original*%
%TF.FileFunction,Soldermask,Top*%
%TF.FilePolarity,Negative*%
%FSLAX46Y46*%
G04 Gerber Fmt 4.6, Leading zero omitted, Abs format (unit mm)*
G04 Created by KiCad (PCBNEW 9.0.6) date 2026-03-30 20:06:19*
%MOMM*%
%LPD*%
G01*
G04 APERTURE LIST*
G04 Aperture macros list*
%AMRoundRect*
0 Rectangle with rounded corners*
0 $1 Rounding radius*
0 $2 $3 $4 $5 $6 $7 $8 $9 X,Y pos of 4 corners*
0 Add a 4 corners polygon primitive as box body*
4,1,4,$2,$3,$4,$5,$6,$7,$8,$9,$2,$3,0*
0 Add four circle primitives for the rounded corners*
1,1,$1+$1,$2,$3*
1,1,$1+$1,$4,$5*
1,1,$1+$1,$6,$7*
1,1,$1+$1,$8,$9*
0 Add four rect primitives between the rounded corners*
20,1,$1+$1,$2,$3,$4,$5,0*
20,1,$1+$1,$4,$5,$6,$7,0*
20,1,$1+$1,$6,$7,$8,$9,0*
20,1,$1+$1,$8,$9,$2,$3,0*%
%AMRotRect*
0 Rectangle, with rotation*
0 The origin of the aperture is its center*
0 $1 length*
0 $2 width*
0 $3 Rotation angle, in degrees counterclockwise*
0 Add horizontal line*
21,1,$1,$2,0,0,$3*%
G04 Aperture macros list end*
%ADD10C,1.200000*%
%ADD11RoundRect,0.250000X-0.475000X0.250000X-0.475000X-0.250000X0.475000X-0.250000X0.475000X0.250000X0*%
%ADD12RoundRect,0.100000X0.021213X0.162635X-0.162635X-0.021213X-0.021213X-0.162635X0.162635X0.021213X0*%
%ADD13RoundRect,0.100000X0.130000X0.100000X-0.130000X0.100000X-0.130000X-0.100000X0.130000X-0.100000X0*%
%ADD14RoundRect,0.100000X-0.130000X-0.100000X0.130000X-0.100000X0.130000X0.100000X-0.130000X0.100000X0*%
%ADD15RoundRect,0.100000X0.100000X-0.130000X0.100000X0.130000X-0.100000X0.130000X-0.100000X-0.130000X0*%
%ADD16RoundRect,0.100000X-0.100000X0.130000X-0.100000X-0.130000X0.100000X-0.130000X0.100000X0.130000X0*%
%ADD17C,1.905000*%
%ADD18R,5.900000X5.900000*%
%ADD19RoundRect,0.062500X0.375000X-0.062500X0.375000X0.062500X-0.375000X0.062500X-0.375000X-0.062500X0*%
%ADD20RoundRect,0.062500X0.062500X-0.375000X0.062500X0.375000X-0.062500X0.375000X-0.062500X-0.375000X0*%
%ADD21RoundRect,0.225000X-0.250000X0.225000X-0.250000X-0.225000X0.250000X-0.225000X0.250000X0.225000X0*%
%ADD22RoundRect,0.135000X0.135000X0.185000X-0.135000X0.185000X-0.135000X-0.185000X0.135000X-0.185000X0*%
%ADD23RoundRect,0.140000X0.021213X-0.219203X0.219203X-0.021213X-0.021213X0.219203X-0.219203X0.021213X0*%
%ADD24C,2.000000*%
%ADD25RoundRect,0.250000X0.475000X-0.250000X0.475000X0.250000X-0.475000X0.250000X-0.475000X-0.250000X0*%
%ADD26RoundRect,0.250000X0.536362X0.020994X0.286362X0.454006X-0.536362X-0.020994X-0.286362X-0.454006X0*%
%ADD27C,3.000000*%
%ADD28R,3.500000X3.000000*%
%ADD29RoundRect,0.250000X0.250000X0.475000X-0.250000X0.475000X-0.250000X-0.475000X0.250000X-0.475000X0*%
%ADD30RoundRect,0.250000X0.325000X0.650000X-0.325000X0.650000X-0.325000X-0.650000X0.325000X-0.650000X0*%
%ADD31RoundRect,0.250000X-0.536362X-0.020994X-0.286362X-0.454006X0.536362X0.020994X0.286362X0.454006X0*%
%ADD32R,0.200000X0.875000*%
%ADD33R,0.875000X0.200000*%
%ADD34R,3.400000X3.400000*%
%ADD35C,2.010000*%
%ADD36RoundRect,0.250000X0.450000X0.350000X-0.450000X0.350000X-0.450000X-0.350000X0.450000X-0.350000X0*%
%ADD37R,1.580000X0.800000*%
%ADD38RoundRect,0.147500X0.172500X-0.147500X0.172500X0.147500X-0.172500X0.147500X-0.172500X-0.147500X0*%
%ADD39RotRect,1.700000X1.700000X30.000000*%
%ADD40C,1.700000*%
%ADD41RoundRect,0.218750X-0.218750X-0.256250X0.218750X-0.256250X0.218750X0.256250X-0.218750X0.256250X0*%
%ADD42RoundRect,0.135000X-0.185000X0.135000X-0.185000X-0.135000X0.185000X-0.135000X0.185000X0.135000X0*%
%ADD43RoundRect,0.250000X0.650000X-0.325000X0.650000X0.325000X-0.650000X0.325000X-0.650000X-0.325000X0*%
%ADD44RoundRect,0.135000X0.185000X-0.135000X0.185000X0.135000X-0.185000X0.135000X-0.185000X-0.135000X0*%
%ADD45RoundRect,0.225000X-0.225000X-0.250000X0.225000X-0.250000X0.225000X0.250000X-0.225000X0.250000X0*%
%ADD46R,1.200000X1.800000*%
%ADD47RoundRect,0.250000X-0.550000X1.050000X-0.550000X-1.050000X0.550000X-1.050000X0.550000X1.050000X0*%
%ADD48RoundRect,0.250000X1.000000X-1.950000X1.000000X1.950000X-1.000000X1.950000X-1.000000X-1.950000X0*%
%ADD49RoundRect,0.218750X-0.256250X0.218750X-0.256250X-0.218750X0.256250X-0.218750X0.256250X0.218750X0*%
%ADD50R,1.500000X1.500000*%
%ADD51C,1.500000*%
%ADD52C,1.800000*%
%ADD53C,2.200000*%
%ADD54R,0.600000X0.250000*%
%ADD55R,0.250000X0.600000*%
%ADD56R,0.250000X1.700000*%
%ADD57R,0.400000X2.100000*%
%ADD58R,0.800000X0.250000*%
%ADD59R,1.600000X1.000000*%
%ADD60O,1.200000X1.800000*%
%ADD61O,1.000000X0.800000*%
%ADD62C,0.800000*%
%ADD63R,1.700000X1.700000*%
%ADD64C,1.408000*%
%ADD65C,1.530000*%
%ADD66C,2.400000*%
%ADD67C,0.185000*%
%ADD68R,0.800000X0.300000*%
%ADD69R,0.300000X0.800000*%
%ADD70R,1.500000X1.000000*%
%ADD71RoundRect,0.250000X-0.550000X1.250000X-0.550000X-1.250000X0.550000X-1.250000X0.550000X1.250000X0*%
%ADD72RoundRect,0.250000X-0.550000X0.550000X-0.550000X-0.550000X0.550000X-0.550000X0.550000X0.550000X0*%
%ADD73C,1.600000*%
%ADD74R,0.600000X0.730000*%
%ADD75R,1.400000X0.500000*%
%ADD76R,2.000000X1.200000*%
G04 APERTURE END LIST*
D10*
%TO.C,J7*%
X159250000Y-125749500D03*
X159250000Y-127248000D03*
X159250000Y-128749500D03*
X159250000Y-130250500D03*
%TD*%
D11*
%TO.C,C37*%
X156500000Y-129050000D03*
X156500000Y-130950000D03*
%TD*%
D12*
%TO.C,C2*%
X178873726Y-100376274D03*
X179326274Y-99923726D03*
%TD*%
D13*
%TO.C,C3*%
X174280000Y-100800000D03*
X174920000Y-100800000D03*
%TD*%
D14*
%TO.C,C4*%
X180320000Y-95000000D03*
X179680000Y-95000000D03*
%TD*%
D15*
%TO.C,C5*%
X178200000Y-107780000D03*
X178200000Y-108420000D03*
%TD*%
%TO.C,C6*%
X177500000Y-89980000D03*
X177500000Y-90620000D03*
%TD*%
D16*
%TO.C,C7*%
X166600000Y-98600000D03*
X166600000Y-97960000D03*
%TD*%
%TO.C,C8*%
X165800000Y-98600000D03*
X165800000Y-97960000D03*
%TD*%
D13*
%TO.C,C9*%
X168680000Y-97200000D03*
X169320000Y-97200000D03*
%TD*%
%TO.C,C10*%
X168680000Y-99500000D03*
X169320000Y-99500000D03*
%TD*%
%TO.C,C11*%
X168760000Y-91500000D03*
X169400000Y-91500000D03*
%TD*%
%TO.C,C12*%
X168680000Y-94500000D03*
X169320000Y-94500000D03*
%TD*%
D14*
%TO.C,C13*%
X172040000Y-90700000D03*
X171400000Y-90700000D03*
%TD*%
D16*
%TO.C,C14*%
X178250000Y-106820000D03*
X178250000Y-106180000D03*
%TD*%
D13*
%TO.C,C16*%
X168680000Y-95300000D03*
X169320000Y-95300000D03*
%TD*%
%TO.C,C17*%
X168680000Y-96400000D03*
X169320000Y-96400000D03*
%TD*%
D15*
%TO.C,C19*%
X176700000Y-89980000D03*
X176700000Y-90620000D03*
%TD*%
D14*
%TO.C,C20*%
X176420000Y-100800000D03*
X175780000Y-100800000D03*
%TD*%
D15*
%TO.C,C22*%
X175900000Y-90080000D03*
X175900000Y-90720000D03*
%TD*%
%TO.C,C42*%
X175100000Y-90080000D03*
X175100000Y-90720000D03*
%TD*%
D14*
%TO.C,C43*%
X174070000Y-87657500D03*
X173430000Y-87657500D03*
%TD*%
D13*
%TO.C,C44*%
X165130000Y-107300000D03*
X165770000Y-107300000D03*
%TD*%
D14*
%TO.C,C45*%
X166520000Y-111897500D03*
X165880000Y-111897500D03*
%TD*%
D16*
%TO.C,C46*%
X168800000Y-110620000D03*
X168800000Y-109980000D03*
%TD*%
D14*
%TO.C,C48*%
X174570000Y-114750000D03*
X173930000Y-114750000D03*
%TD*%
D16*
%TO.C,C49*%
X175800000Y-115220000D03*
X175800000Y-114580000D03*
%TD*%
D15*
%TO.C,C50*%
X168800000Y-107880000D03*
X168800000Y-108520000D03*
%TD*%
%TO.C,C51*%
X168700000Y-112080000D03*
X168700000Y-112720000D03*
%TD*%
D13*
%TO.C,C58*%
X184566132Y-145258367D03*
X185206132Y-145258367D03*
%TD*%
D14*
%TO.C,R2*%
X177220000Y-115950000D03*
X176580000Y-115950000D03*
%TD*%
D16*
%TO.C,R3*%
X167700000Y-112720000D03*
X167700000Y-112080000D03*
%TD*%
D14*
%TO.C,R4*%
X169320000Y-92200000D03*
X168680000Y-92200000D03*
%TD*%
D13*
%TO.C,R5*%
X180580000Y-109300000D03*
X181220000Y-109300000D03*
%TD*%
D14*
%TO.C,R6*%
X181220000Y-108500000D03*
X180580000Y-108500000D03*
%TD*%
%TO.C,R7*%
X180120000Y-97500000D03*
X179480000Y-97500000D03*
%TD*%
D13*
%TO.C,R9*%
X154780000Y-81700000D03*
X155420000Y-81700000D03*
%TD*%
D14*
%TO.C,R10*%
X160300000Y-155800000D03*
X159660000Y-155800000D03*
%TD*%
%TO.C,R11*%
X169020000Y-90700000D03*
X168380000Y-90700000D03*
%TD*%
D16*
%TO.C,R12*%
X163000000Y-96570000D03*
X163000000Y-95930000D03*
%TD*%
%TO.C,R13*%
X162250000Y-96570000D03*
X162250000Y-95930000D03*
%TD*%
D15*
%TO.C,R14*%
X162250000Y-94430000D03*
X162250000Y-95070000D03*
%TD*%
D13*
%TO.C,R20*%
X172930000Y-90750000D03*
X173570000Y-90750000D03*
%TD*%
D16*
%TO.C,R23*%
X168250000Y-88570000D03*
X168250000Y-87930000D03*
%TD*%
D15*
%TO.C,R24*%
X163000000Y-94430000D03*
X163000000Y-95070000D03*
%TD*%
D16*
%TO.C,R25*%
X169800000Y-84320000D03*
X169800000Y-83680000D03*
%TD*%
%TO.C,R26*%
X170600000Y-84320000D03*
X170600000Y-83680000D03*
%TD*%
D15*
%TO.C,R27*%
X169800000Y-85180000D03*
X169800000Y-85820000D03*
%TD*%
%TO.C,R28*%
X170600000Y-85180000D03*
X170600000Y-85820000D03*
%TD*%
%TO.C,R29*%
X181000000Y-140680000D03*
X181000000Y-141320000D03*
%TD*%
D16*
%TO.C,R30*%
X181000000Y-136570000D03*
X181000000Y-135930000D03*
%TD*%
D15*
%TO.C,R31*%
X181000000Y-137430000D03*
X181000000Y-138070000D03*
%TD*%
D16*
%TO.C,R32*%
X167900000Y-93870000D03*
X167900000Y-93230000D03*
%TD*%
D15*
%TO.C,R33*%
X181000000Y-139180000D03*
X181000000Y-139820000D03*
%TD*%
D14*
%TO.C,R34*%
X169320000Y-93000000D03*
X168680000Y-93000000D03*
%TD*%
D13*
%TO.C,R35*%
X168680000Y-100300000D03*
X169320000Y-100300000D03*
%TD*%
D14*
%TO.C,R36*%
X170820000Y-100800000D03*
X170180000Y-100800000D03*
%TD*%
D13*
%TO.C,R37*%
X168680000Y-97900000D03*
X169320000Y-97900000D03*
%TD*%
D16*
%TO.C,R38*%
X167900000Y-99620000D03*
X167900000Y-98980000D03*
%TD*%
D15*
%TO.C,R42*%
X169000000Y-87930000D03*
X169000000Y-88570000D03*
%TD*%
D14*
%TO.C,R43*%
X162082500Y-132750000D03*
X161442500Y-132750000D03*
%TD*%
%TO.C,R45*%
X162070000Y-133500000D03*
X161430000Y-133500000D03*
%TD*%
D17*
%TO.C,U1*%
X132475000Y-153770000D03*
X132475000Y-151230000D03*
X132475000Y-148690000D03*
X132475000Y-146150000D03*
X132475000Y-115670000D03*
X132475000Y-113130000D03*
X132475000Y-110590000D03*
X132475000Y-108050000D03*
X132475000Y-105510000D03*
X132475000Y-102970000D03*
%TD*%
D18*
%TO.C,U2*%
X174400000Y-95750000D03*
D19*
X170462500Y-99000000D03*
X170462500Y-98500000D03*
X170462500Y-98000000D03*
X170462500Y-97500000D03*
X170462500Y-97000000D03*
X170462500Y-96500000D03*
X170462500Y-96000000D03*
X170462500Y-95500000D03*
X170462500Y-95000000D03*
X170462500Y-94500000D03*
X170462500Y-94000000D03*
X170462500Y-93500000D03*
X170462500Y-93000000D03*
X170462500Y-92500000D03*
D20*
X171150000Y-91812500D03*
X171650000Y-91812500D03*
X172150000Y-91812500D03*
X172650000Y-91812500D03*
X173150000Y-91812500D03*
X173650000Y-91812500D03*
X174150000Y-91812500D03*
X174650000Y-91812500D03*
X175150000Y-91812500D03*
X175650000Y-91812500D03*
X176150000Y-91812500D03*
X176650000Y-91812500D03*
X177150000Y-91812500D03*
X177650000Y-91812500D03*
D19*
X178337500Y-92500000D03*
X178337500Y-93000000D03*
X178337500Y-93500000D03*
X178337500Y-94000000D03*
X178337500Y-94500000D03*
X178337500Y-95000000D03*
X178337500Y-95500000D03*
X178337500Y-96000000D03*
X178337500Y-96500000D03*
X178337500Y-97000000D03*
X178337500Y-97500000D03*
X178337500Y-98000000D03*
X178337500Y-98500000D03*
X178337500Y-99000000D03*
D20*
X177650000Y-99687500D03*
X177150000Y-99687500D03*
X176650000Y-99687500D03*
X176150000Y-99687500D03*
X175650000Y-99687500D03*
X175150000Y-99687500D03*
X174650000Y-99687500D03*
X174150000Y-99687500D03*
X173650000Y-99687500D03*
X173150000Y-99687500D03*
X172650000Y-99687500D03*
X172150000Y-99687500D03*
X171650000Y-99687500D03*
X171150000Y-99687500D03*
%TD*%
D21*
%TO.C,C40*%
X178600000Y-111025000D03*
X178600000Y-112575000D03*
%TD*%
D22*
%TO.C,R19*%
X193510000Y-121050000D03*
X192490000Y-121050000D03*
%TD*%
D21*
%TO.C,C39*%
X180100000Y-111025000D03*
X180100000Y-112575000D03*
%TD*%
D23*
%TO.C,C47*%
X174810588Y-104539411D03*
X175489412Y-103860589D03*
%TD*%
D24*
%TO.C,TP5*%
X176050000Y-86200000D03*
%TD*%
D25*
%TO.C,C38*%
X154750000Y-137950000D03*
X154750000Y-136050000D03*
%TD*%
D26*
%TO.C,C25*%
X190425000Y-116622724D03*
X189475000Y-114977276D03*
%TD*%
D27*
%TO.C,TP2*%
X151000000Y-119000000D03*
%TD*%
D22*
%TO.C,R40*%
X191177557Y-147150000D03*
X190157557Y-147150000D03*
%TD*%
D28*
%TO.C,L5*%
X185676132Y-142908367D03*
X185676132Y-137908367D03*
%TD*%
D29*
%TO.C,C35*%
X194223259Y-132450000D03*
X192323259Y-132450000D03*
%TD*%
D30*
%TO.C,C24*%
X159925000Y-150700000D03*
X156975000Y-150700000D03*
%TD*%
D31*
%TO.C,C27*%
X195475000Y-125427276D03*
X196425000Y-127072724D03*
%TD*%
D32*
%TO.C,U3*%
X176290000Y-106224999D03*
X175890000Y-106224999D03*
X175490000Y-106224999D03*
X175090000Y-106224999D03*
X174690000Y-106224999D03*
X174290000Y-106224999D03*
X173890000Y-106224999D03*
X173490000Y-106224999D03*
X173090000Y-106224999D03*
X172690000Y-106224999D03*
X172290000Y-106224999D03*
X171890000Y-106224999D03*
X171490000Y-106224999D03*
X171090000Y-106224999D03*
X170690000Y-106224999D03*
D33*
X169915000Y-106999999D03*
X169915000Y-107399999D03*
X169915000Y-107799999D03*
X169915000Y-108199999D03*
X169915000Y-108599999D03*
X169915000Y-108999999D03*
X169915000Y-109399999D03*
X169915000Y-109799999D03*
X169915000Y-110199999D03*
X169915000Y-110599999D03*
X169915000Y-110999999D03*
X169915000Y-111399999D03*
X169915000Y-111799999D03*
X169915000Y-112199999D03*
X169915000Y-112599999D03*
D32*
X170690000Y-113374999D03*
X171090000Y-113374999D03*
X171489500Y-113374999D03*
X171890000Y-113374999D03*
X172290000Y-113374999D03*
X172690000Y-113374999D03*
X173090000Y-113374999D03*
X173489500Y-113374999D03*
X173890000Y-113374999D03*
X174290000Y-113374999D03*
X174690000Y-113374999D03*
X175090000Y-113374999D03*
X175489500Y-113374999D03*
X175890000Y-113374999D03*
X176290000Y-113374999D03*
D33*
X177065000Y-112599999D03*
X177065000Y-112199999D03*
X177065000Y-111799999D03*
X177065000Y-111399999D03*
X177065000Y-110999999D03*
X177065000Y-110599999D03*
X177065000Y-110199999D03*
X177065000Y-109799999D03*
X177065000Y-109399999D03*
X177065000Y-108999999D03*
X177065000Y-108599999D03*
X177065000Y-108199999D03*
X177065000Y-107799999D03*
X177065000Y-107399999D03*
X177065000Y-106999999D03*
D34*
X173490000Y-109799999D03*
%TD*%
D35*
%TO.C,F1*%
X182600000Y-147950000D03*
X181400000Y-153050000D03*
%TD*%
D36*
%TO.C,Y1*%
X167300000Y-108547500D03*
X165100000Y-108547500D03*
X165100000Y-110247500D03*
X167300000Y-110247500D03*
%TD*%
D37*
%TO.C,SW2*%
X150000000Y-139100000D03*
X144000000Y-139100000D03*
X150000000Y-135400000D03*
X144000000Y-135400000D03*
%TD*%
D25*
%TO.C,C34*%
X189676132Y-139850000D03*
X189676132Y-137950000D03*
%TD*%
D29*
%TO.C,C30*%
X188126132Y-151908367D03*
X186226132Y-151908367D03*
%TD*%
D38*
%TO.C,D3*%
X171500000Y-84715000D03*
X171500000Y-83745000D03*
%TD*%
D39*
%TO.C,J2*%
X183930000Y-99650296D03*
D40*
X185200000Y-101850001D03*
X186470000Y-104049705D03*
%TD*%
D25*
%TO.C,C28*%
X190423259Y-132800000D03*
X190423259Y-130900000D03*
%TD*%
D26*
%TO.C,C26*%
X185975000Y-109322724D03*
X185025000Y-107677276D03*
%TD*%
D37*
%TO.C,SW1*%
X150000000Y-145100000D03*
X144000000Y-145100000D03*
X150000000Y-141400000D03*
X144000000Y-141400000D03*
%TD*%
D41*
%TO.C,FB2*%
X168912500Y-102000000D03*
X170487500Y-102000000D03*
%TD*%
D39*
%TO.C,J5*%
X192650000Y-114750000D03*
D40*
X193920000Y-116949705D03*
X195190000Y-119149409D03*
%TD*%
D27*
%TO.C,TP7*%
X122650000Y-113950000D03*
%TD*%
D42*
%TO.C,R17*%
X187950000Y-111990000D03*
X187950000Y-113010000D03*
%TD*%
D43*
%TO.C,C52*%
X163000000Y-88875000D03*
X163000000Y-85925000D03*
%TD*%
D44*
%TO.C,R39*%
X164800000Y-88260000D03*
X164800000Y-87240000D03*
%TD*%
D45*
%TO.C,C15*%
X165975000Y-95000000D03*
X167525000Y-95000000D03*
%TD*%
D31*
%TO.C,C1*%
X182025000Y-102077276D03*
X182975000Y-103722724D03*
%TD*%
D44*
%TO.C,R21*%
X183750000Y-129010000D03*
X183750000Y-127990000D03*
%TD*%
D46*
%TO.C,L2*%
X190473259Y-128250000D03*
X192473259Y-128250000D03*
%TD*%
D47*
%TO.C,C31*%
X186923259Y-130300000D03*
X186923259Y-133900000D03*
%TD*%
D48*
%TO.C,C32*%
X146250000Y-157700000D03*
X146250000Y-149300000D03*
%TD*%
D44*
%TO.C,R41*%
X190517557Y-146210000D03*
X190517557Y-145190000D03*
%TD*%
D27*
%TO.C,TP4*%
X191250000Y-124750000D03*
%TD*%
D49*
%TO.C,FB1*%
X170200000Y-88712500D03*
X170200000Y-90287500D03*
%TD*%
D27*
%TO.C,TP8*%
X128550000Y-114250000D03*
%TD*%
D39*
%TO.C,J4*%
X188280000Y-107200296D03*
D40*
X189550000Y-109400001D03*
X190820000Y-111599705D03*
%TD*%
D50*
%TO.C,J3*%
X175915000Y-155550032D03*
D51*
X174645000Y-153010033D03*
X173375001Y-155550033D03*
X172105000Y-153010033D03*
X170835000Y-155550033D03*
X169565000Y-153010033D03*
X168295001Y-155550033D03*
X167025000Y-153010033D03*
X165755000Y-155550033D03*
X164485000Y-153010033D03*
X175915000Y-150490033D03*
X173375000Y-149220033D03*
X167025000Y-149220033D03*
X164485000Y-150490033D03*
D52*
X176840000Y-142600034D03*
X174300000Y-142600034D03*
X166100000Y-142600034D03*
X163559999Y-142600033D03*
D53*
X178050000Y-149710033D03*
X162350000Y-149710033D03*
%TD*%
D42*
%TO.C,R16*%
X184000000Y-104940000D03*
X184000000Y-105960000D03*
%TD*%
D54*
%TO.C,U11*%
X189077557Y-147400000D03*
X189077557Y-146900000D03*
X189077557Y-146400000D03*
X189077557Y-145900000D03*
D55*
X188607557Y-145250000D03*
D56*
X187307557Y-145800000D03*
D55*
X186807557Y-145250000D03*
D57*
X186727557Y-147300000D03*
D58*
X186357557Y-147400000D03*
X186357557Y-146900000D03*
X186357557Y-146400000D03*
D57*
X187887557Y-147300000D03*
D55*
X188607557Y-148050000D03*
%TD*%
D38*
%TO.C,D2*%
X168900000Y-84730000D03*
X168900000Y-83760000D03*
%TD*%
D59*
%TO.C,L3*%
X182000000Y-112900000D03*
X182000000Y-110900000D03*
%TD*%
D60*
%TO.C,USB1*%
X178995000Y-131725000D03*
X181855000Y-131725000D03*
X178995000Y-123275000D03*
X181855000Y-123275000D03*
D61*
X180425000Y-124000000D03*
X180425000Y-125000000D03*
D62*
X181250000Y-126000000D03*
X181250000Y-127000000D03*
X181250000Y-128000000D03*
X181250000Y-129000000D03*
D61*
X180425000Y-130000000D03*
X180425000Y-131000000D03*
D62*
X179600000Y-129000000D03*
X179600000Y-128000000D03*
X179600000Y-127000000D03*
X179600000Y-126000000D03*
%TD*%
D41*
%TO.C,FB4*%
X164662499Y-96650000D03*
X166237501Y-96650000D03*
%TD*%
D45*
%TO.C,C41*%
X176925000Y-114850000D03*
X178475000Y-114850000D03*
%TD*%
D29*
%TO.C,C33*%
X188126132Y-149878367D03*
X186226132Y-149878367D03*
%TD*%
D42*
%TO.C,R8*%
X167600000Y-96190000D03*
X167600000Y-97210000D03*
%TD*%
D63*
%TO.C,J9*%
X159000000Y-141210000D03*
D40*
X159000000Y-143750000D03*
X159000000Y-146290000D03*
%TD*%
D64*
%TO.C,J1*%
X146784750Y-84319968D03*
X148054750Y-86859967D03*
X149324749Y-84319967D03*
X150594750Y-86859967D03*
X151864750Y-84319967D03*
X153134750Y-86859967D03*
X154404749Y-84319967D03*
X156944750Y-84319967D03*
X158214750Y-86859967D03*
D65*
X145869751Y-97269967D03*
X148409750Y-97269967D03*
X156589750Y-97269967D03*
X159129750Y-97269966D03*
D66*
X144754750Y-90159967D03*
X160244750Y-90159967D03*
%TD*%
D24*
%TO.C,TP6*%
X163600000Y-91450000D03*
%TD*%
D49*
%TO.C,FB3*%
X171800000Y-88012500D03*
X171800000Y-89587500D03*
%TD*%
D67*
%TO.C,U7*%
X192123259Y-130600000D03*
X192123259Y-130200000D03*
X192523259Y-130600000D03*
X192523259Y-130200000D03*
X192923259Y-130600000D03*
X192923259Y-130200000D03*
%TD*%
D22*
%TO.C,R18*%
X191760000Y-118100000D03*
X190740000Y-118100000D03*
%TD*%
D44*
%TO.C,R1*%
X183925000Y-126010000D03*
X183925000Y-124990000D03*
%TD*%
D68*
%TO.C,U8*%
X178430000Y-117880000D03*
D69*
X178930500Y-118880000D03*
X179430000Y-118880000D03*
X179930000Y-118880000D03*
X180430000Y-118880000D03*
X180930500Y-118880000D03*
D68*
X181430000Y-117880000D03*
X181430000Y-117380000D03*
D69*
X180930500Y-116380000D03*
X180430000Y-116380000D03*
X179930000Y-116380000D03*
X179430000Y-116380000D03*
X178930500Y-116380000D03*
D68*
X178430000Y-117380000D03*
D70*
X179930000Y-117630000D03*
%TD*%
D71*
%TO.C,C29*%
X193634869Y-136849651D03*
X193634869Y-141249651D03*
%TD*%
D39*
%TO.C,J6*%
X197000000Y-122300000D03*
D40*
X198270000Y-124499705D03*
X199540000Y-126699409D03*
%TD*%
D27*
%TO.C,TP1*%
X187500000Y-121250000D03*
%TD*%
D45*
%TO.C,C21*%
X165225000Y-93450000D03*
X166775000Y-93450000D03*
%TD*%
%TO.C,C18*%
X175475000Y-88800000D03*
X177025000Y-88800000D03*
%TD*%
D22*
%TO.C,R15*%
X158810000Y-148850000D03*
X157790000Y-148850000D03*
%TD*%
D72*
%TO.C,U5*%
X146275000Y-124695000D03*
D73*
X143735000Y-124695000D03*
X143735000Y-132315000D03*
X146275000Y-132315000D03*
%TD*%
D63*
%TO.C,J8*%
X198308261Y-130933119D03*
D40*
X198308261Y-133473119D03*
X198308261Y-136013119D03*
%TD*%
D25*
%TO.C,C36*%
X176500000Y-119950000D03*
X176500000Y-118050000D03*
%TD*%
D44*
%TO.C,R22*%
X194023259Y-130810000D03*
X194023259Y-129790000D03*
%TD*%
D45*
%TO.C,C23*%
X166875000Y-106500000D03*
X168425000Y-106500000D03*
%TD*%
D74*
%TO.C,Y3*%
X173350000Y-88657500D03*
X173350000Y-89757500D03*
X174150000Y-89757500D03*
X174150000Y-88657500D03*
%TD*%
D27*
%TO.C,TP3*%
X182750000Y-157250000D03*
%TD*%
D75*
%TO.C,J10*%
X156762500Y-137000000D03*
X156762500Y-136000000D03*
X156762500Y-135000000D03*
X156762500Y-134000000D03*
D76*
X159212500Y-132900000D03*
X159212500Y-138100000D03*
%TD*%
M02*
